<svg xmlns="http://www.w3.org/2000/svg" xmlns:xlink="http://www.w3.org/1999/xlink" width="24" height="24" viewBox="0 0 24 24">
    <defs>
        <path id="a" d="M10.065 16.146a.5.5 0 0 1 .357-.15h9.495c.6 0 1.083-.457 1.083-1V6.002c0-.542-.483-1-1.083-1H4.083c-.6 0-1.083.458-1.083 1v9c0 .543.483 1 1.083 1H7a.5.5 0 0 1 .5.5v2.263l2.565-2.618zm-2.007 3.477c-.702.717-1.558.355-1.558-.643V17H4.083c-1.14 0-2.083-.892-2.083-2v-9c0-1.107.942-2 2.083-2h15.834c1.14 0 2.083.893 2.083 2v8.996c0 1.107-.942 2-2.083 2h-9.285l-2.574 2.626z"/>
    </defs>
    <use fill="#ec0000" fill-rule="nonzero" xlink:href="#a"/>
</svg>
