<svg xmlns="http://www.w3.org/2000/svg" xmlns:xlink="http://www.w3.org/1999/xlink" width="24" height="24" viewBox="0 0 24 24">
    <defs>
        <path id="a" d="M18.673 17.965l2.475-2.474a.5.5 0 1 1 .707.707l-2.475 2.475 2.475 2.474a.5.5 0 0 1-.707.708l-2.475-2.475-2.475 2.475a.5.5 0 1 1-.707-.708l2.475-2.474-2.475-2.475a.5.5 0 0 1 .707-.707l2.475 2.474zM5.335 4.62L7.81 2.145a.5.5 0 0 1 .707.708L6.042 5.327l2.475 2.475a.5.5 0 1 1-.707.707L5.335 6.035 2.86 8.509a.5.5 0 1 1-.707-.707l2.475-2.475-2.475-2.474a.5.5 0 1 1 .707-.708L5.335 4.62zM19.5 3.865v7.637a.5.5 0 0 1-.5.5H6v3.035a3.5 3.5 0 1 1-1 0v-3.535a.5.5 0 0 1 .5-.5H18.5V3.865l-1.617 1.912a.5.5 0 1 1-.764-.646l2.5-2.955a.499.499 0 0 1 .763 0l2.499 2.955a.5.5 0 0 1-.764.646L19.5 3.865zM5.499 21a2.5 2.5 0 1 0 0-5 2.5 2.5 0 0 0 0 5z"/>
    </defs>
    <use fill="#222" fill-rule="nonzero" xlink:href="#a"/>
</svg>
