<svg xmlns="http://www.w3.org/2000/svg" xmlns:xlink="http://www.w3.org/1999/xlink" width="24" height="24" viewBox="0 0 24 24">
    <defs>
        <path id="a" d="M18.002 7.83v-.666a.5.5 0 0 1 .5-.5h3a1.5 1.5 0 0 1 1.5 1.5v7a1.5 1.5 0 0 1-1.5 1.5h-3a.5.5 0 0 1-.5-.5v-.71h-2.18l-3.53 2.633a2.354 2.354 0 0 1-3.017-.186l-2.711-2.235c-.104-.106-.18-.14-.262-.14H2.296A1.292 1.292 0 0 1 .998 14.24V9.35c0-.712.583-1.287 1.298-1.287h3.416c.082-.063.17-.121.265-.173l3.202-2.006a3.748 3.748 0 0 1 2.609-.33L17.23 7.83h.772zm0 1h-.873l-.193-.039-5.457-2.29a3.368 3.368 0 0 0-.557-.048c-.443 0-.868.104-1.249.3l-3.193 2c-.459.25-.611.77-.375 1.181a.923.923 0 0 0 1.235.336l1.674-1.11a1.317 1.317 0 0 1 1.57.111l5.11 5.182h2.308V8.83zm-12.95.233H2.296a.292.292 0 0 0-.298.287v4.89c0 .156.132.286.298.286h4.006c.36 0 .705.151.948.416l2.688 2.211c.498.473 1.234.519 1.759.131l3.102-2.314-4.9-4.97c-.073-.062-.227-.074-.342-.001l-1.702 1.127c-.95.519-2.104.2-2.617-.694a1.82 1.82 0 0 1-.186-1.369zm13.95 6.601h2.5a.5.5 0 0 0 .5-.5v-7a.5.5 0 0 0-.5-.5h-2.5v8z"/>
    </defs>
    <use fill="#CC0000" fill-rule="nonzero" xlink:href="#a"/>
</svg>
