<svg xmlns="http://www.w3.org/2000/svg" xmlns:xlink="http://www.w3.org/1999/xlink" width="24" height="24" viewBox="0 0 24 24">
    <defs>
        <path id="a" d="M18.087 17a2.501 2.501 0 1 1 .029 1H14.38a2.5 2.5 0 0 1-4.868 0H5.9a2.5 2.5 0 1 1-2.95-2.95V4.855c0-.472.382-.855.855-.855h7.445a.7.7 0 0 1 .516 1.173L9.83 7.535c-.015.015-.015.04.025.081l1.89 2.19A.7.7 0 0 1 11.25 11h-7.3v4.05c.98.2 1.751.971 1.95 1.95h3.584a2.501 2.501 0 0 1 4.926 0h3.677zM3.95 5v5h6.643l-1.47-1.703c-.405-.406-.405-1.063-.033-1.432L10.615 5H3.95zm1 12.5a1.5 1.5 0 1 0-3 0 1.5 1.5 0 0 0 3 0zm8.497-.07a1.5 1.5 0 1 0-3-.001 1.5 1.5 0 0 0 3 0zm8.603 0a1.5 1.5 0 1 0-3-.001 1.5 1.5 0 0 0 3 0z"/>
    </defs>
    <use fill="#ec0000" fill-rule="nonzero" xlink:href="#a"/>
</svg>
