<svg xmlns="http://www.w3.org/2000/svg" xmlns:xlink="http://www.w3.org/1999/xlink" width="136" height="136" viewBox="0 0 136 136">
    <defs>
        <path id="a" d="M0 .04h136v134.887H0z"/>
        <path id="c" d="M.461 59.902v.005c0 32.691 26.72 59.192 59.682 59.192h.005c32.964 0 59.686-26.504 59.686-59.197 0-32.695-26.722-59.199-59.686-59.199S.46 27.207.46 59.902z"/>
        <path id="e" d="M.461 59.902v.005c0 32.691 26.72 59.192 59.682 59.192h.005c32.964 0 59.686-26.504 59.686-59.197 0-32.695-26.722-59.199-59.686-59.199S.46 27.207.46 59.902z"/>
        <path id="g" d="M57.81.414c13.511 10.853 22.15 27.44 22.15 46.03 0 32.693-26.723 59.197-59.687 59.197h-.005a60.027 60.027 0 0 1-19.976-3.397V.414h57.517z"/>
        <path id="i" d="M.461 59.902v.005c0 32.691 26.72 59.192 59.682 59.192h.005c32.964 0 59.686-26.504 59.686-59.197 0-32.695-26.722-59.199-59.686-59.199S.46 27.207.46 59.902"/>
        <path id="k" d="M.461 59.902v.005c0 32.691 26.72 59.192 59.682 59.192h.005c32.964 0 59.686-26.504 59.686-59.197 0-32.695-26.722-59.199-59.686-59.199S.46 27.207.46 59.902"/>
        <path id="m" d="M.461 59.902v.005c0 32.691 26.72 59.192 59.682 59.192h.005c32.964 0 59.686-26.504 59.686-59.197 0-32.695-26.722-59.199-59.686-59.199S.46 27.207.46 59.902"/>
        <path id="o" d="M.461 59.902v.005c0 32.691 26.72 59.192 59.682 59.192h.005c32.964 0 59.686-26.504 59.686-59.197 0-32.695-26.722-59.199-59.686-59.199S.46 27.207.46 59.902"/>
        <path id="q" d="M.461 59.902v.005c0 32.691 26.72 59.192 59.682 59.192h.005c32.964 0 59.686-26.504 59.686-59.197 0-32.695-26.722-59.199-59.686-59.199S.46 27.207.46 59.902"/>
        <path id="s" d="M.461 59.902v.005c0 32.691 26.72 59.192 59.682 59.192h.005c32.964 0 59.686-26.504 59.686-59.197 0-32.695-26.722-59.199-59.686-59.199S.46 27.207.46 59.902"/>
        <path id="u" d="M.461 59.902v.005c0 32.691 26.72 59.192 59.682 59.192h.005c32.964 0 59.686-26.504 59.686-59.197 0-32.695-26.722-59.199-59.686-59.199S.46 27.207.46 59.902"/>
        <path id="w" d="M.461 59.902v.005c0 32.691 26.72 59.192 59.682 59.192h.005c32.964 0 59.686-26.504 59.686-59.197 0-32.695-26.722-59.199-59.686-59.199S.46 27.207.46 59.902"/>
        <path id="y" d="M.461 59.902v.005c0 32.691 26.72 59.192 59.682 59.192h.005c32.964 0 59.686-26.504 59.686-59.197 0-32.695-26.722-59.199-59.686-59.199S.46 27.207.46 59.902z"/>
        <path id="A" d="M.461 59.902v.005c0 32.691 26.72 59.192 59.682 59.192h.005c32.964 0 59.686-26.504 59.686-59.197 0-32.695-26.722-59.199-59.686-59.199S.46 27.207.46 59.902z"/>
        <path id="C" d="M.461 59.902v.005c0 32.691 26.72 59.192 59.682 59.192h.005c32.964 0 59.686-26.504 59.686-59.197 0-32.695-26.722-59.199-59.686-59.199S.46 27.207.46 59.902"/>
        <path id="E" d="M.461 59.902v.005c0 32.691 26.72 59.192 59.682 59.192h.005c32.964 0 59.686-26.504 59.686-59.197 0-32.695-26.722-59.199-59.686-59.199S.46 27.207.46 59.902"/>
        <path id="G" d="M.461 59.902v.005c0 32.691 26.72 59.192 59.682 59.192h.005c32.964 0 59.686-26.504 59.686-59.197 0-32.695-26.722-59.199-59.686-59.199S.46 27.207.46 59.902z"/>
        <path id="I" d="M.461 59.902v.005c0 32.691 26.72 59.192 59.682 59.192h.005c32.964 0 59.686-26.504 59.686-59.197 0-32.695-26.722-59.199-59.686-59.199S.46 27.207.46 59.902z"/>
        <path id="K" d="M.461 59.902v.005c0 32.691 26.72 59.192 59.682 59.192h.005c32.964 0 59.686-26.504 59.686-59.197 0-32.695-26.722-59.199-59.686-59.199S.46 27.207.46 59.902"/>
        <path id="M" d="M.461 59.902v.005c0 32.691 26.72 59.192 59.682 59.192h.005c32.964 0 59.686-26.504 59.686-59.197 0-32.695-26.722-59.199-59.686-59.199S.46 27.207.46 59.902"/>
        <path id="O" d="M.461 59.902v.005c0 32.691 26.72 59.192 59.682 59.192h.005c32.964 0 59.686-26.504 59.686-59.197 0-32.695-26.722-59.199-59.686-59.199S.46 27.207.46 59.902z"/>
        <path id="Q" d="M.461 59.902v.005c0 32.691 26.72 59.192 59.682 59.192h.005c32.964 0 59.686-26.504 59.686-59.197 0-32.695-26.722-59.199-59.686-59.199S.46 27.207.46 59.902z"/>
    </defs>
    <g fill="none" fill-rule="evenodd">
        <g transform="translate(0 .365)">
            <mask id="b" fill="#fff">
                <use xlink:href="#a"/>
            </mask>
            <path fill="#DAEEF3" d="M132.96 47.607c-11.067-35.583-49.123-55.53-85-44.554C12.082 14.031-8.03 51.776 3.039 87.36c11.063 35.57 49.096 55.519 84.966 44.564 35.883-10.958 56.015-48.691 44.967-84.28a.68.68 0 0 0-.011-.036" mask="url(#b)"/>
        </g>
        <path fill="#BBDFE7" d="M3.032 61.493c0-32.695 26.722-59.199 59.686-59.199s59.686 26.504 59.686 59.199c0 32.694-26.722 59.198-59.686 59.198h-.006c-32.96 0-59.68-26.502-59.68-59.193v-.005"/>
        <g>
            <g transform="translate(3.56 1.781)">
                <mask id="d" fill="#fff">
                    <use xlink:href="#c"/>
                </mask>
                <path fill="#DEEDF2" d="M135.707 131.781l-35.856-2.283-24.256.467-4.177.156-9.395.21-24.587.537V11.41h95.183v84.587z" mask="url(#d)"/>
            </g>
            <g transform="translate(3.56 1.781)">
                <mask id="f" fill="#fff">
                    <use xlink:href="#e"/>
                </mask>
                <path fill="#FFF" d="M128.94 125.381l-29.386 1.312H39.56V13.292h90.816v82.04z" mask="url(#f)"/>
            </g>
            <g transform="translate(43.435 15.24)">
                <mask id="h" fill="#fff">
                    <use xlink:href="#g"/>
                </mask>
                <path d="M87.321 110.268l-27.853 2.977H.292V.415h90.134v86.704z" mask="url(#h)"/>
            </g>
            <g transform="translate(3.56 1.781)">
                <mask id="j" fill="#fff">
                    <use xlink:href="#i"/>
                </mask>
                <path fill="#9CC2CC" d="M71.692 38.817h48.386c.438 0 .794.505.794 1.128v1.172c0 .623-.356 1.128-.794 1.128H71.692c-.439 0-.794-.505-.794-1.128v-1.172c0-.623.355-1.128.794-1.128" mask="url(#j)"/>
            </g>
            <g transform="translate(3.56 1.781)">
                <mask id="l" fill="#fff">
                    <use xlink:href="#k"/>
                </mask>
                <path fill="#9CC2CC" d="M71.371 47.502h28.851c.262 0 .475.542.475 1.21v1.255c0 .668-.213 1.21-.475 1.21h-28.85c-.262 0-.474-.542-.474-1.21v-1.255c0-.668.212-1.21.473-1.21" mask="url(#l)"/>
            </g>
            <g transform="translate(3.56 1.781)">
                <mask id="n" fill="#fff">
                    <use xlink:href="#m"/>
                </mask>
                <path fill="#9CC2CC" d="M71.692 63.536h48.386c.438 0 .794.505.794 1.128v1.172c0 .623-.356 1.128-.794 1.128H71.692c-.439 0-.794-.505-.794-1.128v-1.172c0-.623.355-1.128.794-1.128" mask="url(#n)"/>
            </g>
            <g transform="translate(3.56 1.781)">
                <mask id="p" fill="#fff">
                    <use xlink:href="#o"/>
                </mask>
                <path fill="#9CC2CC" d="M71.371 72.221h28.851c.262 0 .475.541.475 1.21v1.254c0 .67-.213 1.21-.475 1.21h-28.85c-.262 0-.474-.54-.474-1.21v-1.254c0-.669.212-1.21.473-1.21" mask="url(#p)"/>
            </g>
            <g transform="translate(3.56 1.781)">
                <mask id="r" fill="#fff">
                    <use xlink:href="#q"/>
                </mask>
                <path fill="#9CC2CC" d="M71.692 86.105h48.386c.438 0 .794.505.794 1.129v1.171c0 .624-.356 1.129-.794 1.129H71.692c-.439 0-.794-.505-.794-1.129v-1.171c0-.624.355-1.129.794-1.129" mask="url(#r)"/>
            </g>
            <g transform="translate(3.56 1.781)">
                <mask id="t" fill="#fff">
                    <use xlink:href="#s"/>
                </mask>
                <path fill="#9CC2CC" d="M71.371 94.79h28.851c.262 0 .475.542.475 1.21v1.255c0 .668-.213 1.21-.475 1.21h-28.85c-.262 0-.474-.542-.474-1.21V96c0-.668.212-1.21.473-1.21" mask="url(#t)"/>
            </g>
            <g transform="translate(3.56 1.781)">
                <mask id="v" fill="#fff">
                    <use xlink:href="#u"/>
                </mask>
                <path fill="#DEEDF2" d="M61.909 45.33c-.131 4.2-3.67 7.5-7.905 7.371-4.235-.13-7.562-3.64-7.431-7.84.13-4.2 3.668-7.5 7.903-7.371 4.229.122 7.557 3.622 7.434 7.817l-.001.023" mask="url(#v)"/>
            </g>
            <g transform="translate(3.56 1.781)">
                <mask id="x" fill="#fff">
                    <use xlink:href="#w"/>
                </mask>
                <path fill="#FFF" d="M48.818 43.661c.793-2.953 3.852-4.709 6.83-3.922 2.977.788 4.749 3.82 3.955 6.774-.795 2.953-3.853 4.71-6.83 3.922-2.979-.787-4.749-3.82-3.955-6.774" mask="url(#x)"/>
            </g>
            <g transform="translate(3.56 1.781)">
                <mask id="z" fill="#fff">
                    <use xlink:href="#y"/>
                </mask>
                <path fill="#DEEDF2" d="M54.243 36.528c-4.826.074-8.678 4.014-8.603 8.8.074 4.788 4.048 8.608 8.873 8.533 4.826-.074 8.678-4.014 8.603-8.8-.073-4.683-3.882-8.46-8.603-8.533h-.27zm0 17.872h-.293c-5.161-.08-9.28-4.294-9.199-9.413.081-5.119 4.33-9.204 9.492-9.123 5.16.08 9.279 4.294 9.198 9.413-.079 5.006-4.151 9.046-9.198 9.123z" mask="url(#z)"/>
            </g>
            <g transform="translate(3.56 1.781)">
                <mask id="B" fill="#fff">
                    <use xlink:href="#A"/>
                </mask>
                <path fill="#3B8239" d="M54.204 48.307l-4.507-4.455 1.506-1.252 2.986 2.95 7.2-6.357 1.517 1.5z" mask="url(#B)"/>
            </g>
            <g transform="translate(3.56 1.781)">
                <mask id="D" fill="#fff">
                    <use xlink:href="#C"/>
                </mask>
                <path fill="#DEEDF2" d="M61.909 70.317c-.131 4.2-3.67 7.5-7.905 7.37-4.235-.13-7.562-3.64-7.431-7.84.13-4.2 3.668-7.5 7.903-7.371 4.229.123 7.557 3.622 7.434 7.817l-.001.024" mask="url(#D)"/>
            </g>
            <g transform="translate(3.56 1.781)">
                <mask id="F" fill="#fff">
                    <use xlink:href="#E"/>
                </mask>
                <path fill="#FFF" d="M48.818 68.648c.793-2.954 3.852-4.71 6.83-3.922 2.977.787 4.749 3.82 3.955 6.773-.795 2.954-3.853 4.71-6.83 3.922-2.979-.787-4.749-3.82-3.955-6.773" mask="url(#F)"/>
            </g>
            <g transform="translate(3.56 1.781)">
                <mask id="H" fill="#fff">
                    <use xlink:href="#G"/>
                </mask>
                <path fill="#DEEDF2" d="M54.243 61.514c-4.826.075-8.678 4.014-8.603 8.801.074 4.787 4.048 8.607 8.873 8.533 4.826-.075 8.678-4.015 8.603-8.801-.073-4.682-3.882-8.46-8.603-8.533h-.27zm0 17.873h-.293c-5.161-.08-9.28-4.295-9.199-9.414.081-5.118 4.33-9.203 9.492-9.122 5.16.08 9.279 4.294 9.198 9.413-.079 5.005-4.151 9.045-9.198 9.123z" mask="url(#H)"/>
            </g>
            <g transform="translate(3.56 1.781)">
                <mask id="J" fill="#fff">
                    <use xlink:href="#I"/>
                </mask>
                <path fill="#3B8239" d="M54.204 73.293l-4.507-4.454 1.506-1.253 2.986 2.95 7.2-6.356 1.517 1.499z" mask="url(#J)"/>
            </g>
            <g transform="translate(3.56 1.781)">
                <mask id="L" fill="#fff">
                    <use xlink:href="#K"/>
                </mask>
                <path fill="#DEEDF2" d="M61.909 93.96c-.131 4.201-3.67 7.501-7.905 7.372-4.235-.13-7.562-3.64-7.431-7.841.13-4.2 3.668-7.5 7.903-7.37 4.229.122 7.557 3.622 7.434 7.816l-.001.024" mask="url(#L)"/>
            </g>
            <g transform="translate(3.56 1.781)">
                <mask id="N" fill="#fff">
                    <use xlink:href="#M"/>
                </mask>
                <path fill="#FFF" d="M48.818 92.292c.793-2.954 3.852-4.71 6.83-3.922 2.977.787 4.749 3.82 3.955 6.774-.795 2.953-3.853 4.71-6.83 3.922-2.979-.788-4.749-3.821-3.955-6.774" mask="url(#N)"/>
            </g>
            <g transform="translate(3.56 1.781)">
                <mask id="P" fill="#fff">
                    <use xlink:href="#O"/>
                </mask>
                <path fill="#DEEDF2" d="M54.243 85.158c-4.826.075-8.678 4.015-8.603 8.801.074 4.787 4.048 8.607 8.873 8.533 4.826-.074 8.678-4.015 8.603-8.801-.073-4.682-3.882-8.46-8.603-8.533h-.27zm0 17.873h-.293c-5.161-.08-9.28-4.295-9.199-9.413.081-5.12 4.33-9.203 9.492-9.123 5.16.08 9.279 4.294 9.198 9.413-.079 5.005-4.151 9.045-9.198 9.123z" mask="url(#P)"/>
            </g>
            <g transform="translate(3.56 1.781)">
                <mask id="R" fill="#fff">
                    <use xlink:href="#Q"/>
                </mask>
                <path fill="#3B8239" d="M54.204 96.937l-4.507-4.454 1.506-1.253 2.986 2.95 7.2-6.356 1.517 1.499z" mask="url(#R)"/>
            </g>
        </g>
    </g>
</svg>
