<svg xmlns="http://www.w3.org/2000/svg" xmlns:xlink="http://www.w3.org/1999/xlink" width="136" height="136" viewBox="0 0 136 136">
    <defs>
        <path id="a" d="M59.79 0C26.896 0 .228 26.805.228 59.872v.006c0 33.069 26.67 59.876 59.568 59.876 32.898 0 59.566-26.807 59.566-59.876C119.362 26.808 92.694 0 59.796 0h-.006z"/>
        <path id="c" d="M59.79 0C26.896 0 .228 26.805.228 59.872v.006c0 33.069 26.67 59.876 59.568 59.876 32.898 0 59.566-26.807 59.566-59.876C119.362 26.808 92.694 0 59.796 0h-.006z"/>
        <path id="e" d="M59.79 0C26.896 0 .228 26.805.228 59.872v.006c0 33.069 26.67 59.876 59.568 59.876 32.898 0 59.566-26.807 59.566-59.876C119.362 26.808 92.694 0 59.796 0"/>
        <path id="g" d="M59.79 0C26.896 0 .228 26.805.228 59.872v.006c0 33.069 26.67 59.876 59.568 59.876 32.898 0 59.566-26.807 59.566-59.876C119.362 26.808 92.694 0 59.796 0h-.006z"/>
        <path id="i" d="M7.006.232C2.677 8.532.228 17.976.228 27.997v.006c0 11.882 3.443 22.956 9.381 32.268h50.053V.232H7.006z"/>
        <path id="k" d="M59.79 0C26.896 0 .228 26.805.228 59.872v.006c0 33.069 26.67 59.876 59.568 59.876 32.898 0 59.566-26.807 59.566-59.876C119.362 26.808 92.694 0 59.796 0h-.006z"/>
        <path id="m" d="M.338.698H41.66v53.944H.338z"/>
        <path id="o" d="M.282.014h14.039v23.811H.282z"/>
        <path id="q" d="M.104.63h22.704v20.123H.104z"/>
        <path id="s" d="M47.909 3.576C12.539 14.586-7.29 52.445 3.623 88.136c10.906 35.676 48.402 55.683 83.764 44.697 35.377-10.99 55.224-48.838 44.333-84.535l-.011-.034C122.828 19.215 96.315.556 67.688.554c-6.546 0-13.197.974-19.78 3.022z"/>
    </defs>
    <g fill="none" fill-rule="evenodd">
        <path fill="#DAEEF3" d="M132.562 48.263C121.61 12.573 83.947-7.433 48.442 3.577 12.937 14.587-6.967 52.445 3.986 88.136c10.95 35.675 48.588 55.683 84.085 44.697 35.512-10.99 55.435-48.838 44.502-84.534l-.01-.036"/>
        <path fill="#BBDFE7" d="M3.047 62.002c0 33.07 26.67 59.877 59.567 59.877 32.898 0 59.567-26.807 59.567-59.877 0-33.069-26.669-59.877-59.567-59.877h-.006c-32.894 0-59.561 26.805-59.561 59.872v.005"/>
        <g transform="translate(2.819 2.125)">
            <mask id="b" fill="#fff">
                <use xlink:href="#a"/>
            </mask>
            <path fill="#010101" d="M112.204 91.984v14.164l-17.75-.836-18.107-.858v-12.47z" mask="url(#b)"/>
        </g>
        <g transform="translate(2.819 2.125)">
            <mask id="d" fill="#fff">
                <use xlink:href="#c"/>
            </mask>
            <path fill="#778DB1" d="M145.752 41.126v53.896H25.42V41.126c0-11.36 11.59-20.569 16.636-20.569h83.234c11.289-.012 20.45 9.177 20.462 20.524v.045z" mask="url(#d)"/>
        </g>
        <g transform="translate(2.819 2.125)">
            <mask id="f" fill="#fff">
                <use xlink:href="#e"/>
            </mask>
            <path fill="#9EBCCC" d="M145.043 35.647c-2.453-8.914-10.525-15.084-19.725-15.079H42.222c-4.341-.223-16.807 9.214-16.807 20.575v12.96c.003-11.362 9.165-20.571 20.467-20.575h79.408c11.289-.012 20.45 9.176 20.462 20.524v.05-12.976c.01-1.85-.229-3.694-.71-5.48" mask="url(#f)"/>
        </g>
        <g transform="translate(2.819 2.125)">
            <mask id="h" fill="#fff">
                <use xlink:href="#g"/>
            </mask>
            <path fill="#778DB1" d="M59.646 95.039V41.126c0-11.36-6.039-20.574-17.34-20.574-11.302 0-17.706 9.214-17.706 20.574v53.896l35.046.017z" mask="url(#h)"/>
        </g>
        <g transform="translate(2.819 34)">
            <mask id="j" fill="#fff">
                <use xlink:href="#i"/>
            </mask>
            <path fill="#FFF" d="M12.655 60.11h124.907V6.245H12.655z" mask="url(#j)"/>
            <path fill="#9EBCCC" d="M25.337 36.82H72.85c3.675 0 6.654 2.995 6.654 6.69v4.403c0 3.694-2.979 6.689-6.654 6.689H25.337c-3.675 0-6.654-2.995-6.654-6.689v-4.404c0-3.694 2.979-6.688 6.654-6.688M122.39 10.639h5.795c3.24 0 5.867 2.64 5.867 5.897v3.635c0 3.257-2.627 5.897-5.867 5.897h-5.795c-3.24 0-5.867-2.64-5.867-5.897v-3.635c0-3.257 2.626-5.897 5.867-5.897" mask="url(#j)"/>
        </g>
        <g transform="translate(2.819 2.125)">
            <mask id="l" fill="#fff">
                <use xlink:href="#k"/>
            </mask>
            <path fill="#E8F4F6" d="M55.98 91.984h3.682V38.121h-3.681z" mask="url(#l)"/>
            <path fill="#9EBCCC" d="M24.616 95.038h35.046v-3.054H24.616z" mask="url(#l)"/>
        </g>
        <g>
            <path fill="#778DB1" d="M62.464 97.164l-17.356 14.453c-6.033 5.502-27.171 1.082-27.171 1.082-1.526-.184-2.807-.886-3.384-1.856a2.238 2.238 0 0 1 .555-2.905l12.3-10.774h35.056z"/>
            <path fill="#DAEEF3" d="M90.576 40.042h5.68V24.707h-5.68z"/>
            <path fill="#DAEEF3" d="M95.983 41.407h5.68V26.072h-5.68z"/>
            <path fill="#FFF" d="M97.695 38.025h-1.44V24.712l1.44.557z"/>
            <path fill="#DAEEF3" d="M84.305 38.025h3.95V25.282h-3.95z"/>
            <path fill="#DAEEF3" d="M101.014 32.306c0 2.521 2.033 4.565 4.54 4.565 2.508 0 4.541-2.044 4.541-4.565 0-2.52-2.033-4.563-4.54-4.563-2.508 0-4.54 2.042-4.54 4.563zm-9.721 5.714h3.524v-8.562h-3.524v8.562zm-5.39.005h3.95V23.133h-3.95v14.892z"/>
            <path fill="#FFF" d="M91.697 55.045c-.002 6.183 4.982 11.198 11.133 11.2 6.151.003 11.14-5.008 11.143-11.19.002-6.184-4.982-11.199-11.133-11.201h-.01c-6.149 0-11.133 5.01-11.133 11.19"/>
            <path fill="#F6A491" d="M121.937 49.207l2.874 24.861-9.222 18.115-32.1-16.34 18.397-37.603z"/>
            <g transform="translate(83.15 37.542)">
                <mask id="n" fill="#fff">
                    <use xlink:href="#m"/>
                </mask>
                <path fill="#F6A491" d="M38.786 11.666l2.875 24.86-9.222 18.116L.338 38.302 18.736.698z" mask="url(#n)"/>
            </g>
            <path fill="#F7B6AA" d="M120.15 86.19l-5.25 10.644a61.887 61.887 0 0 1-6.126 9.928l-7.658 10.113-18.875-11.069 22.856-30.703L120.15 86.19zm-7.502-33.714l3.486-7.609 3.632 2.451a10.482 10.482 0 0 1 3.865 4.824l1.462 3.702a2.94 2.94 0 0 1-1.623 3.816 2.91 2.91 0 0 1-3.399-.932l-4.037-5.194-3.386-1.058z"/>
            <path fill="#F6A491" d="M109.505 41.062l6.275 6.847 4.11-8.513c.919-1.9 1.73-3.853 2.429-5.847.323-.897.597-1.81.822-2.738a14.25 14.25 0 0 0 .408-2.908v-.707a3.09 3.09 0 0 0-3.573-3.06c-.94.152-1.757.73-2.216 1.568l-.94 1.752-7.315 13.606z"/>
            <g transform="translate(109.223 24.083)">
                <mask id="p" fill="#fff">
                    <use xlink:href="#o"/>
                </mask>
                <path fill="#F6A491" d="M.282 16.979l6.275 6.846 4.11-8.512c.919-1.9 1.73-3.853 2.43-5.847.322-.898.596-1.811.82-2.738a14.25 14.25 0 0 0 .41-2.908v-.707a3.09 3.09 0 0 0-3.573-3.06c-.94.151-1.758.73-2.217 1.567l-.94 1.753L.282 16.979z" mask="url(#p)"/>
            </g>
            <g transform="translate(92.31 77.208)">
                <mask id="r" fill="#fff">
                    <use xlink:href="#q"/>
                </mask>
                <path fill="#F6A491" d="M.104 11.762s5.28 2.825 7.002 8.726a.37.37 0 0 0 .721-.04l.631-3.862s16.51 1.945 14.112-9.128c-2.398-11.073-16.785-5.4-16.95-5.23C5.457 2.396.53 8.16.385 8.453c-.145.292-.281 3.309-.281 3.309" mask="url(#r)"/>
            </g>
            <path fill="#9D2155" d="M94.957 91.399l23.157-3.56c2.56-.399 4.32-2.8 3.941-5.378l-9.435-62.017c-.394-2.584-2.796-4.358-5.367-3.962h-.005l-23.156 3.56c-2.57.396-4.334 2.812-3.941 5.395l9.44 62c.39 2.582 2.79 4.356 5.358 3.963l.008-.001"/>
            <path fill="#FFF" d="M96.378 91.18l23.157-3.56c2.571-.394 4.338-2.808 3.947-5.392l-.001-.004-9.44-61.994c-.4-2.58-2.804-4.347-5.371-3.949l-23.157 3.56c-2.559.404-4.313 2.808-3.927 5.382l9.435 61.995c.394 2.584 2.796 4.357 5.367 3.961"/>
            <path fill="#E9F6F8" d="M81.976 27.856l8.722 57.308c.273 1.78 2.475 2.92 4.245 2.647l25.505-3.92a3.262 3.262 0 0 0 2.725-3.715l-.001-.006-8.732-57.307a3.244 3.244 0 0 0-3.685-2.74l-.015.001-25.522 3.917c-1.77.274-3.532 2.022-3.26 3.806"/>
            <path fill="#E9F6F8" d="M90.408 83.265l.29 1.9c.016.093.035.185.06.278.454 1.62 2.51 2.628 4.186 2.368l25.504-3.92a3.263 3.263 0 0 0 2.715-3.72l-.29-1.899-32.465 4.993z"/>
            <path fill="#FFF" d="M110.54 69.44l8.482-1.304 1.299 8.527-8.483 1.305zM100.806 70.94l8.483-1.305 1.298 8.527-8.483 1.305zM91.073 72.435l8.482-1.305 1.299 8.527-8.483 1.305z"/>
            <path fill="#9EBCCC" d="M90.408 83.265l.29 1.9c.016.093.035.185.06.278l-.077-.503 32.45-4.988-.259-1.68-32.464 4.993z"/>
            <path fill="#F7B6AA" d="M123.158 76.487l.045.023a2.67 2.67 0 0 0 3.574-.844l4.055-6.139a3.07 3.07 0 0 0-.359-3.834l-.522-.534a2.768 2.768 0 0 0-4.487.744l-2.755 5.783-.618 1.296a2.71 2.71 0 0 0 1.076 3.505h-.009zm-43.461 29.645l9.608 2.966 7.777 2.4.042-.08.608-1.266.949-1.971a12.685 12.685 0 0 0 1.194-6.691 54.533 54.533 0 0 0-3.605-14.957 54.52 54.52 0 0 0-6.28-11.547l-.523-.74a7.92 7.92 0 0 1-1.36-5.8l.29-1.96c.379-2.467.429-4.975.15-7.456 0 0-.523-7.728-3.511-12.898a3.883 3.883 0 0 0-1.794-1.552 4.122 4.122 0 0 0-2.351-.325c-.31.048-.603.172-.853.36a1.949 1.949 0 0 0-.773 1.712l.563 6.751v.173L76.65 74.155a23.237 23.237 0 0 0 .068 7.394l1.558 12.935 1.42 11.648z"/>
            <path fill="#F7B6AA" d="M127.953 55.99l.7.557a3.664 3.664 0 0 1 1.012 4.486l-3.869 7.9a3.199 3.199 0 0 1-4.11 1.552l-.054-.023a3.232 3.232 0 0 1-1.816-3.988l2.92-8.905a3.32 3.32 0 0 1 5.217-1.58"/>
            <path fill="#FFF" d="M109.037 59.609l8.482-1.305 1.3 8.527-8.484 1.305zM99.3 61.113l8.482-1.304 1.299 8.527-8.484 1.305zM89.566 62.609l8.483-1.305 1.298 8.527-8.483 1.305zM107.534 49.786l8.483-1.304 1.299 8.527-8.483 1.304zM97.866 51.366l8.496-1.216 1.209 8.54-8.496 1.216zM88.067 52.776l8.483-1.305 1.298 8.527-8.483 1.305zM91.257 37.934c.741 4.912 5.304 8.29 10.19 7.544 4.887-.746 8.247-5.331 7.505-10.244-.74-4.912-5.304-8.29-10.19-7.544l-.013.002c-4.884.749-8.239 5.335-7.494 10.245a.34.34 0 0 1 .002.011"/>
            <path fill="#EC0000" d="M99.652 30.408a2.458 2.458 0 0 1 2.452 2.464 2.458 2.458 0 0 1-2.452 2.465 2.458 2.458 0 0 1-2.451-2.465 2.458 2.458 0 0 1 2.451-2.464M95.398 42.133c-.332-2.182 1.875-4.331 4.935-4.806 3.061-.475 5.803.912 6.14 3.104l-11.075 1.702z"/>
        </g>
        <g>
            <mask id="t" fill="#fff">
                <use xlink:href="#s"/>
            </mask>
            <path fill="#F7B6AA" d="M74.18 136s-.703-7.792 4.212-17c1.488-2.789 1.39-12.868 1.39-12.868l9.14.826 14.741 4.959s-.737 4.958-2.843 14.875c-.606 2.856-8.39 4.25-16.111 7.083L74.179 136z" mask="url(#t)"/>
        </g>
    </g>
</svg>
