<svg xmlns="http://www.w3.org/2000/svg" xmlns:xlink="http://www.w3.org/1999/xlink" width="1367" height="833" viewBox="0 0 1367 833">
    <defs>
        <path id="a" d="M.257.12h147v154.2h-147z"/>
        <path id="c" d="M.587.28h383.67v68.07H.587z"/>
        <path id="e" d="M.257 831h666V.999h-666z"/>
        <path id="g" d="M102.829 99.086L5.467 66.708.671 70.305l103.501 34.713L216.15 6.229l-.572-5.506z"/>
        <path id="i" d="M.467 86.708l97.362 32.378 112.749-98.363L131.112.929z"/>
        <path id="k" d="M119.457 52.28L5.48 17.347.688 21.055l119.53 36.555 46.039-50.8V.623z"/>
        <path id="m" d="M.48 95.347l113.977 34.933 46.8-51.657V9.396L97.181.817z"/>
        <path id="o" d="M.986 31.37c2.145 1.43 95.133 50.799 97.279 50.085 2.145-.717 60.799-37.206 60.799-37.206L66.792.603.986 31.37z"/>
        <path id="q" d="M.345 31.498c2.145 1.43 95.133 50.8 97.279 50.085 2.146-.716 60.799-37.206 60.799-37.206L66.151.731.345 31.498z"/>
        <path id="s" d="M.21 23.776c-1.435.359 14.355 7.18 14.355 7.18L56.197 6.185 42.199.083S1.646 23.417.21 23.776z"/>
        <path id="u" d="M.44 24.211c-1.435.36 14.356 7.18 14.356 7.18l41.631-24.77L42.43.519S1.875 23.853.44 24.211z"/>
        <path id="w" d="M.57 23.776c-1.168.291 9.045 4.852 12.91 6.549-4.531-2.039-10.595-4.884-9.681-5.113 1.436-.359 41.989-23.693 41.989-23.693l10.741 4.682.026-.016L42.559.082S2.005 23.417.57 23.776z"/>
        <path id="y" d="M.805 3.76c0 1.983 1.986 3.591 4.435 3.591S9.675 5.743 9.675 3.76 7.689.169 5.24.169.805 1.777.805 3.76z"/>
        <path id="A" d="M.891 4.262c0 1.983 1.985 3.59 4.434 3.59 2.45 0 4.435-1.607 4.435-3.59C9.76 2.279 7.775.671 5.325.671 2.876.671.891 2.279.891 4.262z"/>
        <path id="C" d="M.291 4.031c0 1.982 1.986 3.59 4.435 3.59S9.16 6.013 9.16 4.031C9.16 2.047 7.175.44 4.726.44S.291 2.047.291 4.031z"/>
        <path id="E" d="M.847 3.806c0 1.982 1.985 3.591 4.434 3.591s4.435-1.609 4.435-3.591C9.716 1.823 7.73.215 5.281.215S.847 1.823.847 3.806z"/>
        <path id="G" d="M.631 4.376c0 1.983 1.985 3.591 4.435 3.591 2.449 0 4.434-1.608 4.434-3.591S7.515.785 5.066.785C2.616.785.631 2.393.631 4.376z"/>
        <path id="I" d="M.717 3.878c0 1.982 1.985 3.59 4.434 3.59 2.45 0 4.434-1.608 4.434-3.59 0-1.984-1.984-3.591-4.434-3.591C2.702.287.717 1.894.717 3.878z"/>
        <path id="K" d="M.117 3.646c0 1.983 1.986 3.591 4.434 3.591 2.449 0 4.435-1.608 4.435-3.591S7 .055 4.551.055C2.103.055.117 1.663.117 3.646z"/>
        <path id="M" d="M.329 3.786c0 1.983 1.985 3.591 4.434 3.591s4.434-1.608 4.434-3.591S7.212.196 4.763.196.329 1.803.329 3.786z"/>
        <path id="O" d="M.414 4.289c0 1.982 1.985 3.59 4.434 3.59s4.434-1.608 4.434-3.59c0-1.984-1.985-3.592-4.434-3.592S.414 2.305.414 4.289z"/>
        <path id="Q" d="M.031 7.359c0 3.915 13.397 7.091 29.921 7.091S59.87 11.274 59.87 7.359c0-3.917-13.394-7.093-29.918-7.093S.031 3.442.031 7.359z"/>
        <path id="S" d="M1.276 21.12c5.363 24.618 26.503 23.04 26.503 23.04l-2.525-6.628S12.003 40.057 7.901 23.646C3.799 7.233 18.313 6.917 18.313 6.917L18.629.29s-.874-.114-2.24-.114C10.825.177-2.879 2.057 1.276 21.12z"/>
        <path id="U" d="M.215.85l6.918 53.851c1.709 11.354 11.66 19.618 23.13 19.212 10.62-.374 19.543-8.103 21.431-18.563L60.182.399.215.85z"/>
        <path id="W" d="M.375 3.759l.915.091c.354 1.062 4.528 36.926 6.411 52.244 2.65 21.581 13.971 20.435 13.971 20.435 9.074-1.715 16.34-8.861 18.022-18.179L50.107.034.375 3.759z"/>
        <path id="Y" d="M.969 13.279c0 5.467 7.827 10.148 18.936 12.103-3.496-5.835 1.322-12.357 8.699-22.291.752-1.011 1.27-1.969 1.587-2.878C13.94.504.969 6.24.969 13.279z"/>
        <path id="aa" d="M.607 13.587c-.577 2.428-.164 4.465.687 6.125 9.357-2.234 15.691-6.516 15.691-11.433 0-2.718-1.936-5.243-5.248-7.336C6.899 5.464 1.624 9.314.607 13.587z"/>
        <path id="ac" d="M12.191.214c-.317.908-.836 1.866-1.587 2.877-7.376 9.933-12.195 16.457-8.699 22.291 3.569.628 7.475.976 11.572.976 5.379 0 10.429-.598 14.818-1.647-.852-1.659-1.266-3.697-.688-6.124 1.016-4.273 6.292-8.122 11.131-12.644C33.25 2.478 23.985.2 13.477.2c-.431 0-.859.006-1.286.014z"/>
        <path id="ae" d="M.257 831h666V.999h-666z"/>
        <path id="ag" d="M18.623.488a4.69 4.69 0 0 0-3.899 2.115L.48 24.123l.487.75a4.108 4.108 0 0 0 6.892.055l8.86-13.167 1.254 23.859h7.015L23.379 5.044c-.135-2.557-2.2-4.556-4.701-4.556h-.055z"/>
        <path id="ai" d="M3.999.303C1.895.303.19 2.046.19 4.197c0 2.149 1.705 3.896 3.809 3.896h.017c2.101 0 3.809-1.747 3.809-3.896 0-2.151-1.708-3.894-3.809-3.894h-.017z"/>
        <path id="ak" d="M4.7.303C2.596.303.891 2.046.891 4.197c0 2.149 1.705 3.896 3.809 3.896h.017c2.105 0 3.809-1.747 3.809-3.896 0-2.151-1.704-3.894-3.809-3.894H4.7z"/>
        <path id="am" d="M1.581 4.485L.004 34.523h6.883l1.221-23.211 8.213 12.655a4.026 4.026 0 0 0 6.761.053l.456-.676L10.071 2.159A4.595 4.595 0 0 0 6.197.009c-2.457 0-4.484 1.967-4.616 4.476z"/>
    </defs>
    <g fill="none" fill-rule="evenodd">
        <path fill="#F5F9FB" fill-rule="nonzero" d="M699 386h667v447H699z"/>
        <path fill="#F5F9FB" fill-rule="nonzero" d="M0 665h700v168H0z"/>
        <g transform="translate(700 1.28)">
            <g transform="translate(519 424)">
                <mask id="b" fill="#fff">
                    <use xlink:href="#a"/>
                </mask>
                <path fill="#EAF1F8" d="M22.617.12L.257 39.55h108.78l-.32 112.83 26.19-6.37-12 8.31c84.16 0 109.66-46.41 129.21-69.83 23-27.5 56.6-44.2 92.41-44.92H387.257L409.577.12H22.617z" mask="url(#b)"/>
            </g>
            <g transform="translate(282 586)">
                <mask id="d" fill="#fff">
                    <use xlink:href="#c"/>
                </mask>
                <path fill="#EAF1F8" d="M244.107 47.81v-18h-125.65V.28H.587v20.38c0 26.331 21.34 47.68 47.67 47.69h496.7l11.83-20.54h-312.68z" mask="url(#d)"/>
            </g>
            <path stroke="#D5E9ED" stroke-dasharray="2.84,2.84" stroke-width="1.89" d="M94.627 383.53l90.61-227.32"/>
            <path fill="#D5E8EB" d="M185.237 149.22a6.99 6.99 0 1 1 0 13.98 6.99 6.99 0 0 1 0-13.98"/>
            <path stroke="#D5E9ED" stroke-dasharray="2.84,2.84" stroke-width="1.89" d="M94.627 383.53h-58.75"/>
            <path fill="#D5E8EB" d="M35.877 373.32c5.64 0 10.21 4.57 10.21 10.21 0 5.639-4.57 10.21-10.21 10.21-5.639 0-10.21-4.571-10.21-10.21 0-5.64 4.571-10.21 10.21-10.21"/>
            <path stroke="#D5E9ED" stroke-dasharray="2.84,2.84" stroke-width="1.89" d="M185.237 156.21h70.56"/>
            <path fill="#D5E8EB" d="M255.797 146c5.64 0 10.21 4.571 10.21 10.21 0 5.639-4.57 10.21-10.21 10.21-5.639 0-10.21-4.571-10.21-10.21 0-5.639 4.571-10.21 10.21-10.21"/>
            <path stroke="#D5E9ED" stroke-dasharray="2.84,2.84" stroke-width="1.89" d="M290.317 242.8l-34.52-86.59M217.467 425.55l72.85-182.75"/>
            <path fill="#D5E8EB" d="M217.467 411.6c7.705 0 13.95 6.246 13.95 13.95 0 7.704-6.245 13.95-13.95 13.95-7.704 0-13.95-6.246-13.95-13.95 0-7.704 6.246-13.95 13.95-13.95"/>
            <path stroke="#D5E9ED" stroke-dasharray="2.84,2.84" stroke-width="1.89" d="M211.667 425.55h-71.73"/>
            <path fill="#D5E8EB" d="M139.937 418.56a6.99 6.99 0 1 1 0 13.98 6.99 6.99 0 0 1 0-13.98"/>
            <path stroke="#D5E9ED" stroke-dasharray="2.84,2.84" stroke-width="1.89" d="M97.217 532.7l42.72-107.15"/>
            <path fill="#D5E8EB" d="M97.217 525.71a6.99 6.99 0 1 1 0 13.98 6.99 6.99 0 0 1 0-13.98M16.467 222.38c5.639 0 10.21 4.57 10.21 10.21 0 5.639-4.571 10.21-10.21 10.21-5.639 0-10.21-4.571-10.21-10.21 0-5.64 4.571-10.21 10.21-10.21"/>
            <path stroke="#D5E9ED" stroke-dasharray="2.84,2.84" stroke-width="1.89" d="M594.877 340.79l-42.71-107.15"/>
            <path fill="#D5E8EB" d="M552.167 226.65a6.99 6.99 0 1 1 0 13.98 6.99 6.99 0 0 1 0-13.98"/>
            <path stroke="#D5E9ED" stroke-dasharray="2.84,2.84" stroke-width="1.89" d="M298.257 233.64h252.04"/>
            <path fill="#FFD871" d="M594.877 333.8a6.99 6.99 0 1 1-.001 13.981 6.99 6.99 0 0 1 .001-13.981"/>
            <path stroke="#D5E9ED" stroke-dasharray="2.84,2.84" stroke-width="1.89" d="M16.467 232.59l27.92 49.21h81.87"/>
            <path fill="#C4DEE7" d="M487.827 617.61a4.32 4.32 0 0 1-4.32 4.32h-239.54a8.64 8.64 0 0 1-8.64-8.64h248.18a4.31 4.31 0 0 1 4.32 4.3v.02z"/>
            <path fill="#6E87A7" d="M410.347 613.62h-180.43a6.53 6.53 0 0 1-6.38-5.17l-23.92-113.17a6.53 6.53 0 0 1 6.37-7.89h180.43a6.52 6.52 0 0 1 6.37 5.18l23.94 113.16a6.53 6.53 0 0 1-6.38 7.89"/>
            <path fill="#C4DEE7" d="M421.037 613.62h-186.27a6.52 6.52 0 0 1-6.37-5.17l-23.93-113.17a6.53 6.53 0 0 1 6.37-7.89h186.26a6.53 6.53 0 0 1 6.38 5.18l23.93 113.16a6.53 6.53 0 0 1-6.37 7.89"/>
            <path fill="#99BEC9" d="M421.037 613.62h-118l72.89-126.23h21.14a6.519 6.519 0 0 1 6.37 5.18l23.93 113.16a6.53 6.53 0 0 1-6.33 7.89"/>
            <path fill="#FFF" d="M238.307 602.75l-22.09-104.49h177.35l22.1 104.49z"/>
            <path fill="#C4DEE7" d="M268.407 613.29v8.64h-24.44a8.64 8.64 0 0 1-8.64-8.64h33.08z"/>
            <path fill="#7386A5" d="M485.397 643.88c2.78 0 4.88-3.18 4.44-6.68-2.64-20.72-17.32-36.58-35.05-36.58-17.73 0-32.28 15.72-35 36.31-.48 3.64 1.73 7 4.62 7l60.99-.05z"/>
            <mask id="f" fill="#fff">
                <use xlink:href="#e"/>
            </mask>
            <path fill="#7386A5" d="M386.397 643.89h4.11v-4.12h-4.11zM393.427 643.89h4.12v-4.12h-4.12zM400.457 643.89h27.89v-4.12h-27.89z" mask="url(#f)"/>
            <path fill="#E2001A" d="M462.997 562.02l30.26 52.09 10.12.47 20.57-5.6 19.8 34.9h151.3c25.61 0 41.62-27.73 28.82-49.91l-59.82-103c-20.879-36.177-63.382-53.91-103.78-43.3l-55.7 14.62c-36.315 9.573-57.993 46.772-48.42 83.087a68.034 68.034 0 0 0 6.85 16.643" mask="url(#f)"/>
            <path fill="#F7C2B6" d="M506.337 477.7l.47 2.18a12.571 12.571 0 0 0 10 9.65c11.79 2.19 54.27-10.6 46.29-31.87-5.61-14.38-13.8-36.27-14.61-38.78a75.581 75.581 0 0 1-2-7.47c-.43-2-1-4-1-4l-42.3 51.11s.93 8.26 3.15 19.18" mask="url(#f)"/>
            <path fill="#F7C2B6" d="M534.067 431.4c-4.84 30.82-8.62 38.91-27.73 46.3-1.2-5.95-2-11.12-2.54-14.59a19.83 19.83 0 0 0 16.91-10.16l13.36-21.55z" mask="url(#f)"/>
            <path fill="#F7C2B6" d="M544.177 402.67c.197-.781.351-1.572.46-2.37.89-6.49-1.41-12.17-5.13-12.68-1.73-.23-3.46.68-4.9 2.37l-7.35-16.34-20.46-4a51.003 51.003 0 0 0-38.61 8 16.782 16.782 0 0 0-7.29 14.9l.28 4.51-.77 40.49 6.06-1.16c.21.43.42.85.65 1.28a36.196 36.196 0 0 0 5.91 8.15l4.43 4.63 2.79 2.91.27.28.14.14a117.166 117.166 0 0 0 10.6 9.83c8.378 6.873 20.74 5.653 27.613-2.725a19.632 19.632 0 0 0 1.937-2.835l18.56-34.07 9.37-17.2a36.2 36.2 0 0 0-4.56-4.11" mask="url(#f)"/>
            <path fill="#284567" d="M554.337 372.83c-5.353-25.828-30.63-42.427-56.459-37.074a47.762 47.762 0 0 0-24.54 13.464l-11.3 1.74c-5.32 1-6.31 8-6.31 8-3.2 2.65-9.31 9.63-8.31 14.29 1 4.66 13.56 16.3 13.56 16.3.54-4.81 3.56-10 8.38-11 3.17-.71 5.08 3.68 5.65 3.32 5.21-.1 4.8-5.06 14-6.08 14.06-1.56 15.24 14.09 24.53 15.05 5.64.59 6.82.17 10.31 3.66.66.66 4.81 7.74 5.65 7.65 4.65-.5 5-12.14 5.08-12.17 1.44-1.68 3.17-2.59 4.89-2.36 3.72.51 6 6.19 5.13 12.68a21.459 21.459 0 0 1-.46 2.37 36.97 36.97 0 0 1 4.51 4.11 47.997 47.997 0 0 0 5.65-34l.04.05z" mask="url(#f)"/>
            <path fill="#F7C2B6" d="M466.627 436.33l4.92-.95a6.802 6.802 0 0 0 1.59-6.1l-3.88-17.37-2.63 24.42zM482.177 639.34a15.08 15.08 0 0 1-11.84-5.66l-5-6.3-4.87.57 1.45.89a2.58 2.58 0 0 1 1.05 3.13l-.08.21a2.59 2.59 0 0 1-3.49 1.42l-4.14-1.89-.49 3.12a2.12 2.12 0 0 1-2 1.78 2.09 2.09 0 0 1-1.87-.95 2.111 2.111 0 0 1-.28-.61l-1.66-6.18-2.63-7.9a3.51 3.51 0 0 1 1-3.72l8.56-7.71-9.84 6.56c-.347.282-.644.62-.88 1l-8.62 13.29a3 3 0 0 1-4.63.55 3.159 3.159 0 0 1-.52-3.75l9.29-17.64a4.087 4.087 0 0 1 1.14-1.34l8.3-6.28-9.86 4c-.5.192-.951.493-1.32.88l-12 12.58a2.909 2.909 0 0 1-4.41-3.78l9.61-12.37 2.47-3.18c.374-.491.866-.88 1.43-1.13l2.65-1.2 11-4.94 3.79-1.71 6.13-2.75a4.45 4.45 0 0 1 4.82.76l30.59 27 5.83 23.23-18.68.02z" mask="url(#f)"/>
            <path fill="#F7C2B6" d="M523.987 608.98h-42.6v30.33h59.8z" mask="url(#f)"/>
            <path fill="#9D0D16" d="M523.537 608.23l130-10.07a4.53 4.53 0 0 0 3.53-6.85l-25.81-42.91 13.53 37.43a5 5 0 0 1-4 6.6l-117.25 15.8z" mask="url(#f)"/>
            <path fill="#FFD871" d="M355.34 691.256l15.917 15.917-15.917 15.917-15.917-15.917zM67.726 447.77l9.503 9.503-9.503 9.504-9.503-9.504z" mask="url(#f)"/>
            <path fill="#2AADB7" d="M62.537 205.08h10.2v-10.2h-10.2zM505.837 147.59a7.08 7.08 0 1 1 0 14.16 7.08 7.08 0 0 1 0-14.16" mask="url(#f)"/>
            <path fill="#767676" d="M350.502 403.517H262.86a7.514 7.514 0 0 1-7.514-7.514V232.604h102.67v163.4a7.514 7.514 0 0 1-7.514 7.513" mask="url(#f)"/>
            <path fill="#353433" d="M268.144 397.858h77.074a4.19 4.19 0 0 1 4.19 4.19v1.343h-85.455v-1.342a4.191 4.191 0 0 1 4.19-4.191" mask="url(#f)"/>
            <path fill="#2F4369" d="M268.063 215.214h76.78c7.275 0 13.173 5.897 13.173 13.172v4.218H254.891v-4.218c0-7.275 5.897-13.172 13.172-13.172" mask="url(#f)"/>
            <path fill="#E2001A" d="M351.654 229.147h-89.021V209.73a8.447 8.447 0 0 1 8.447-8.447h72.128a8.446 8.446 0 0 1 8.446 8.447v19.417z" mask="url(#f)"/>
            <path fill="#FFF" d="M344.509 331.447h-74.732c-3.7 0-6.7-3-6.7-6.7v-74.73c0-3.7 3-6.7 6.7-6.7h74.732c3.7 0 6.7 3 6.7 6.7v74.73c0 3.7-3 6.7-6.7 6.7M277.033 348.394H265.12a1.875 1.875 0 0 1-1.875-1.875v-4.081c0-1.036.84-1.875 1.875-1.875h11.913c1.034 0 1.875.839 1.875 1.875v4.08c0 1.036-.84 1.876-1.875 1.876M277.033 359.708H265.12a1.874 1.874 0 0 1-1.875-1.875v-4.081c0-1.035.84-1.875 1.875-1.875h11.913c1.034 0 1.875.84 1.875 1.875v4.081c0 1.036-.84 1.875-1.875 1.875M277.033 371.023H265.12a1.874 1.874 0 0 1-1.875-1.875v-4.081c0-1.035.84-1.875 1.875-1.875h11.913c1.034 0 1.875.84 1.875 1.875v4.08c0 1.037-.84 1.876-1.875 1.876M277.033 382.338H265.12a1.874 1.874 0 0 1-1.875-1.875v-4.081c0-1.035.84-1.875 1.875-1.875h11.913c1.034 0 1.875.84 1.875 1.875v4.08c0 1.037-.84 1.876-1.875 1.876M300.798 348.394h-11.912a1.876 1.876 0 0 1-1.875-1.875v-4.081c0-1.036.84-1.875 1.875-1.875h11.912c1.036 0 1.875.839 1.875 1.875v4.08a1.875 1.875 0 0 1-1.875 1.876M300.798 359.708h-11.912a1.875 1.875 0 0 1-1.875-1.875v-4.081c0-1.035.84-1.875 1.875-1.875h11.912c1.036 0 1.875.84 1.875 1.875v4.081a1.874 1.874 0 0 1-1.875 1.875M300.798 371.023h-11.912a1.875 1.875 0 0 1-1.875-1.875v-4.081c0-1.035.84-1.875 1.875-1.875h11.912c1.036 0 1.875.84 1.875 1.875v4.08a1.874 1.874 0 0 1-1.875 1.876M300.798 382.338h-11.912a1.875 1.875 0 0 1-1.875-1.875v-4.081c0-1.035.84-1.875 1.875-1.875h11.912c1.036 0 1.875.84 1.875 1.875v4.08a1.874 1.874 0 0 1-1.875 1.876M324.619 348.394h-11.912a1.876 1.876 0 0 1-1.875-1.875v-4.081c0-1.036.84-1.875 1.875-1.875h11.912c1.036 0 1.875.839 1.875 1.875v4.08a1.875 1.875 0 0 1-1.875 1.876M324.619 359.708h-11.912a1.875 1.875 0 0 1-1.875-1.875v-4.081c0-1.035.84-1.875 1.875-1.875h11.912c1.036 0 1.875.84 1.875 1.875v4.081a1.874 1.874 0 0 1-1.875 1.875M324.619 371.023h-11.912a1.875 1.875 0 0 1-1.875-1.875v-4.081c0-1.035.84-1.875 1.875-1.875h11.912c1.036 0 1.875.84 1.875 1.875v4.08a1.874 1.874 0 0 1-1.875 1.876M324.619 382.338h-11.912a1.875 1.875 0 0 1-1.875-1.875v-4.081c0-1.035.84-1.875 1.875-1.875h11.912c1.036 0 1.875.84 1.875 1.875v4.08a1.874 1.874 0 0 1-1.875 1.876M348.241 348.394h-11.912a1.876 1.876 0 0 1-1.875-1.875v-4.081c0-1.036.84-1.875 1.875-1.875h11.912c1.036 0 1.875.839 1.875 1.875v4.08a1.875 1.875 0 0 1-1.875 1.876" mask="url(#f)"/>
            <path fill="#F41A53" d="M348.241 359.708h-11.912a1.875 1.875 0 0 1-1.875-1.875v-4.081c0-1.035.84-1.875 1.875-1.875h11.912c1.036 0 1.875.84 1.875 1.875v4.081a1.874 1.874 0 0 1-1.875 1.875" mask="url(#f)"/>
            <path fill="#FFC814" d="M348.241 371.023h-11.912a1.875 1.875 0 0 1-1.875-1.875v-4.081c0-1.035.84-1.875 1.875-1.875h11.912c1.036 0 1.875.84 1.875 1.875v4.08a1.874 1.874 0 0 1-1.875 1.876" mask="url(#f)"/>
            <path fill="#47BA4D" d="M348.241 382.338h-11.912a1.875 1.875 0 0 1-1.875-1.875v-4.081c0-1.035.84-1.875 1.875-1.875h11.912c1.036 0 1.875.84 1.875 1.875v4.08a1.874 1.874 0 0 1-1.875 1.876" mask="url(#f)"/>
        </g>
        <g transform="translate(1028 703.28)">
            <mask id="h" fill="#fff">
                <use xlink:href="#g"/>
            </mask>
            <path fill="#BADDE6" d="M-9.161 114.85h235.144V-9.11H-9.161z" mask="url(#h)"/>
        </g>
        <g transform="translate(1033 683.28)">
            <mask id="j" fill="#fff">
                <use xlink:href="#i"/>
            </mask>
            <path fill="#FFF" d="M-9.366 128.918h229.777V-8.903H-9.366z" mask="url(#j)"/>
        </g>
        <g transform="translate(1200 726.28)">
            <mask id="l" fill="#fff">
                <use xlink:href="#k"/>
            </mask>
            <path fill="#BADDE6" d="M-9.144 67.443h242.26v-138.39H-9.144z" mask="url(#l)"/>
        </g>
        <g transform="translate(1205 648.28)">
            <mask id="n" fill="#fff">
                <use xlink:href="#m"/>
            </mask>
            <path fill="#FFF" d="M-9.352 140.112h236.375V-9.016H-9.352z" mask="url(#n)"/>
        </g>
        <g transform="translate(1188 665.28)">
            <mask id="p" fill="#fff">
                <use xlink:href="#o"/>
            </mask>
            <path fill="#5EA7BB" d="M-8.847 91.295h177.744V-9.229H-8.847z" mask="url(#p)"/>
        </g>
        <g transform="translate(1189 662.28)">
            <mask id="r" fill="#fff">
                <use xlink:href="#q"/>
            </mask>
            <path fill="#43BAC2" d="M-9.488 91.423h177.744V-9.101H-9.488z" mask="url(#r)"/>
        </g>
        <g transform="translate(1271 700.28)">
            <mask id="t" fill="#fff">
                <use xlink:href="#s"/>
            </mask>
            <path fill="#FFF" d="M-9.715 40.788h75.744V-9.75H-9.715z" mask="url(#t)"/>
        </g>
        <g transform="translate(1274 701.28)">
            <mask id="v" fill="#fff">
                <use xlink:href="#u"/>
            </mask>
            <path fill="#FFF" d="M-9.485 41.224h75.744V-9.314H-9.485z" mask="url(#v)"/>
        </g>
        <g transform="translate(1271 700.28)">
            <mask id="x" fill="#fff">
                <use xlink:href="#w"/>
            </mask>
            <path fill="#D1EAF2" d="M-9.356 40.158h75.744V-9.75H-9.356z" mask="url(#x)"/>
        </g>
        <g transform="translate(1290 688.28)">
            <mask id="z" fill="#fff">
                <use xlink:href="#y"/>
            </mask>
            <path fill="#FFF" d="M-9.027 17.183h28.534V-9.664H-9.027z" mask="url(#z)"/>
        </g>
        <g transform="translate(1272 680.28)">
            <mask id="B" fill="#fff">
                <use xlink:href="#A"/>
            </mask>
            <path fill="#FFF" d="M-8.942 17.685h28.534V-9.162H-8.942z" mask="url(#B)"/>
        </g>
        <g transform="translate(1255 672.28)">
            <mask id="D" fill="#fff">
                <use xlink:href="#C"/>
            </mask>
            <path fill="#FFF" d="M-9.541 17.454h28.534V-9.393H-9.541z" mask="url(#D)"/>
        </g>
        <g transform="translate(1215 690.28)">
            <mask id="F" fill="#fff">
                <use xlink:href="#E"/>
            </mask>
            <path fill="#FFF" d="M-8.986 17.229h28.534V-9.618H-8.986z" mask="url(#F)"/>
        </g>
        <g transform="translate(1269 696.28)">
            <mask id="H" fill="#fff">
                <use xlink:href="#G"/>
            </mask>
            <path fill="#FFF" d="M-9.201 17.799h28.534V-9.048H-9.201z" mask="url(#H)"/>
        </g>
        <g transform="translate(1251 689.28)">
            <mask id="J" fill="#fff">
                <use xlink:href="#I"/>
            </mask>
            <path fill="#FFF" d="M-9.116 17.301h28.534V-9.546H-9.116z" mask="url(#J)"/>
        </g>
        <g transform="translate(1234 681.28)">
            <mask id="L" fill="#fff">
                <use xlink:href="#K"/>
            </mask>
            <path fill="#FFF" d="M-9.715 17.069h28.534V-9.778H-9.715z" mask="url(#L)"/>
        </g>
        <g transform="translate(1251 707.28)">
            <mask id="N" fill="#fff">
                <use xlink:href="#M"/>
            </mask>
            <path fill="#FFF" d="M-9.504 17.209H19.03V-9.637H-9.504z" mask="url(#N)"/>
        </g>
        <g transform="translate(1233 699.28)">
            <mask id="P" fill="#fff">
                <use xlink:href="#O"/>
            </mask>
            <path fill="#FFF" d="M-9.419 17.712h28.534V-9.135H-9.419z" mask="url(#P)"/>
        </g>
        <g transform="translate(887 640.28)">
            <mask id="R" fill="#fff">
                <use xlink:href="#Q"/>
            </mask>
            <path fill="#87C4D5" d="M-7.187 21.668H67.09V-6.953H-7.187z" mask="url(#R)"/>
        </g>
        <g transform="translate(891 589.28)">
            <mask id="T" fill="#fff">
                <use xlink:href="#S"/>
            </mask>
            <path fill="#BADDE6" d="M-6.716 51.399h41.713V-7.042H-6.716z" mask="url(#T)"/>
        </g>
        <g transform="translate(904 579.28)">
            <mask id="V" fill="#fff">
                <use xlink:href="#U"/>
            </mask>
            <path fill="#FFF" d="M-7.004 81.146h74.405V-6.82H-7.004z" mask="url(#V)"/>
        </g>
        <g transform="translate(916 576.28)">
            <mask id="X" fill="#fff">
                <use xlink:href="#W"/>
            </mask>
            <path fill="#BADDE6" d="M-6.844 83.759h64.169V-7.185H-6.844z" mask="url(#X)"/>
        </g>
        <g transform="translate(904 561.28)">
            <mask id="Z" fill="#fff">
                <use xlink:href="#Y"/>
            </mask>
            <path fill="#BC3F72" d="M-6.249 32.601h43.66V-7.005h-43.66z" mask="url(#Z)"/>
        </g>
        <g transform="translate(949 566.28)">
            <mask id="ab" fill="#fff">
                <use xlink:href="#aa"/>
            </mask>
            <path fill="#BC3F72" d="M-6.88 26.931h31.084V-6.275H-6.88z" mask="url(#ab)"/>
        </g>
        <path fill="#BC3F72" d="M934.191 561.494c-.316.909-.836 1.866-1.587 2.877-7.376 9.933-12.196 16.457-8.699 22.29 3.57.629 7.475.978 11.573.978 5.378 0 10.428-.6 14.817-1.647-.852-1.661-1.266-3.698-.688-6.125 1.017-4.272 6.292-8.122 11.13-12.644-5.487-3.465-14.752-5.743-25.259-5.743-.432 0-.86.006-1.287.014"/>
        <g transform="translate(922 561.28)">
            <mask id="ad" fill="#fff">
                <use xlink:href="#ac"/>
            </mask>
            <path fill="#BC3F72" d="M-6.477 33.577h52.433V-7.02H-6.477z" mask="url(#ad)"/>
        </g>
        <g transform="translate(700 1.28)">
            <path fill="#8AC4D1" d="M425.813 496.88c0 26.576-21.544 48.12-48.12 48.12-26.576 0-48.12-21.544-48.12-48.12 0-26.576 21.544-48.12 48.12-48.12 26.576 0 48.12 21.544 48.12 48.12"/>
            <path fill="#FFF" d="M420.699 488.342c0 26.576-21.544 48.12-48.12 48.12-26.576 0-48.12-21.544-48.12-48.12 0-26.576 21.544-48.12 48.12-48.12 26.576 0 48.12 21.544 48.12 48.12"/>
            <path fill="#E2001A" d="M431.843 323.47c0-3.819-.955-5.635-3.228-5.635-2.272 0-3.279 1.816-3.279 5.635 0 3.82.955 5.604 3.279 5.604 2.325 0 3.228-1.692 3.228-5.562v-.042zm-9.962 0c0-5.458 2.407-8.364 6.734-8.364 4.328 0 6.642 2.906 6.642 8.364s-2.366 8.51-6.642 8.51c-4.275 0-6.734-3.093-6.734-8.51zm3.05-23.65a32.965 32.965 0 0 1 3.778-.322l-16.158 31.797a33.907 33.907 0 0 1-3.684.321l16.064-31.796zm-12.38 7.544c0-3.777-.955-5.593-3.227-5.593-2.273 0-3.279 1.774-3.279 5.593 0 3.82.954 5.646 3.279 5.646 2.324 0 3.227-1.734 3.227-5.646zm-9.962 0c0-5.458 2.459-8.364 6.735-8.364 4.275 0 6.642 2.906 6.642 8.364 0 5.46-2.367 8.51-6.642 8.51-4.276 0-6.735-3.103-6.735-8.51z"/>
            <path fill="#DEEDF2" d="M91.361 387h119.896V221.527H100.828l-9.467 7.885z"/>
            <mask id="af" fill="#fff">
                <use xlink:href="#ae"/>
            </mask>
            <path fill="#FFF" d="M100.828 373.938h110.429V221.527H100.828z" mask="url(#af)"/>
            <path fill="#9CC3D3" d="M169.408 284.311c0-10.148-21.894-10.06-21.894 0 0 10.059 21.894 10.192 21.894 0m2.337 27.456c0-12.027-26.627-11.672-26.627 0 0 11.671 26.627 12.47 26.627 0m-38.224-.089c0-6.376 4.127-11.213 8.786-13.994a16.584 16.584 0 0 1-6.36-12.663c0-24.675 45.044-26.287 45.044 0a16.098 16.098 0 0 1-6.464 12.663 15.784 15.784 0 0 1 8.979 14.083c0 14.26-12.116 19.748-24.497 19.748-13.462-.03-25.488-5.577-25.488-19.837" mask="url(#af)"/>
            <path fill="#E2001A" d="M100.089 224.101h110.429V194.9H100.089z" mask="url(#af)"/>
            <path fill="#9D0D16" d="M91.349 229.595l9-6v-29l-9 6z" mask="url(#af)"/>
        </g>
        <g transform="translate(1069 480.28)">
            <mask id="ah" fill="#fff">
                <use xlink:href="#ag"/>
            </mask>
            <path fill="#FF7268" d="M-7.364 43.463h40.197V-7.356H-7.364z" mask="url(#ah)"/>
        </g>
        <g transform="translate(1055 466.28)">
            <mask id="aj" fill="#fff">
                <use xlink:href="#ai"/>
            </mask>
            <path fill="#EC0000" d="M-7.654 15.936h23.323V-7.542H-7.654z" mask="url(#aj)"/>
        </g>
        <g transform="translate(1083 466.28)">
            <mask id="al" fill="#fff">
                <use xlink:href="#ak"/>
            </mask>
            <path fill="#FF7268" d="M-6.953 15.936h23.324V-7.542H-6.953z" mask="url(#al)"/>
        </g>
        <g transform="translate(1053 481.28)">
            <mask id="an" fill="#fff">
                <use xlink:href="#am"/>
            </mask>
            <path fill="#EC0000" d="M-7.84 42.368h39.222V-7.836H-7.84z" mask="url(#an)"/>
        </g>
    </g>
</svg>
