<svg xmlns="http://www.w3.org/2000/svg" xmlns:xlink="http://www.w3.org/1999/xlink" width="320" height="337" viewBox="0 0 320 337">
    <defs>
        <path id="a" d="M0 311h584V0H0z"/>
    </defs>
    <g fill="none" fill-rule="evenodd" transform="translate(-69 26)">
        <path fill="#DEEDF2" d="M479.239 212.998L529 131.7c-42.238-29.21-98.754-16.488-126.231 28.416-27.477 44.902-15.51 104.984 26.728 134.195 26.115 18.06 59.093 20.705 87.462 7.016l-37.72-88.329z"/>
        <path fill="#EAF1F8" d="M479.239 212.998L529 131.7c-42.238-29.21-98.754-16.488-126.231 28.416-27.477 44.902-15.51 104.984 26.728 134.195 26.115 18.06 59.093 20.705 87.462 7.016l-37.72-88.329z"/>
        <mask id="b" fill="#fff">
            <use xlink:href="#a"/>
        </mask>
        <path fill="#B5D9DE" d="M142 224h18V43h-18z" mask="url(#b)"/>
        <path fill="#B5D9DE" d="M140 214h232V43H140z" mask="url(#b)"/>
        <path fill="#B5D9DE" d="M140 225h232V54H140z" mask="url(#b)"/>
        <path fill="#DBE8EC" d="M180 189h192V75H180z" mask="url(#b)"/>
        <path fill="#DBE8EC" d="M166 193h192V79H166z" mask="url(#b)"/>
        <path fill="#FFF" d="M361 202h-90v-79.923L361 64z" mask="url(#b)"/>
        <path fill="#DBE8EC" d="M361 214h12v-25h-12z" mask="url(#b)"/>
        <path fill="#B5D9DE" d="M361 225h12V43h-12zM312 214h12V43h-12z" mask="url(#b)"/>
        <path fill="#B5D9DE" d="M230 224h98v-59h-98z" mask="url(#b)"/>
        <path fill="#B5D9DE" d="M230 224h12v-59h-12z" mask="url(#b)"/>
        <path fill="#DBE8EC" d="M374.927 80.312H385l-10.083-18.656H157.818c-.051-5.827.062-18.656.062-18.656H142v18.656L162.166 99h212.761V80.312z" mask="url(#b)"/>
        <path fill="#FFF" d="M372.84 43H140l20.16 37H393z" mask="url(#b)"/>
        <path fill="#E2001A" d="M164.144 43H152l19.856 37H184zM189.144 43H177l19.856 37H209zM213.144 43H201l19.856 37H233zM238.144 43H226l19.856 37H258zM262.144 43H250l19.856 37H282zM287.144 43H275l19.856 37H307zM311.144 43H299l19.856 37H331zM337.144 43H325l19.856 37H357zM361.144 43H349l19.856 37H381z" mask="url(#b)"/>
        <path fill="#008D9F" d="M338 237v4h-18.067l-1.933-.752 6.908-1.202s3.49-1.101 3.667-2.046M322 166.616c.781 2.42 3.044 43.03 3.044 43.03L328.787 237H338l-1.31-20.234-.11-8.308-3.49-41.613 3.986-2.845L322 166.616zM352 240v4h-18.066l-1.934-.761 6.9-1.202s3.501-1.092 3.669-2.037" mask="url(#b)"/>
        <path fill="#008D9F" d="M331 169.706c.787 2.422 7.13 42.931 7.13 42.931L341.852 240H351l-2.179-19.911-.101-8.303-.534-43.215V167L331 169.706z" mask="url(#b)"/>
        <path fill="#333F5F" d="M328 95.458l.78 1.398 6.643-1.15 1.363 5.367 1.603 1.907 2.113 4.02c3.814-2.896 4.636-8.44 1.837-12.384-2.8-3.943-8.161-4.793-11.976-1.898a8.765 8.765 0 0 0-2.363 2.74" mask="url(#b)"/>
        <path fill="#743342" d="M331 122.72l.692-2.736 1.138-.624.256-4.924 9.66-11.436a26.9 26.9 0 0 0-.356 2.845A29.367 29.367 0 0 0 344 117.73c-1.25 2.023-3.14 3.453-5.299 4.005a43.524 43.524 0 0 0-6.118 2.265l.058-1.094c-.702-.099-1.641-.186-1.641-.186" mask="url(#b)"/>
        <path fill="#743342" d="M326.774 102.357l.35-2.262a11.96 11.96 0 0 1 .69-3.23l.256-.819h.073L335.87 94l1.773 5.622v.096l.69 2.682v-.172c.51-1.508 1.698-2.456 2.644-2.154.944.301 1.304 1.82.784 3.328-.519 1.507-1.687 2.466-2.631 2.153l.243.916.382 1.486-.732 1.077L331.87 115l-.426-.162-.265-.107-.34-.173a4.74 4.74 0 0 1-1.58-1.378 4.934 4.934 0 0 1-.596-1.023 5.397 5.397 0 0 1-.393-1.626l-.115-1.702-.065-.915a1.077 1.077 0 0 0-.053-.172l-2.037-.614.774-4.771z" mask="url(#b)"/>
        <path fill="#A22D5E" d="M345.86 144.621a24.122 24.122 0 0 1-.43-2.85 105.715 105.715 0 0 1-.214-3.239l1.368 4.405-.725 1.684zm-23.186-3.865l-.633 9.34-.796 11.249c-.317 3.617-.051 2.7-.245 5.765v6.942c.378 2.58 29.798 2.57 29.594.13-.265-3.433-.061-6.478-1.44-12.556l6.216-12.34c.21-.266.367-.575.46-.908.136-.475.191-.971.163-1.468a.31.31 0 0 0 0-.097l-1.745-22.176v-.097c0-3.358-2.041-6.478-5.103-6.845L342.95 116s-13.123 8.443-11.684 3.153c.078-.257.203-.495.368-.702v-.842l-6.348 3.94c-1.41.937-2.284 2.558-2.327 4.319l-.337 14.953.052-.065z" mask="url(#b)"/>
        <path fill="#743342" d="M338.76 160l-2.9 3.119c-.752.805-1.267 1.85-1.475 2.993l-.325 1.839c-.323 1.774.696 3.506 2.277 3.868.141.033.285.053.43.061l2.095.115c1.485.094 2.798-1.074 3.053-2.72l.356-2.375 1.729-1.954-5.24-4.946zM296.758 140.5l4.95 1.994.19-.212.645-.668.212-.223s-1.989-.813-3.321-1.247a2.397 2.397 0 0 1-1.29-1.315.584.584 0 0 1 .229-.766.521.521 0 0 1 .416-.035l5.383 1.637c.313.089.585.29.772.568l1.883 2.795 3.173 1.916-1.28 5.056-8.461-1.114a2.33 2.33 0 0 1-1.174-.534l-2.454-2.116a2.522 2.522 0 0 1-.698-1.003 13.1 13.1 0 0 1-.931-3.34c-.04-.768.517-1.425 1.247-1.469.172-.01.346.016.509.076" mask="url(#b)"/>
        <path fill="#A22D5E" d="M328 144.078L308.351 140 306 148.692 325.056 153z" mask="url(#b)"/>
        <path fill="#313F5F" d="M218.563 172.372l-1.778 32.704-4.613 31.218L221 240.87l-16 .13.337-72z" mask="url(#b)"/>
        <path fill="#313F5F" d="M203.563 174.372l-1.777 32.698-4.614 31.214 8.828 4.575-16 .141.336-72z" mask="url(#b)"/>
        <path fill="#2AADB7" d="M179 188l40-1.016-3.81-57.15c-.96-4.569-4.823-7.826-9.293-7.834h-4.243c-4.392-.014-8.224 3.107-9.293 7.564l-2.715 11.367-4.224 17.678L179 188z" mask="url(#b)"/>
        <path fill="#313F5F" d="M212.989 100.008l-.673 1.409-6.363-.788-1.036 5.347-1.431 1.953-1.824 4.071c-3.756-2.651-4.792-8.06-2.315-12.08 2.476-4.02 7.528-5.13 11.284-2.478a8.469 8.469 0 0 1 2.369 2.566" mask="url(#b)"/>
        <path fill="#822F40" d="M203 108.495c0 1.386.672 2.505 1.505 2.505.833 0 1.495-1.12 1.495-2.505 0-1.386-.672-2.495-1.495-2.495-.823 0-1.505 1.066-1.505 2.495" mask="url(#b)"/>
        <path fill="#F7C2B6" d="M246 144.817l.58-2.244 4.915-3.018.87-.538-.43-.827-1.492-2.846a.915.915 0 0 1 0-.891c.066-.108.148-.201.247-.28a.933.933 0 0 1 1.299.215l1.18 1.665 1.578 2.256a1.462 1.462 0 0 1 0 1.643l-.988 1.525-1.008 1.568c-.923 1.44-2.554 1.87-4.293 1.955h-.526l-1.932-.183z" mask="url(#b)"/>
        <path fill="#F7C2B6" d="M246.967 144.661l1.154-1.993a4.471 4.471 0 0 1 1.396-1.475l2.94-1.993c.533-.352.7-1.054.382-1.605a1.217 1.217 0 0 0-1.545-.488l-4.91 2.212h-3.37a4.797 4.797 0 0 0-3.173 1.156L237 143.007l.803 1.993 9.164-.339z" mask="url(#b)"/>
        <path fill="#2AADB7" d="M244 146.078l-5.193-7.295-12.934 8.141L215 127l4.357 30.112s3.502 5.195 7.213 4.874c2.04-.172 17.43-15.908 17.43-15.908" mask="url(#b)"/>
        <path fill="#F7C2B6" d="M211.886 101.491l.256.74c.386.944.638 1.941.748 2.962a17.06 17.06 0 0 1 .062 3.218 22.202 22.202 0 0 1-.574 3.755v2.564a4.662 4.662 0 0 1-.758 2.478 4.14 4.14 0 0 1-.82.944c-.16.147-.336.277-.522.387l-.287.171-.236.118-.368.172-6.7-5.096-.687-.933.276-1.374.164-.858.113-.547.317-1.599v-.257l.604-3.025v-.086l1.322-5.225 6.947 1.502.143-.01z" mask="url(#b)"/>
        <path fill="#F7C2B6" d="M213.188 105l.007.05v.009l.309 1.878.496 3.038-1.36.069-.129 1.956-.188-.501-.158-1.19-.165-1.317z" mask="url(#b)"/>
        <path fill="#F7C0B5" d="M203.657 107.827c.619 1.332.378 2.707-.54 3.08-.916.373-2.154-.415-2.773-1.748-.619-1.332-.378-2.707.527-3.07.906-.362 2.155.406 2.786 1.738" mask="url(#b)"/>
        <path fill="#313F5F" d="M212 101.42s-.994 7.275-9.093 9.377c-8.1 2.102-1.093-12.797-1.093-12.797l5.962.523L212 101.42z" mask="url(#b)"/>
        <path fill="#313F5F" d="M197.5 94c2.486 0 4.5 2.239 4.5 5s-2.014 5-4.5 5c-2.485 0-4.5-2.239-4.5-5s2.015-5 4.5-5" mask="url(#b)"/>
        <path fill="#F7C2B6" d="M210.607 122.125l-.428-4.13-9.618-9.995c.197.853.35 1.717.457 2.589.447 3.694.098 7.45-1.018 10.979.269.392.568.757.896 1.092-.77.399-1.091 1.392-.72 2.218.111.248.278.46.486.622 2.454 1.814 5.498 3.277 8.47 2.043 2.137-.95 2.147-3.31 1.475-5.418" mask="url(#b)"/>
        <path fill="#FFF" d="M203.27 135.44c-.12.404-7.624 23.93-7.624 23.93L192 176.152l2.15 12.102L193.82 207H222v-54.777c0-8.62-7.421-18.223-7.421-18.223l-11.31 1.44z" mask="url(#b)"/>
        <path fill="#F7C2B6" d="M191.775 180.643a9.073 9.073 0 0 0-1.803-4.15 1.342 1.342 0 0 0-1.946-.14c-.61-.418-1.423-.225-1.812.43a1.435 1.435 0 0 0-.162.397c-.754 2.831-2.424 6.447-1.977 9.43.4 2.747 2.754 4.67 5.338 4.357 2.078-.107 3.682-1.996 3.583-4.218a4.103 4.103 0 0 0-.05-.487 37.261 37.261 0 0 0-1.17-5.62" mask="url(#b)"/>
        <path fill="#2AB4B5" d="M193.343 181c7.343-17.177 9.657-37 9.657-37l-11 8.498L193.343 181z" mask="url(#b)"/>
        <path fill="#2AADB7" d="M202.66 143.138l-8.31 23.684s-1.727 14.146-1.637 14.178L185 179.735l.677-16.44 5.543-24.401c1.11-3.333 3.463-8.51 5.523-7.834 2.29.74 3.241 3.612 4.654 5.67l.494.717c1.141 1.645 1.422 3.79.748 5.701" mask="url(#b)"/>
        <path fill="#FFF" d="M217.946 145.966c-1.676-7.278-3.593-14.49-5.65-21.66-.542-1.91-3.302-1.097-2.75.835a455.652 455.652 0 0 1 2.549 9.21c-3.111.242-6.225.363-9.343.363-.833-3.294-1.666-6.587-2.51-9.88-.49-1.933-3.683-2.613-3.19-.681 1.886 7.4 4.204 16.302 6.091 23.702.214.833 1.005 1.32 1.766 1.086.763-.232 1.208-1.098.994-1.932l-2.348-9.21c3.01 0 5.92-.143 8.881-.385.152-.015.301-.056.442-.12.813 3.15 1.595 6.301 2.328 9.474.46 1.976 3.212 1.152 2.74-.802" mask="url(#b)"/>
        <path fill="#313F5F" d="M204 105.095s-.707 19.949-4.91 19.905c-4.206-.044-12.674-4.401-12.058-10.86.616-6.46 11.864-14.118 11.886-14.14.019-.022 5.053 5.095 5.053 5.095" mask="url(#b)"/>
        <path fill="#FFD871" d="M294 27h7v-7h-7z" mask="url(#b)"/>
        <path fill="#FFF" d="M391.5 113c3.039 0 5.5 2.686 5.5 6s-2.461 6-5.5 6c-3.038 0-5.5-2.686-5.5-6s2.462-6 5.5-6M317 34h11V22h-11z" mask="url(#b)"/>
        <path fill="#EAF1F8" d="M115 224h20V4h-20z" mask="url(#b)"/>
        <path fill="#D1E5F2" d="M114 224h-9V8.204L114 4z" mask="url(#b)"/>
        <path fill="#EAF1F8" d="M45 188h36V45H45z" mask="url(#b)"/>
        <path fill="#EAF1F8" d="M8 224h97V72H8z" mask="url(#b)"/>
        <path fill="#A4C8D0" d="M123 224h4v-67h-4z" mask="url(#b)"/>
        <path fill="#7386A5" d="M123 182.698l4 4.302v-34h-4z" mask="url(#b)"/>
        <path fill="#99BEC9" d="M129.79 129.111c-3.538-10.292-14.391-15.637-24.241-11.94-9.85 3.698-14.967 15.039-11.428 25.33a20.065 20.065 0 0 0 3.182 5.862c.248.312.495.613.763.904a15.487 15.487 0 0 1 1.646 3.388 46.198 46.198 0 0 1 1.401 5c.173 1.422.46 2.825.854 4.195 3.969 13.547 17.697 21.167 30.663 17.02 12.965-4.148 20.257-18.491 16.288-32.037-2.696-9.2-10.093-16.05-19.157-17.743l.03.021z" mask="url(#b)"/>
        <path fill="#A4C8D0" d="M93 225h4v-68h-4z" mask="url(#b)"/>
        <path fill="#A4C8D0" d="M97 185l-4-2.433V159h4z" mask="url(#b)"/>
        <path fill="#99BEC9" d="M74.024 138.986c.481-8.772 7.587-15.469 15.87-14.959 5.552.342 10.471 3.905 12.786 9.26 1.183 2.772 3.7 4.64 6.564 4.87h.124c5.18.51 9.25 4.913 9.621 10.407.246 3.978-3.725 7.552-6.863 9.732-2.267 1.58-3.653 4.242-3.704 7.115-.14 8.756-6.955 15.734-15.222 15.587-8.267-.148-14.857-7.366-14.717-16.12.019-1.12.148-2.234.387-3.324.926-4.46.074-9.129-2.356-12.902-1.798-2.851-2.672-6.243-2.49-9.666" mask="url(#b)"/>
        <path fill="#A4C8D0" d="M74.024 138.986c.481-8.772 7.587-15.469 15.87-14.959 5.552.342 10.471 3.905 12.786 9.26 1.183 2.772 3.7 4.64 6.564 4.87h.124c5.18.51 9.25 4.913 9.621 10.407.246 3.978-3.725 7.552-6.863 9.732-2.267 1.58-3.653 4.242-3.704 7.115-.14 8.756-6.955 15.734-15.222 15.587-8.267-.148-14.857-7.366-14.717-16.12.019-1.12.148-2.234.387-3.324.926-4.46.074-9.129-2.356-12.902-1.798-2.851-2.672-6.243-2.49-9.666" mask="url(#b)"/>
        <path fill="#B5D9DE" d="M34.213 120.647a34.232 34.232 0 0 0-4.74 11.558c-.758 3.535-2.41 6.786-4.778 9.404a17.443 17.443 0 0 0-1.798 2.37c-5.218 8.173-3.195 19.28 4.519 24.81 3.977 2.851 8.912 3.77 13.569 2.526a19.173 19.173 0 0 1 10.51.325c16.752 5.201 34.313-4.973 39.222-22.724 4.908-17.753-4.693-36.36-21.447-41.562-13.158-4.085-27.3 1.283-35.016 13.293" mask="url(#b)"/>
        <path stroke="#DEEDF2" stroke-dasharray="2.424,2.424" stroke-width="1.616" d="M453 269H98.131C59.951 269 29 236.479 29 196.362V167" mask="url(#b)"/>
        <path fill="#ACC6D3" d="M159 270a8 8 0 1 1-15.999-.001A8 8 0 0 1 159 270" mask="url(#b)"/>
        <path fill="#A22D5E" d="M285 270a8 8 0 1 1-15.999-.001A8 8 0 0 1 285 270" mask="url(#b)"/>
    </g>
</svg>
