<svg xmlns="http://www.w3.org/2000/svg" xmlns:xlink="http://www.w3.org/1999/xlink" width="136" height="136" viewBox="0 0 136 136">
    <defs>
        <path id="a" d="M.554 59.57v.005c0 32.62 26.58 59.063 59.37 59.063h.005c32.793 0 59.376-26.446 59.376-59.069 0-32.622-26.583-59.067-59.376-59.067C27.137.502.554 26.947.554 59.569z"/>
        <path id="c" d="M.554 59.57v.005c0 32.62 26.58 59.063 59.37 59.063h.005c32.793 0 59.376-26.446 59.376-59.069 0-32.622-26.583-59.067-59.376-59.067C27.137.502.554 26.947.554 59.569"/>
        <path id="e" d="M.554 59.57v.005c0 32.62 26.58 59.063 59.37 59.063h.005c32.793 0 59.376-26.446 59.376-59.069 0-32.622-26.583-59.067-59.376-59.067C27.137.502.554 26.947.554 59.569"/>
        <path id="g" d="M.554 59.57v.005c0 32.62 26.58 59.063 59.37 59.063h.005c32.793 0 59.376-26.446 59.376-59.069 0-32.622-26.583-59.067-59.376-59.067C27.137.502.554 26.947.554 59.569"/>
        <path id="i" d="M.554 59.57v.005c0 32.62 26.58 59.063 59.37 59.063h.005c32.793 0 59.376-26.446 59.376-59.069 0-32.622-26.583-59.067-59.376-59.067C27.137.502.554 26.947.554 59.569z"/>
        <path id="k" d="M.684 1.833v9.499H2.93v-9.5c0-.647-.504-1.172-1.123-1.172-.622 0-1.124.525-1.124 1.173z"/>
        <path id="m" d="M1.806.084C1.185.084.684.607.684 1.253c0 .645.501 1.169 1.122 1.169h.004c.619 0 1.121-.524 1.121-1.17C2.931.608 2.43.085 1.81.085h-.004z"/>
        <path id="o" d="M.49.451v.011c.415 2.763 2.76 4.879 5.591 4.879 1.301 0 2.72-.558 3.777-1.361a1.071 1.071 0 0 0 .13-1.572 1.036 1.036 0 0 0-1.415-.102c-.477.377-1.257.761-2.454.761-1.6 0-2.936-.955-3.264-2.605l8.556-.008V.45H.49z"/>
        <path id="q" d="M.453 6.112c0 .204.03.613.036.681H11.41v-.681C11.254 2.462 9.168.517 6.05.517 2.777.517.453 2.781.453 6.112zm5.561-3.436c1.48 0 2.535.775 2.826 2.326H3.077c.404-1.437 1.615-2.326 2.937-2.326z"/>
        <path id="s" d="M5.558.696c-.471 0-.912.238-1.177.634L.084 7.79l.146.226a1.243 1.243 0 0 0 2.08.016l2.673-3.953.38 7.162h2.115l-.485-9.178A1.43 1.43 0 0 0 5.575.696h-.017z"/>
        <path id="u" d="M1.172.665a1.16 1.16 0 0 0-1.15 1.17 1.16 1.16 0 0 0 1.15 1.169h.004a1.16 1.16 0 0 0 1.149-1.17A1.16 1.16 0 0 0 1.175.666h-.003z"/>
        <path id="w" d="M1.331.665a1.16 1.16 0 0 0-1.15 1.17 1.16 1.16 0 0 0 1.15 1.169h.005a1.16 1.16 0 0 0 1.15-1.17A1.16 1.16 0 0 0 1.336.666H1.33z"/>
        <path id="y" d="M.546 1.49L.07 10.507h2.077l.368-6.967 2.479 3.798c.481.74 1.545.75 2.039.017l.137-.203L3.108.792a1.39 1.39 0 0 0-1.17-.645C1.199.147.586.737.547 1.49z"/>
        <path id="A" d="M.669 64.734c0 35.414 28.859 64.124 64.458 64.124 35.6 0 64.458-28.71 64.458-64.124C129.585 29.319 100.726.61 65.127.61 29.527.61.669 29.319.669 64.734"/>
        <path id="C" d="M.669 64.734c0 35.414 28.859 64.124 64.458 64.124 35.6 0 64.458-28.71 64.458-64.124C129.585 29.319 100.726.61 65.127.61 29.527.61.669 29.319.669 64.734"/>
    </defs>
    <g fill="none" fill-rule="evenodd">
        <path fill="#DAEEF3" d="M132.386 48.168C121.376 12.663 83.518-7.241 47.828 3.713 12.138 14.666-7.869 52.327 3.141 87.833c11.006 35.491 48.84 55.395 84.523 44.466 35.697-10.934 55.724-48.585 44.734-84.096a.677.677 0 0 0-.012-.035"/>
        <path fill="#BBDFE7" d="M2.962 61.849c0-32.623 26.583-59.068 59.375-59.068s59.375 26.445 59.375 59.068c0 32.621-26.583 59.067-59.375 59.067h-.006c-32.789 0-59.37-26.443-59.37-59.062v-.005"/>
        <g transform="translate(2.833 1.838)">
            <mask id="b" fill="#fff">
                <use xlink:href="#a"/>
            </mask>
            <path fill="#E1EBF3" d="M233.896 144.515l-42.318-32.146H30.554l-42.318 32.146a3.396 3.396 0 0 0-.636 4.78 3.431 3.431 0 0 0 2.67 1.335h241.547a3.418 3.418 0 0 0 3.42-3.417 3.397 3.397 0 0 0-1.341-2.698zm-43.208-32.146V23.46c-.013-4.208-3.437-7.617-7.666-7.632H39.115c-4.23.015-7.657 3.424-7.672 7.633v88.91h159.245z" mask="url(#b)"/>
            <mask id="d" fill="#fff">
                <use xlink:href="#c"/>
            </mask>
            <path fill="#F1F9FA" d="M233.896 144.515l-42.318-32.146.503-88.327c0-4.986-3.444-9.974-9.06-9.974H39.116c-4.217 0-8.385 4.988-8.385 9.974l-.176 88.327-42.318 32.146a3.396 3.396 0 0 0-.636 4.78 3.431 3.431 0 0 0 2.67 1.335h241.547a3.418 3.418 0 0 0 3.42-3.417 3.397 3.397 0 0 0-1.341-2.698" mask="url(#d)"/>
            <mask id="f" fill="#fff">
                <use xlink:href="#e"/>
            </mask>
            <path fill="#FFF" d="M40.26 22.036h141.396a2.354 2.354 0 0 1 2.36 2.347V103.6a2.354 2.354 0 0 1-2.36 2.348H40.26a2.354 2.354 0 0 1-2.36-2.348V24.383a2.354 2.354 0 0 1 2.36-2.347" mask="url(#f)"/>
            <g>
                <mask id="h" fill="#fff">
                    <use xlink:href="#g"/>
                </mask>
                <path fill="#9EBCCC" d="M183.242 13.579H38.911c-4.94.02-8.94 4.003-8.954 8.918v90.18l.928.655V23.537c.013-4.874 3.979-8.822 8.877-8.837h142.646c4.898.015 8.865 3.963 8.877 8.837v89.784l.928-.655V22.497c-.014-4.922-4.024-8.907-8.97-8.918" mask="url(#h)"/>
            </g>
            <mask id="j" fill="#fff">
                <use xlink:href="#i"/>
            </mask>
            <path fill="#E9F6F8" d="M46.4 97.22h127.971v-5.026H46.401v5.026zm0-10.002h127.971v-5.026H46.401v5.026zm0-20.005h127.971v-5.026H46.401v5.026zm0 10.003h127.971V72.19H46.401v5.026zm0-20.005h127.971v-5.026H46.401v5.026z" mask="url(#j)"/>
            <path fill="#EC0000" d="M47.695 45.754V26.767H46.4V47.09h127.97v-1.336z" mask="url(#j)"/>
        </g>
        <g transform="translate(82.167 32.844)">
            <mask id="l" fill="#fff">
                <use xlink:href="#k"/>
            </mask>
            <path fill="#FF7268" d="M-1.684 13.687h6.982V-1.694h-6.982z" mask="url(#l)"/>
        </g>
        <g transform="translate(82.167 29.32)">
            <mask id="n" fill="#fff">
                <use xlink:href="#m"/>
            </mask>
            <path fill="#FF7268" d="M-1.684 4.777h6.982V-2.27h-6.982z" mask="url(#n)"/>
        </g>
        <g transform="translate(69.417 39.186)">
            <mask id="p" fill="#fff">
                <use xlink:href="#o"/>
            </mask>
            <path fill="#FF7268" d="M-1.878 7.696h15.656v-9.6H-1.878z" mask="url(#p)"/>
        </g>
        <g transform="translate(69.417 32.844)">
            <mask id="r" fill="#fff">
                <use xlink:href="#q"/>
            </mask>
            <path fill="#EC0000" d="M-1.914 9.148h15.692V-1.837H-1.914z" mask="url(#r)"/>
        </g>
        <g transform="translate(60.917 32.844)">
            <mask id="t" fill="#fff">
                <use xlink:href="#s"/>
            </mask>
            <path fill="#FF7268" d="M-2.284 13.595h12.13V-1.659h-12.13z" mask="url(#t)"/>
        </g>
        <g transform="translate(56.667 28.616)">
            <mask id="v" fill="#fff">
                <use xlink:href="#u"/>
            </mask>
            <path fill="#EC0000" d="M-2.346 5.358h7.038v-7.047h-7.038z" mask="url(#v)"/>
        </g>
        <g transform="translate(65.167 28.616)">
            <mask id="x" fill="#fff">
                <use xlink:href="#w"/>
            </mask>
            <path fill="#FF7268" d="M-2.185 5.358h7.038v-7.047h-7.038z" mask="url(#x)"/>
        </g>
        <g transform="translate(55.958 33.548)">
            <mask id="z" fill="#fff">
                <use xlink:href="#y"/>
            </mask>
            <path fill="#EC0000" d="M-2.296 12.862H9.538V-2.207H-2.296z" mask="url(#z)"/>
        </g>
        <g>
            <g transform="translate(4.958 5.362)">
                <mask id="B" fill="#fff">
                    <use xlink:href="#A"/>
                </mask>
                <path fill="#F7B6AA" d="M60.297 58.322l19.283 43.814-2.366-2.371-3.827-3.466a8.803 8.803 0 0 0-10.583-.839.363.363 0 0 0-.105.504l7.397 11.477.855 2.14 1.698 4.275a49.287 49.287 0 0 0 10.467 16.14c.296.307.581.613.913.92l2.325 2.238 18.22 17.841 7.82 15.04 8.438 16.198 25.44-7.364 21.318-6.167-24.877-27.026-10.915-34.044A46.512 46.512 0 0 0 121.07 89.67l-9.885-10.286a3.373 3.373 0 0 0-4.752-.1c-.335.32-.6.704-.779 1.13l-4.29-4.472a3.648 3.648 0 0 0-3.49-1.024c-2.437.58-3.489 2.986-2.396 5.207l.692 1.4-5.814-6.04a4.324 4.324 0 0 0-2.75-1.341c-2.296-.187-4.308 1.513-4.496 3.796-.02.246-.018.493.006.739L66.165 55.106a3.496 3.496 0 0 0-3.6-1.371l-.215.057a3.346 3.346 0 0 0-2.053 4.53" mask="url(#B)"/>
            </g>
            <g transform="translate(4.958 5.362)">
                <mask id="D" fill="#fff">
                    <use xlink:href="#C"/>
                </mask>
                <path fill="#F6A491" d="M60.297 58.322l19.283 43.814-2.366-2.371-3.827-3.466a8.803 8.803 0 0 0-10.583-.839.363.363 0 0 0-.105.504l7.397 11.477.855 2.14 1.692 4.275a49.242 49.242 0 0 0 10.467 16.14c.296.307.58.613.912.92l2.327 2.238 18.218 17.841 7.821 15.04 8.444 16.198 25.44-7.364-12.642-24.296S99.153 132.738 89.675 115.8c-10.502-18.76-24.23-53.406-26.29-57.074a6.286 6.286 0 0 1-.761-4.98l-.216.058a3.345 3.345 0 0 0-2.052 4.53" mask="url(#D)"/>
            </g>
        </g>
    </g>
</svg>
