<svg xmlns="http://www.w3.org/2000/svg" xmlns:xlink="http://www.w3.org/1999/xlink" width="668" height="417" viewBox="0 0 668 417">
    <defs>
        <path id="a" d="M.415.035h181.543V235H.415z"/>
        <path id="c" d="M.345.504h104.647v121.22H.345z"/>
        <path id="e" d="M0 377h745V0H0z"/>
    </defs>
    <g fill="none" fill-rule="evenodd" transform="translate(-77 20)">
        <g transform="translate(548 141)">
            <mask id="b" fill="#fff">
                <use xlink:href="#a"/>
            </mask>
            <path fill="#FFF" d="M64.488 117.525L.415 215.99c54.39 35.375 127.157 19.96 162.532-34.428 35.374-54.388 19.96-127.154-34.429-162.528A117.48 117.48 0 0 0 15.907 10.54l48.58 106.984z" mask="url(#b)"/>
        </g>
        <g transform="translate(640 247)">
            <mask id="d" fill="#fff">
                <use xlink:href="#c"/>
            </mask>
            <path fill="#ACC6D3" d="M19.259 36.642l30.505 66.997C80.507 86.504 96.72 51.608 89.95 17.145L19.26 36.642zm23.88 85.083L.345 27.786 99.558.504l1.83 6.454c12.786 45.04-9.357 92.636-52.104 111.99l-6.145 2.777z" mask="url(#d)"/>
        </g>
        <path fill="#D1E5F2" d="M638 236l81-21.889a120.063 120.063 0 0 0-4.088-9.111l-69.127 18.678L638 236zM721.723 220l-87.67 23.144L627 254l97-26.91a135.906 135.906 0 0 0-2.277-7.09M651 216l61-16.372a120.403 120.403 0 0 0-5.424-8.628l-47.791 12.813L651 216zM664 197l40-10.757a116.048 116.048 0 0 0-6.91-8.243l-25.314 6.805L664 197zM676 178l16-4.416a111.162 111.162 0 0 0-8.368-7.584l-.183.056L676 178z"/>
        <path fill="#DEEDF2" d="M611.122 258.498L675 160.018c-54.22-35.383-126.769-19.973-162.042 34.42-35.271 54.394-19.91 127.172 34.312 162.557a116.804 116.804 0 0 0 112.274 8.5l-48.422-106.997z"/>
        <path fill="#EAF1F8" d="M611.122 258.498L675 160.018c-54.22-35.383-126.769-19.973-162.042 34.42-35.271 54.394-19.91 127.172 34.312 162.557a116.804 116.804 0 0 0 112.274 8.5l-48.422-106.997z"/>
        <mask id="f" fill="#fff">
            <use xlink:href="#e"/>
        </mask>
        <path fill="#B5D9DE" d="M180 272h23V52h-23z" mask="url(#f)"/>
        <path fill="#B5D9DE" d="M180 259h295V52H180z" mask="url(#f)"/>
        <path fill="#B5D9DE" d="M180 272h295V65H180z" mask="url(#f)"/>
        <path fill="#DBE8EC" d="M230 229h245V91H230z" mask="url(#f)"/>
        <path fill="#DBE8EC" d="M212 234h245V96H212z" mask="url(#f)"/>
        <path fill="#FFF" d="M460 245H345v-96.718L460 78z" mask="url(#f)"/>
        <path fill="#DBE8EC" d="M460 259h16v-30h-16z" mask="url(#f)"/>
        <path fill="#B5D9DE" d="M460 273h16V52h-16zM397 259h16V52h-16z" mask="url(#f)"/>
        <path fill="#B5D9DE" d="M293 272h125v-72H293z" mask="url(#f)"/>
        <path fill="#B5D9DE" d="M293 272h16v-72h-16z" mask="url(#f)"/>
        <path fill="#DBE8EC" d="M477.15 97.307H490l-12.863-22.653H200.18c-.066-7.076.078-22.654.078-22.654H180v22.654L205.726 120H477.15V97.307z" mask="url(#f)"/>
        <path fill="#FFF" d="M476.343 52H180l25.657 45H502z" mask="url(#f)"/>
        <path fill="#E2001A" d="M209.56 52H194l25.44 45H235zM240.56 52H225l25.44 45H266zM272.56 52H257l25.44 45H298zM303.56 52H288l25.44 45H329zM334.56 52H319l25.44 45H360zM365.56 52H350l25.44 45H391zM397.56 52H382l25.44 45H423zM429.56 52H414l25.44 45H455zM460.56 52H445l25.44 45H486z" mask="url(#f)"/>
        <path fill="#008D9F" d="M431 287v5h-22.584l-2.416-.94 8.635-1.503s4.363-1.376 4.583-2.557M411 202.154c.977 2.918 3.805 51.872 3.805 51.872L419.483 287H431l-1.637-24.392-.139-10.014-4.362-50.164 4.983-3.43L411 202.154zM449 291v5h-22.582l-2.418-.952 8.625-1.502s4.377-1.365 4.586-2.546" mask="url(#f)"/>
        <path fill="#008D9F" d="M423 206.262c1.023 2.92 9.268 51.753 9.268 51.753l4.84 32.985H449l-2.832-24.002-.132-10.01-.694-52.094V203L423 206.262z" mask="url(#f)"/>
        <path fill="#333F5F" d="M418 115.572l1.024 1.749 8.718-1.438 1.79 6.709 2.104 2.383 2.773 5.025c5.006-3.62 6.085-10.55 2.41-15.48-3.675-4.929-10.711-5.99-15.717-2.372a11.128 11.128 0 0 0-3.102 3.424" mask="url(#f)"/>
        <path fill="#743342" d="M421 148.476l.905-3.257 1.488-.743.335-5.862L436.359 125a29.296 29.296 0 0 0-.465 3.387A32.072 32.072 0 0 0 438 142.535a11.537 11.537 0 0 1-6.93 4.768 60.583 60.583 0 0 0-8 2.697l.076-1.303a62.092 62.092 0 0 0-2.146-.221" mask="url(#f)"/>
        <path fill="#743342" d="M416.967 124.347l.438-2.8c.1-1.368.39-2.715.862-4l.32-1.014h.092l9.659-2.533 2.216 6.96v.12l.863 3.32v-.213c.636-1.867 2.122-3.04 3.304-2.667 1.18.373 1.63 2.253.98 4.12-.648 1.867-2.11 3.053-3.289 2.667l.304 1.133.478 1.84-.916 1.333-8.94 7.387-.533-.2-.332-.133-.424-.214a5.896 5.896 0 0 1-1.976-1.707 6.095 6.095 0 0 1-.744-1.266 6.63 6.63 0 0 1-.491-2.013l-.145-2.107-.08-1.133a1.324 1.324 0 0 0-.067-.214l-2.546-.76.967-5.906z" mask="url(#f)"/>
        <path fill="#A22D5E" d="M440.962 175.823a27.882 27.882 0 0 1-.551-3.468 121.8 121.8 0 0 1-.276-3.94l1.758 5.358-.931 2.05zm-29.81-4.703l-.814 11.362-1.023 13.688c-.408 4.4-.066 3.284-.315 7.014v8.446c.485 3.14 38.312 3.127 38.05.158-.341-4.177-.079-7.881-1.852-15.277l7.992-15.014c.27-.323.471-.699.59-1.103a5.076 5.076 0 0 0 .21-1.787.357.357 0 0 0 0-.118l-2.243-26.98v-.119c0-4.085-2.624-7.881-6.56-8.328L437.22 141s-16.872 10.272-15.022 3.836c.1-.313.261-.602.473-.854v-1.025l-8.161 4.795a6.4 6.4 0 0 0-2.992 5.254l-.434 18.193.067-.079z" mask="url(#f)"/>
        <path fill="#743342" d="M431.189 194l-3.771 3.638a6.68 6.68 0 0 0-1.917 3.492l-.423 2.146c-.42 2.07.904 4.09 2.96 4.512.184.04.37.063.558.072l2.725.134a3.815 3.815 0 0 0 3.969-3.172l.463-2.772 2.247-2.28-6.811-5.77zM379.227 169.917l6.27 2.325.24-.246.818-.78.268-.26s-2.519-.948-4.207-1.455a2.922 2.922 0 0 1-1.634-1.533.654.654 0 0 1 .29-.894.71.71 0 0 1 .527-.042l6.82 1.91c.396.104.74.338.977.663l2.385 3.261 4.019 2.235-1.621 5.899-10.718-1.3a3.073 3.073 0 0 1-1.487-.623l-3.108-2.469a2.953 2.953 0 0 1-.884-1.17 14.358 14.358 0 0 1-1.18-3.897c-.05-.895.656-1.662 1.58-1.713a1.72 1.72 0 0 1 .645.089" mask="url(#f)"/>
        <path fill="#A22D5E" d="M418 175.019L392.992 170 390 180.698 414.253 186z" mask="url(#f)"/>
        <path fill="#313F5F" d="M278.953 209.075l-2.221 39.517-5.767 37.722L282 291.843 262 292l.421-87zM258.953 211.074l-2.22 39.511-5.768 37.716L262 293.83l-20 .17.42-87z" mask="url(#f)"/>
        <path fill="#2AADB7" d="M229 228l51-1.231-4.858-69.273c-1.223-5.538-6.149-9.487-11.848-9.496h-5.41c-5.6-.017-10.486 3.766-11.849 9.168l-3.46 13.779-5.387 21.428L229 228z" mask="url(#f)"/>
        <path fill="#313F5F" d="M270.986 121.759l-.852 1.673-8.06-.935-1.313 6.35-1.812 2.318-2.31 4.835c-4.758-3.149-6.07-9.57-2.933-14.345 3.137-4.774 9.536-6.092 14.293-2.943a10.34 10.34 0 0 1 3.001 3.047" mask="url(#f)"/>
        <path fill="#822F40" d="M259 131.994c0 1.663.896 3.006 2.007 3.006 1.11 0 1.993-1.343 1.993-3.006 0-1.664-.896-2.994-1.993-2.994S259 130.28 259 131.994" mask="url(#f)"/>
        <path fill="#F7C2B6" d="M314 174.784l.708-2.653 6.008-3.567 1.063-.634-.525-.978-1.823-3.363a1.05 1.05 0 0 1 0-1.054c.08-.127.18-.237.302-.33a1.165 1.165 0 0 1 1.587.254l1.443 1.967 1.928 2.666a1.68 1.68 0 0 1 0 1.942l-1.208 1.803-1.232 1.853c-1.128 1.7-3.122 2.208-5.247 2.31h-.643l-2.361-.216z" mask="url(#f)"/>
        <path fill="#F7C2B6" d="M315.082 175.576l1.515-2.491a5.714 5.714 0 0 1 1.831-1.844l3.86-2.491c.7-.44.918-1.317.5-2.006-.412-.664-1.287-.927-2.027-.61l-6.443 2.765h-4.425a6.487 6.487 0 0 0-4.165 1.445L302 173.508l1.054 2.492 12.028-.424z" mask="url(#f)"/>
        <path fill="#2AADB7" d="M312 177.439l-6.805-8.962-16.947 10.002L274 154l5.709 36.994s4.589 6.383 9.451 5.988c2.673-.21 22.84-19.543 22.84-19.543" mask="url(#f)"/>
        <path fill="#F7C2B6" d="M270.582 122.805l.326.896c.492 1.142.813 2.35.952 3.585.155 1.292.181 2.597.078 3.896a25.66 25.66 0 0 1-.73 4.545v3.104a5.398 5.398 0 0 1-.352 1.831c-.154.413-.36.807-.613 1.17a5.094 5.094 0 0 1-1.043 1.142 3.992 3.992 0 0 1-.664.468l-.366.207-.3.143-.468.208-8.528-6.169-.874-1.13.35-1.662.21-1.039.144-.662.403-1.935v-.312l.77-3.662v-.104l1.682-6.325 8.84 1.818.183-.013z" mask="url(#f)"/>
        <path fill="#F7C2B6" d="M271.782 127l.011.063v.013l.463 2.414.744 3.906-2.041.089-.192 2.515-.282-.645-.237-1.53-.248-1.693z" mask="url(#f)"/>
        <path fill="#F7C0B5" d="M259.57 131.192c.775 1.6.474 3.25-.673 3.697-1.146.448-2.693-.499-3.467-2.098-.774-1.599-.473-3.249.659-3.683 1.132-.435 2.694.486 3.482 2.084" mask="url(#f)"/>
        <path fill="#313F5F" d="M270 123.209s-1.3 8.954-11.891 11.54c-10.592 2.588-1.43-15.749-1.43-15.749l7.798.643L270 123.21z" mask="url(#f)"/>
        <path fill="#313F5F" d="M252 114a6 6 0 1 1 0 12 6 6 0 0 1 0-12" mask="url(#f)"/>
        <path fill="#F7C2B6" d="M268.5 147.95l-.544-4.955L255.714 131a28.38 28.38 0 0 1 .582 3.107c.568 4.433.124 8.94-1.296 13.174.342.47.723.909 1.14 1.311a2.003 2.003 0 0 0-.298 3.408c3.124 2.176 6.997 3.933 10.78 2.452 2.72-1.14 2.733-3.972 1.878-6.502" mask="url(#f)"/>
        <path fill="#FFF" d="M258.65 164.736c-.156.487-9.91 28.847-9.91 28.847l-4.74 20.23 2.795 14.588-.43 22.599H283v-66.033c0-10.392-9.648-21.967-9.648-21.967l-14.701 1.736z" mask="url(#f)"/>
        <path fill="#F7C2B6" d="M245.367 219.571a10.376 10.376 0 0 0-2.405-4.979 1.926 1.926 0 0 0-2.593-.17c-.815-.5-1.899-.269-2.417.518a1.63 1.63 0 0 0-.216.476c-1.005 3.397-3.232 7.736-2.636 11.317.532 3.295 3.672 5.603 7.117 5.227 2.771-.128 4.91-2.394 4.777-5.061a4.448 4.448 0 0 0-.066-.585 40.845 40.845 0 0 0-1.56-6.743" mask="url(#f)"/>
        <path fill="#2AB4B5" d="M245.832 220C255.845 199.109 259 175 259 175l-15 10.336L245.832 220z" mask="url(#f)"/>
        <path fill="#2AADB7" d="M258.565 173.808l-10.618 28.895s-2.206 17.258-2.091 17.297L236 218.457l.864-20.056 7.083-29.77c1.42-4.067 4.426-10.381 7.058-9.558 2.927.902 4.141 4.406 5.946 6.917l.632.876a7.453 7.453 0 0 1 .955 6.955" mask="url(#f)"/>
        <path fill="#FFF" d="M277.93 176.383c-2.154-8.678-4.619-17.278-7.264-25.825-.697-2.278-4.245-1.31-3.535.995a512.59 512.59 0 0 1 3.277 10.982c-4 .287-8.004.431-12.013.431a3995.82 3995.82 0 0 0-3.226-11.78c-.632-2.304-4.736-3.115-4.103-.811 2.426 8.822 5.407 19.437 7.832 28.26a1.84 1.84 0 0 0 2.271 1.295c.98-.277 1.553-1.31 1.278-2.304l-3.02-10.981c3.871 0 7.613-.17 11.42-.459.194-.018.387-.066.567-.144a427.5 427.5 0 0 1 2.994 11.296c.592 2.357 4.129 1.375 3.522-.955" mask="url(#f)"/>
        <path fill="#313F5F" d="M260 127.114s-.915 23.939-6.355 23.886c-5.442-.053-16.4-5.282-15.604-13.033.798-7.75 15.354-16.94 15.382-16.967.025-.026 6.54 6.114 6.54 6.114" mask="url(#f)"/>
        <path fill="#FFD871" d="M375 33h9v-9h-9z" mask="url(#f)"/>
        <path fill="#EAF1F8" d="M552 0c4.972 0 9 4.03 9 9s-4.028 9-9 9a9 9 0 1 1 0-18" mask="url(#f)"/>
        <path fill="#E2001A" d="M556.5 47a4.5 4.5 0 1 1-.002 9.002A4.5 4.5 0 0 1 556.5 47" mask="url(#f)"/>
        <path fill="#FFF" d="M499 137a7 7 0 0 1 7 7 7 7 0 1 1-7-7M404 42h15V27h-15z" mask="url(#f)"/>
        <path fill="#8AC4D1" d="M726 111c0 17.673-14.327 32-32 32-17.673 0-32-14.327-32-32 0-17.674 14.327-32 32-32 17.673 0 32 14.326 32 32" mask="url(#f)"/>
        <path fill="#FFF" d="M723 105c0 17.673-14.327 32-32.001 32C673.327 137 659 122.673 659 105c0-17.674 14.327-32 31.999-32C708.673 73 723 87.326 723 105" mask="url(#f)"/>
        <path fill="#E2001A" d="M702.97 112.518c0-3.359-.85-4.955-2.867-4.955s-2.91 1.596-2.91 4.955c0 3.358.847 4.927 2.91 4.927 2.065 0 2.866-1.487 2.866-4.89v-.037zm-8.845 0c0-4.8 2.138-7.355 5.978-7.355 3.842 0 5.897 2.555 5.897 7.355 0 4.8-2.101 7.482-5.897 7.482-3.794 0-5.978-2.719-5.978-7.482zm2.708-20.796a29.25 29.25 0 0 1 3.354-.284L685.843 119.4a30.206 30.206 0 0 1-3.27.282l14.26-27.96zm-10.99 6.633c0-3.321-.848-4.917-2.865-4.917-2.017 0-2.91 1.56-2.91 4.917 0 3.358.847 4.965 2.91 4.965 2.064 0 2.865-1.525 2.865-4.965zm-8.843 0c0-4.8 2.184-7.355 5.978-7.355 3.796 0 5.897 2.555 5.897 7.355 0 4.801-2.101 7.483-5.897 7.483-3.794 0-5.978-2.728-5.978-7.483z" mask="url(#f)"/>
        <path fill="#EAF1F8" d="M146 272h26V5h-26z" mask="url(#f)"/>
        <path fill="#D1E5F2" d="M146 272h-11V10.102L146 5z" mask="url(#f)"/>
        <path fill="#EAF1F8" d="M57 228h46V55H57z" mask="url(#f)"/>
        <path fill="#EAF1F8" d="M11 272h124V88H11z" mask="url(#f)"/>
        <path fill="#EAF1F8" d="M39 272h40V31H39z" mask="url(#f)"/>
        <path fill="#A4C8D0" d="M157 272h5v-81h-5z" mask="url(#f)"/>
        <path fill="#7386A5" d="M157 221.812l5 5.188v-41h-5z" mask="url(#f)"/>
        <path fill="#99BEC9" d="M166.118 155.98c-4.532-12.544-18.432-19.059-31.047-14.552-12.615 4.507-19.167 18.328-14.635 30.87a24.114 24.114 0 0 0 4.075 7.145c.318.38.634.747.977 1.1a18.505 18.505 0 0 1 2.108 4.13 54.194 54.194 0 0 1 1.794 6.095 31.324 31.324 0 0 0 1.095 5.112c5.082 16.51 22.663 25.797 39.269 20.742 16.605-5.054 25.944-22.535 20.86-39.045-3.453-11.212-12.926-19.56-24.534-21.624l.038.026z" mask="url(#f)"/>
        <path fill="#A4C8D0" d="M119 272h5v-82h-5z" mask="url(#f)"/>
        <path fill="#A4C8D0" d="M124 225l-5-2.995V193h5z" mask="url(#f)"/>
        <path fill="#99BEC9" d="M95.03 168.14c.61-10.618 9.61-18.724 20.101-18.107 7.033.414 13.265 4.726 16.197 11.209 1.499 3.356 4.687 5.617 8.314 5.896h.158c6.561.616 11.717 5.947 12.186 12.598.312 4.815-4.718 9.142-8.693 11.78a10.584 10.584 0 0 0-4.692 8.614c-.177 10.599-8.81 19.045-19.28 18.867-10.473-.18-18.82-8.916-18.642-19.514.023-1.356.187-2.704.49-4.023 1.173-5.4.094-11.05-2.985-15.619a19.305 19.305 0 0 1-3.154-11.7" mask="url(#f)"/>
        <path fill="#A4C8D0" d="M95.03 168.14c.61-10.618 9.61-18.724 20.101-18.107 7.033.414 13.265 4.726 16.197 11.209 1.499 3.356 4.687 5.617 8.314 5.896h.158c6.561.616 11.717 5.947 12.186 12.598.312 4.815-4.718 9.142-8.693 11.78a10.584 10.584 0 0 0-4.692 8.614c-.177 10.599-8.81 19.045-19.28 18.867-10.473-.18-18.82-8.916-18.642-19.514.023-1.356.187-2.704.49-4.023 1.173-5.4.094-11.05-2.985-15.619a19.305 19.305 0 0 1-3.154-11.7" mask="url(#f)"/>
        <path fill="#B5D9DE" d="M44.162 146.707a40.178 40.178 0 0 0-6.057 13.973A24.195 24.195 0 0 1 32 172.05a21.246 21.246 0 0 0-2.297 2.865c-6.667 9.88-4.083 23.31 5.774 29.993a21.497 21.497 0 0 0 17.338 3.055 25.838 25.838 0 0 1 13.428.393c21.407 6.288 43.846-6.012 50.118-27.473 6.272-21.462-5.996-43.957-27.404-50.246-16.812-4.94-34.883 1.551-44.742 16.07" mask="url(#f)"/>
        <path fill="#A4C8D0" d="M68 272h13v-78.578c.003-2.82-1.2-5.523-3.338-7.501L68 177v95z" mask="url(#f)"/>
        <path stroke="#DEEDF2" stroke-dasharray="2.424,2.424" stroke-width="1.616" d="M578 326H125.208C76.49 326 37 286.464 37 237.695V202M684 142L578 326" mask="url(#f)"/>
        <path fill="#ACC6D3" d="M203 327c0 5.524-4.477 10-10 10-5.521 0-10-4.476-10-10s4.479-10 10-10c5.523 0 10 4.476 10 10" mask="url(#f)"/>
        <path fill="#A22D5E" d="M363 327c0 5.524-4.477 10-10 10-5.521 0-10-4.476-10-10s4.479-10 10-10c5.523 0 10 4.476 10 10" mask="url(#f)"/>
        <path fill="#E2001A" d="M590 327c0 5.524-4.477 10-10 10-5.521 0-10-4.476-10-10s4.479-10 10-10c5.523 0 10 4.476 10 10" mask="url(#f)"/>
        <path fill="#DEEDF2" d="M509 278h106V132h-97.63l-8.37 6.957z" mask="url(#f)"/>
        <path fill="#FFF" d="M517 267h98V132h-98z" mask="url(#f)"/>
        <path fill="#C4DEE7" d="M509 279l8.37-12H615v12z" mask="url(#f)"/>
        <path fill="#9CC3D3" d="M578.308 187.27c0-8.97-19.71-8.892-19.71 0 0 8.893 19.71 9.01 19.71 0m2.105 24.272c0-10.632-23.972-10.318-23.972 0s23.972 11.024 23.972 0M546 211.463c0-5.636 3.716-9.912 7.912-12.37-3.52-2.702-5.62-6.81-5.728-11.195 0-21.812 40.552-23.238 40.552 0-.065 4.417-2.215 8.553-5.82 11.194 4.894 2.295 8.03 7.125 8.084 12.45C591 224.148 580.093 229 568.947 229c-12.12-.026-22.947-4.93-22.947-17.537" mask="url(#f)"/>
        <path fill="#E2001A" d="M517 134h98v-26h-98z" mask="url(#f)"/>
        <path fill="#9D0D16" d="M517 134.55l-9 6.45v-25.098l9-6.902z" mask="url(#f)"/>
    </g>
</svg>
