<svg xmlns="http://www.w3.org/2000/svg" xmlns:xlink="http://www.w3.org/1999/xlink" width="160" height="37" viewBox="0 0 160 37">
    <defs>
        <path id="a" d="M.62.402h4.47V21.73H.62z"/>
        <path id="c" d="M.62.835h4.47v4.673H.62z"/>
        <path id="e" d="M.507 7.747l.294.45a2.478 2.478 0 0 0 4.15.035l3.504-5.188L5.26.594.507 7.747z"/>
        <path id="g" d="M.443.599v.003h.002c.619 3.996 3.32 7.316 6.976 8.845l3.712-3.694c-2.885-.318-5.207-2.16-5.82-5.15L.44.58l.002.019"/>
        <path id="i" d="M0 .771h160v32.202H0z"/>
    </defs>
    <g fill="none" fill-rule="evenodd">
        <g transform="translate(116.706 11.627)">
            <mask id="b" fill="#fff">
                <use xlink:href="#a"/>
            </mask>
            <path fill="#FF7268" d="M.62 21.73h4.47V2.743c0-1.293-1-2.342-2.234-2.342C1.62.402.62 1.452.62 2.744v18.985z" mask="url(#b)"/>
        </g>
        <g transform="translate(116.706 3)">
            <mask id="d" fill="#fff">
                <use xlink:href="#c"/>
            </mask>
            <path fill="#FF7268" d="M.62 3.172c0 1.289.999 2.336 2.23 2.336h.01c1.233 0 2.23-1.047 2.23-2.336 0-1.29-.997-2.337-2.23-2.337h-.01C1.62.835.62 1.881.62 3.172" mask="url(#d)"/>
        </g>
        <path d="M116.706 34.059h4.706V15.235h-4.706z"/>
        <path fill="#FF7268" d="M91.593 24.305v.003c.825 5.52 5.486 9.75 11.116 9.75 2.587 0 5.406-1.114 7.509-2.72.987-.753 1.102-2.223.26-3.142-.741-.811-1.957-.884-2.814-.202-.95.754-2.5 1.52-4.88 1.52-3.182 0-5.838-1.91-6.49-5.206l17.012-.017v-.005H91.59l.002.019"/>
        <path fill="#EC0000" d="M96.735 20.707c.803-2.873 3.211-4.65 5.84-4.65 2.944 0 5.04 1.55 5.619 4.65h-11.46zm5.913-8.964c-6.509 0-11.13 4.524-11.13 11.18 0 .408.061 1.228.073 1.363h21.715v-1.363c-.313-7.292-4.459-11.18-10.658-11.18z"/>
        <path fill="#FF7268" d="M88.587 33.175l-.965-18.342c-.081-1.534-1.32-2.733-2.82-2.733h-.034c-.937 0-1.813.476-2.34 1.268l-8.544 12.91.292.45a2.465 2.465 0 0 0 4.135.033l5.314-7.9.753 14.314h4.209z"/>
        <path fill="#EC0000" d="M65.311 5.926c0 1.289 1.023 2.336 2.285 2.336h.01c1.26 0 2.285-1.047 2.285-2.336 0-1.29-1.024-2.337-2.285-2.337h-.01c-1.262 0-2.285 1.046-2.285 2.337"/>
        <path fill="#FF7268" d="M82.53 5.926c0 1.289 1.022 2.336 2.284 2.336h.01c1.263 0 2.286-1.047 2.286-2.336 0-1.29-1.023-2.337-2.286-2.337h-.01c-1.262 0-2.285 1.046-2.285 2.337"/>
        <g transform="translate(73.412 19)">
            <mask id="f" fill="#fff">
                <use xlink:href="#e"/>
            </mask>
            <path d="M.507 7.747l.294.45a2.478 2.478 0 0 0 4.15.035l3.504-5.188L5.26.594.507 7.747z" mask="url(#f)"/>
        </g>
        <path fill="#EC0000" d="M78.118 26.411l-8.08-12.71a2.756 2.756 0 0 0-2.323-1.29c-1.474 0-2.69 1.18-2.77 2.686L64 33.117h4.129l.732-13.924 4.927 7.591a2.415 2.415 0 0 0 4.056.032l.274-.405z"/>
        <g transform="translate(90.353 23.706)">
            <mask id="h" fill="#fff">
                <use xlink:href="#g"/>
            </mask>
            <path d="M.443.599v.003h.002c.619 3.996 3.32 7.316 6.976 8.845l3.712-3.694c-2.885-.318-5.207-2.16-5.82-5.15L.44.58l.002.019" mask="url(#h)"/>
        </g>
        <g>
            <mask id="j" fill="#fff">
                <use xlink:href="#i"/>
            </mask>
            <path fill="#EC0000" d="M24.48 15.522a7.309 7.309 0 0 0-.985-3.354L18.147 2.99A7.212 7.212 0 0 1 17.3.771l-.223.385a7.28 7.28 0 0 0 0 7.34l4.278 7.344a7.284 7.284 0 0 1 0 7.343l-.224.383a7.3 7.3 0 0 0-.846-2.218l-3.916-6.723-2.501-4.29a7.328 7.328 0 0 1-.846-2.22l-.223.383a7.28 7.28 0 0 0-.013 7.32l4.29 7.365a7.287 7.287 0 0 1 0 7.344l-.222.383a7.297 7.297 0 0 0-.847-2.22l-5.347-9.178a7.278 7.278 0 0 1-.986-3.99C3.951 17.004 0 20.152 0 23.795c0 5.07 7.646 9.178 17.078 9.178 9.431 0 17.077-4.109 17.077-9.178 0-3.644-3.95-6.791-9.675-8.273" mask="url(#j)"/>
        </g>
        <path fill="#EC0000" d="M48 1h1v33h-1z"/>
    </g>
</svg>
