<svg xmlns="http://www.w3.org/2000/svg" width="522" height="535" viewBox="0 0 522 535">
    <g fill="none" fill-rule="evenodd" transform="translate(4)">
        <g fill-rule="nonzero">
            <path fill="#BADFE8" d="M280.782 92.83c5.451 3.024 7.423 9.894 4.4 15.344-3.025 5.45-9.895 7.422-15.347 4.398-5.45-3.024-7.423-9.894-4.4-15.344 3.016-5.446 9.873-7.42 15.328-4.41.007.001.014.003.019.012"/>
            <path fill="#46BBC3" d="M423.424 168.026l-15.507 6.133-6.136-15.506 15.508-6.133z"/>
        </g>
        <g fill="#D9EEF3" fill-rule="nonzero">
            <path d="M218.864 182.256h28.399v72.178h-28.4zM308.973 158.874h23.8v86.012h-23.8zM267.051 233.738h7.178V153.48l-7.178 2.629v77.628z"/>
            <path d="M298.622 182.256h18.049v62.686h-18.05zM274.237 153.48h15.269v80.258h-15.27zM250.884 174.789h19.73v70.097h-19.73z"/>
        </g>
        <g fill-rule="nonzero">
            <g fill="#D9EEF3">
                <path d="M282.16.605V.569l-.03.021zM86.944 209.388c29.02-31.197 77.927-33.044 109.227-4.113 24.543 22.678 31.65 58.53 17.614 88.81-17.678-53.975-70.043-88.938-126.84-84.697"/>
                <path d="M86.944 209.388c12.19-40.774 55.237-63.979 96.147-51.823 32.07 9.528 54.353 38.544 55.194 71.895-39.797-40.626-102.277-48.91-151.34-20.072"/>
                <path d="M86.951 209.388c-4.847-42.266 25.605-80.448 68.019-85.28 33.246-3.786 65.166 14.19 79.074 44.527-52.6-21.798-113.333-4.966-147.093 40.753"/>
                <path d="M86.944 209.388c-18.747-38.224-2.858-84.356 35.485-103.042 30.074-14.657 66.193-8.348 89.474 15.624-56.87-3.012-108.457 33.08-124.959 87.418"/>
                <path d="M.357 96.67l34.408.582c36.661.618 70.043 28.86 87.593 74.076l33.795.547 26.724 68.81-35.706-.604c-17.093-.29-32.676-13.463-40.866-34.558-1.454-3.758-4.227-6.103-7.271-6.152l-31.528-.533c-17.101-.292-32.677-13.464-40.867-34.558L.357 96.67z"/>
            </g>
            <path fill="#FFF" d="M155.689 161.707h27.8v80.498h-27.8zM133.317 177.043c-14.52 0-26.296 11.738-26.296 26.21v73.593h26.296v-99.803z"/>
            <path fill="#D9EEF3" d="M155.287 178.344h28.306v37.734h-28.306zM155.287 219.602h28.306v8.497h-28.306z"/>
            <path fill="#FFF" d="M209.918 274.679h9.595V138.03l-9.595 3.694V274.68zM178.796 274.679h9.587V167.914l-9.587 3.694z"/>
            <path fill="#88C4D5" d="M219.505 138.031h27.672v136.648h-27.672z"/>
            <path fill="#D9EEF3" d="M224.823 138.031h22.354v136.648h-22.354z"/>
            <path fill="#B8DFE8" d="M188.383 167.914h26.325v106.765h-26.325z"/>
            <path fill="#FFF" d="M131.314 181.633h29.24v93.053h-29.24z"/>
            <path fill="#88C4D5" d="M188.383 167.914l21.535 106.765h-21.535z"/>
            <path fill="#D9EEF3" d="M135.912 190.145h2.345v83.703h-2.345z"/>
            <path fill="#B8DFE8" d="M224.823 159.558l22.354-21.534h-27.672zM123.338 184.177c.513-9.322 2.88-12.228-2.695-20.675-4.134-6.238-7.62-14.686-2.587-21.62 4.177-5.763 14.356-7.368 20.037-2.878 6.936 5.464 1.925 17.307 22.112 26.11 8.077 3.517 9.018 13.727-2.694 17.471-4.847 1.55-12.154 2.778-16.794 23.027-2.966 12.952-18.377-3.744-17.4-21.414"/>
        </g>
        <g stroke="#D8EDF2" stroke-width="2.417">
            <path d="M479.98 290.963v.512M351.179 276.256c.15-.107.292-.185.442-.291M486.901 299.851c.107.15.186.292.293.434"/>
            <path stroke-dasharray="3.6411,3.6411" d="M443.105 251.119a93.292 93.292 0 0 0-6.622-8.157c-18.619-20.625-45.172-32.384-73.008-32.334-15.154 0-39.612 5.57-54.51 16.384M447.404 312.867c3.92-14.593 4.854-39.58-1.775-56.718"/>
        </g>
        <path fill="#FFF" fill-rule="nonzero" d="M326.2 266.897c.02 38.672-29.861 70.829-68.553 73.77-1.896.135-3.8.235-5.724.235-1.234 0-2.467-.036-3.7-.1-40.959-2.046-72.502-36.803-70.449-77.628 2.053-40.824 36.925-72.263 77.884-70.217 39.241 1.96 70.164 34.054 70.541 73.216v.724"/>
        <path fill="#D8EDF2" fill-rule="nonzero" d="M385.564 212.481a2.726 2.726 0 0 1-2.73 2.721 2.726 2.726 0 0 1-2.73-2.72 2.73 2.73 0 0 1 2.73-2.722 2.754 2.754 0 0 1 2.73 2.721"/>
        <path fill="#D9EEF3" fill-rule="nonzero" d="M382.508 516.624l-14.616 12.724c-9.568 8.344-24.07 7.33-32.39-2.25a23.087 23.087 0 0 1-4.77-8.817l-2.91-10.238c-2.944-10.466-12.812-17.432-23.635-16.696l-25.389 1.672c-12.655.843-23.585-8.752-24.426-21.433a23 23 0 0 1 1.925-10.859c5.155-11.617-.072-25.226-11.665-30.392a22.965 22.965 0 0 0-8.912-1.979l-7.108-.114c-19.072-.314-29.453-22.483-17.54-37.407l26.573-33.2c7.914-9.916 22.352-11.53 32.248-3.6a22.855 22.855 0 0 1 4.528 4.858l3.408 4.936c6.83 9.895 20.113 12.838 30.472 6.752l1.02-.572c10.966-6.43 25.054-2.73 31.47 8.259a23.09 23.09 0 0 1 2.175 5l15.757 52.618c2.517 8.395 9.561 14.632 18.181 16.096l18.915 3.165c19.122 3.222 25.917 27.32 11.258 40.087l-24.569 21.39z"/>
        <path fill="#FFF" fill-rule="nonzero" d="M393.083 509a240.53 240.53 0 0 1-45.426-21.697l-5.572-3.435c-.926-.507-1.86-1.207-2.757-1.821l-2.7-1.843-5.472-3.75a65.89 65.89 0 0 1-2.665-1.95l-2.693-2.035-5.393-4.063c-.898-.614-1.796-1.421-2.665-2.136l-2.607-2.157-5.216-4.32c-.869-.722-1.71-1.543-2.579-2.264l-2.579-2.264c-27.344-24.525-51.846-55.185-71.282-89.38l-3.612-6.414-.933-1.643c-.271-.564-.606-1.1-.877-1.664l-1.688-3.342c-2.202-4.378-4.581-8.699-6.562-13.255l-3.106-6.692c-.542-1.121-1.083-2.243-1.568-3.385l-1.446-3.428-2.9-6.864-1.446-3.428-1.332-3.478-2.601-6.963-1.332-3.471c-.42-1.164-.784-2.35-1.211-3.521l-2.273-7-1.147-3.534c-.364-1.186-.784-2.35-1.119-3.457-2.821-9.434-5.28-18.819-7.324-28.346 12.945 36.76 30.023 71.533 50.678 102.178 20.59 30.668 44.593 57.164 70.633 78.118l2.401 1.95c.841.635 1.618 1.292 2.458 1.935l4.91 3.678 2.486 1.829c.84.635 1.681 1.27 2.486 1.828l5.002 3.356 2.515 1.722a27.135 27.135 0 0 0 2.486 1.635l5.059 3.15 2.543 1.614c.87.528 1.674 1.085 2.515 1.535l5.151 2.836a233.634 233.634 0 0 0 41.558 17.926c27.9 8.77 55.865 11.012 82.119 6.52"/>
        <g fill-rule="nonzero">
            <path fill="#FFCD11" d="M48.17 155.354c-3.49-6.023-1.434-13.732 4.59-17.22.007-.008.014-.008.021-.015a12.863 12.863 0 0 1 5.159-1.643c6.937-.637 13.085 4.469 13.723 11.412.637 6.936-4.47 13.083-11.414 13.72a12.627 12.627 0 0 1-12.079-6.254"/>
            <path fill="#758CB2" d="M48.272 273.116l-1.81 10.935-10.937-1.809 1.81-10.935zM180.466 76.54l-1.81 10.936-10.937-1.809 1.81-10.935z"/>
        </g>
        <g fill-rule="nonzero">
            <path fill="#FFF" d="M433.178 340.82l-34.84 53.753c29.573 19.314 69.14 10.897 88.37-18.794 19.229-29.691 10.853-69.418-18.72-88.725a63.65 63.65 0 0 0-61.223-4.633l26.413 58.4z"/>
            <path fill="#ACC6D3" d="M471.502 400.524l-23.09-51.037 53.529-14.824.986 3.506c6.9 24.468-5.047 50.332-28.11 60.844l-3.315 1.511zm-12.883-46.226l16.461 36.398c16.59-9.308 25.334-28.266 21.679-46.989l-38.14 10.591z"/>
            <path fill="#D1E5F2" d="M447.12 327.9l43.868-11.61a61.66 61.66 0 0 0-2.215-4.833l-37.437 9.907-4.217 6.535zM492.159 319.311l-47.645 12.6-3.833 5.916 52.713-14.653a76.207 76.207 0 0 0-1.235-3.863zM453.976 317.316l33.228-8.788a63.692 63.692 0 0 0-2.953-4.633l-26.037 6.878-4.238 6.543zM460.578 307.131l21.806-5.766a63.42 63.42 0 0 0-3.769-4.419l-13.8 3.65-4.237 6.535zM467.158 296.975l9.107-2.416a61.97 61.97 0 0 0-4.763-4.148l-.106.028-4.238 6.536z"/>
            <path fill="#DEEDF2" d="M432.234 340.586l34.662-53.49c-29.424-19.214-68.791-10.847-87.936 18.695-19.137 29.542-10.804 69.069 18.62 88.29a63.352 63.352 0 0 0 60.925 4.619l-26.271-58.114z"/>
            <path fill="#EAF1F8" d="M432.234 340.586l34.662-53.49c-29.424-19.214-68.791-10.847-87.936 18.695-19.137 29.542-10.804 69.069 18.62 88.29a63.352 63.352 0 0 0 60.925 4.619l-26.271-58.114z"/>
        </g>
        <circle cx="422" cy="212" r="5" fill="#EAF1F8" fill-rule="nonzero"/>
        <circle cx="424.5" cy="234.5" r="2.5" fill="#E2001A" fill-rule="nonzero"/>
        <path fill="#8AC4D1" fill-rule="nonzero" d="M494 260.5c0 9.666-7.834 17.5-17.5 17.5s-17.5-7.834-17.5-17.5 7.834-17.5 17.5-17.5c9.666-.007 17.5 7.834 17.5 17.5"/>
        <path fill="#FFF" fill-rule="nonzero" d="M493 256.5c0 9.666-7.834 17.5-17.5 17.5s-17.5-7.834-17.5-17.5 7.834-17.5 17.5-17.5 17.5 7.834 17.5 17.5"/>
        <path fill="#E2001A" fill-rule="nonzero" d="M468 252.802c0-2.483 1.127-3.802 3.09-3.802 1.962 0 3.049 1.319 3.049 3.802s-1.087 3.87-3.05 3.87c-1.962 0-3.089-1.414-3.089-3.87zm4.577 0c0-1.716-.442-2.544-1.48-2.544-1.04 0-1.508.808-1.508 2.544s.441 2.57 1.507 2.57c1.067 0 1.48-.793 1.48-2.57zm5.683-3.432c.577-.08 1.155-.128 1.732-.148l-7.415 14.462c-.564.08-1.127.128-1.691.148l7.374-14.462zm-1.399 10.76c0-2.483 1.107-3.802 3.09-3.802 1.99 0 3.049 1.32 3.049 3.803 0 2.483-1.086 3.869-3.049 3.869-1.962 0-3.09-1.406-3.09-3.87zm4.57 0c0-1.736-.441-2.563-1.48-2.563-1.046 0-1.507.827-1.507 2.564 0 1.736.441 2.55 1.507 2.55 1.066 0 1.48-.767 1.48-2.53v-.02z"/>
        <path stroke="#DEEDF2" stroke-dasharray="2.4238,2.4238" stroke-width="1.616" d="M471 276l-58 101"/>
        <circle cx="414.5" cy="376.5" r="5.5" fill="#E2001A" fill-rule="nonzero"/>
        <path fill="#DEEDF2" fill-rule="nonzero" d="M376 351h58v-79h-53.42l-4.58 3.764z"/>
        <path fill="#FFF" fill-rule="nonzero" d="M381 271h53v74h-53z"/>
        <path fill="#C4DEE7" fill-rule="nonzero" d="M376 351l4.58-7H434v7z"/>
        <path fill="#9CC3D3" fill-rule="nonzero" d="M397 314.325c0-3.11 1.982-5.47 4.219-6.826a8.142 8.142 0 0 1-3.054-6.176c0-12.034 21.628-12.82 21.628 0a7.88 7.88 0 0 1-3.104 6.176c2.606 1.27 4.283 3.932 4.311 6.869 0 6.955-5.817 9.632-11.762 9.632-6.464-.014-12.238-2.72-12.238-9.675zm18.353.043c0-5.866-12.784-5.693-12.784 0s12.784 6.082 12.784 0zm-1.122-13.391c0-4.95-10.512-4.906-10.512 0s10.512 4.971 10.512 0z"/>
        <path fill="#E2001A" fill-rule="nonzero" d="M380 258h53v15h-53z"/>
        <g fill-rule="nonzero" transform="translate(259 175)">
            <path fill="#F7C2B6" d="M31.46 110.754c1.338 4.478 5.122 79.664 5.122 79.664l6.33 50.628h15.602l-2.218-37.45-.178-15.396-5.895-77.011 6.746-5.277-25.509 4.842z"/>
            <path fill="#F7C2B6" d="M47.383 118.512c1.338 4.485 12.16 79.407 12.16 79.407l6.339 50.628h15.594l-3.663-36.923-.171-15.366-.916-79.928v-2.902l-29.343 5.084z"/>
            <path fill="#768BAC" d="M32.09 113.413l2.217 40.14s47.67 11.494 45.18 0c-.186-.878-1.316-40.14-1.316-40.14H32.09z"/>
            <path fill="#284567" d="M58.306 237.509h-15.83l-16.102 5.74v1.248h32.14v-3.466zM81.19 245.124l-.122-1.155H65.181l-16.088 5.74v1.262h32.369v-3.494z"/>
            <path fill="#768BAC" d="M38.363 129.415s-2.604 5.184-5.043 6.296l-.272-4.956 1.588-3.109 3.727 1.769zM50.917 113.328s-2.146 17.327 1.967 19.588c4.793 2.653 26.074 3.13 26.074 3.13l-.787-17.513-27.254-5.205z" opacity=".6"/>
            <path fill="#3B101C" d="M58.95 8.735l23.957 41.35H51.032v-39.76z"/>
            <path fill="#3B101C" d="M26.431 21.328l19.042 50.42 12.655-3.25-11.946-46.093z"/>
            <path fill="#FFF" d="M65.152 42.492l-2.747-1.762-16.781 4.015-11.317 19.174v49.494h28.098l5.35-56.004z"/>
            <ellipse cx="39.193" cy="18.048" fill="#3B101C" rx="13.184" ry="13.142"/>
            <path fill="#C4DEE7" d="M35.788 103.766h17.855v4.236H35.788z"/>
            <path fill="#768BAC" d="M25.387 82.595l1.781-26.648a7.629 7.629 0 0 1 5.172-6.71l14.958-5.077-3.434 6.09a16.876 16.876 0 0 0-1.767 4.6L38.32 71.684a19.603 19.603 0 0 0-.458 5.326l1.03 19.916-13.505-14.332zM15.823 92.185l2.926 6.233c1.51 3.208 5.343 4.585 8.562 3.08.05-.021.1-.05.15-.071l3.627-1.811-2.933-6.418-12.332-1.013zM70.353 44.16l-4.17-4.15a1.904 1.904 0 0 0-3.12.663L51.082 71.728a16.676 16.676 0 0 0-1.11 6.417l1.324 49.252c.079 2.888 2.497 5.17 5.394 5.084h.086l24.6-1.084a4.35 4.35 0 0 0 4.07-5.227l-7.275-34.719 2.861-13.798-10.68-33.493z"/>
            <path fill="#768BAC" d="M38.892 96.927v30.605a3.618 3.618 0 0 1-4.363 3.53l-5.2-1.084a5.062 5.062 0 0 1-3.692-6.803l7.819-19.966-5.723-23.43 10.365 2.402.794 14.746z"/>
            <path fill="#D9EEF3" d="M28.005 106.504L.687 59.334h17.268l27.318 47.17z"/>
            <path fill="#324062" d="M33.356 99.708h8.019l1.73-14.46H31.633z"/>
            <path fill="#C4DEE7" d="M30.838 84.484h13.069v1.12H30.838z"/>
            <path fill="#C4DEE7" d="M32.354 83.372H42.39v1.12H32.354z"/>
            <path fill="#F7C2B6" d="M44.243 37.586l.966 3.715 2.918 11.266c2.26-.15 4.457-.791 6.438-1.875a16.564 16.564 0 0 0 2.375-1.569 16.717 16.717 0 0 0 5.336-7.943 64.049 64.049 0 0 1-6.702-21.086l-1.066 1.712-6.767 10.803-3.498 4.977z"/>
            <path fill="#F7C2B6" d="M44.129 37.215l1.08 4.086c2.56-2.025 5.858-5.705 5.436-10.96l-2.918 2.268-3.598 4.606z" opacity=".5"/>
            <path fill="#E2001A" d="M30.545 11.723l1.952 1.996 11.045-4.848 4.664 8.385 1.817 5.37 7.153 2.93c5.394-6.524 4.457-16.172-2.096-21.549-6.545-5.376-16.223-4.442-21.617 2.09a15.171 15.171 0 0 0-2.94 5.626h.022z"/>
            <path fill="#3B101C" d="M30.087 14.147c-.937 8.407 5.136 15.98 13.57 16.921 8.433.934 16.03-5.12 16.974-13.527.937-8.407-5.136-15.98-13.57-16.92-7.489-.835-14.47 3.871-16.502 11.102a15.45 15.45 0 0 0-.472 2.424z"/>
            <path fill="#F7C2B6" d="M33.492 29.136l-1.66-13.106a5.89 5.89 0 0 1 3.055-5.348c4.628-2.539 10.443-1.027 13.24 3.437v.05l.093.15 2.618 4.72.215.392 1.395 2.51.472.856.715 1.333c.43.777-.887 4.592-2.081 7.68a9.803 9.803 0 0 1-6.445 5.933l-.186.05c-3.942 1.02-7.97-1.341-8.985-5.277a7.528 7.528 0 0 1-.164-.799c-.215-1.504-.365-2.652-.394-2.702l-1.888.121z"/>
            <ellipse cx="53.374" cy="20.852" fill="#F7C2B6" rx="3.851" ry="2.468" transform="rotate(-83.679 53.374 20.852)"/>
            <path fill="#F7C2B6" d="M35.352 29.029l-1.431-8.186 2.61 5.954a1.542 1.542 0 0 1-.693 2.075 1.523 1.523 0 0 1-.522.157h.036z" opacity=".5"/>
            <path fill="#F7C2B6" d="M76.047 106.24L54.2 101.655l-2.489.492a31.99 31.99 0 0 1-7.282.578l-9.45-.357a1.118 1.118 0 0 1-1.08-1.112c0-.585.451-1.07 1.038-1.113l3.448-.264-5.96-1.112a.996.996 0 0 1-.822-.984c.007-.549.458-.998 1.009-.998h.086l-.923-.4a1.117 1.117 0 0 1 .186-2.14l2.318-.47-1.896-.527a1.136 1.136 0 0 1-.816-1.276c.072-.471.43-.842.895-.935l4.807-.998a11.6 11.6 0 0 1 3.018-.207l5.601.357 10.065 2.752 20.351 2.24s4.342 6.816-.257 11.059zM21.052 94.503l2.082-3.138a2.25 2.25 0 0 0-.222-2.76.552.552 0 0 0-.136-.12 2.12 2.12 0 0 0-.594-1.854l-.6-.614a1.86 1.86 0 0 0-.466-1.989l-.822-.777a1.347 1.347 0 0 0-.508-1.284l-.222-.17a1.335 1.335 0 0 0-1.43-.115l-2.354 1.234a4.456 4.456 0 0 0-1.996 2.224l.58-3.472a2.695 2.695 0 0 0-.787-2.375 1.112 1.112 0 0 0-1.03-.278c-.558.136-.923.67-.837 1.24l.157 1.02-.479 1.191a5.947 5.947 0 0 0-.308 3.273l.065.35c.136.72.357 1.426.658 2.096a29.192 29.192 0 0 0 5.236 7.922 4.325 4.325 0 0 0 2.082 1.27 3.427 3.427 0 0 0 3.19-.678l-1.259-2.196z"/>
            <path fill="#768BAC" d="M69.566 92.485l6.48 16.165 13.47-1.633c4.972-.599 8.52-5.105 7.919-10.061a8.742 8.742 0 0 0-.236-1.22l-10.78-40.815a11.947 11.947 0 0 0-8.126-8.372l-7.94-2.389L81.74 92.806l-12.175-.321z"/>
        </g>
        <g fill-rule="nonzero" transform="translate(52 201)">
            <path fill="#DEEDF2" d="M27.187 43.507h119.42c14.64 0 26.505 11.914 26.505 26.614 0 14.7-11.865 26.615-26.505 26.615H27.187C12.548 96.736.683 84.82.683 70.12c0-14.692 11.865-26.614 26.504-26.614z"/>
            <path fill="#DEEDF2" d="M60.087 30.664h69.455c4.88 0 8.835 3.972 8.835 8.872s-3.955 8.871-8.835 8.871H60.087c-4.88 0-8.835-3.971-8.835-8.871s3.955-8.872 8.835-8.872z"/>
            <path fill="#BD4073" d="M67.91 120.7h95.17c6.85-.014 12.392-5.593 12.378-12.471 0-2.172-.576-4.308-1.65-6.193l-20.594-35.85a41.285 41.285 0 0 0-24.25-19.15L115.5 43.057l-13.466 3.979a41.657 41.657 0 0 0-24.25 19.15l-20.6 35.857c-3.414 5.957-1.373 13.571 4.56 17a12.396 12.396 0 0 0 6.167 1.657"/>
            <path fill="#FFA58D" d="M139.99 120.7h23.154c6.85-.014 12.392-5.593 12.378-12.471 0-2.172-.576-4.308-1.65-6.193l-11.574-20.129L139.99 120.7zM67.91 120.7h26.626L70.528 78.85l-13.345 23.193c-3.414 5.957-1.373 13.571 4.56 17a12.396 12.396 0 0 0 6.167 1.657"/>
            <path fill="#FACFBD" d="M100.326 40.186l.427 4.528.732 8.079a5.56 5.56 0 0 0 .612 1.957 4.526 4.526 0 0 0 1.338 1.529 16.936 16.936 0 0 0 9.809 3 17.382 17.382 0 0 0 8.408-2.143 4.747 4.747 0 0 0 2.07-5.872c-2.319-6.121-7.07-18.721-7.07-18.721l-14.804 6.914-.732.364-.79.365z"/>
            <path fill="#FFA58D" d="M100.326 40.186l.427 4.528a14.234 14.234 0 0 0 10.172-6.178c-2.44 1.285-6.523 1.407-9.745 1.221l-.854.429z"/>
            <path fill="#FACFBD" d="M113.059 3.964l-9.262 3.607L97.46 17.73a28.532 28.532 0 0 0-4.083 11.621l-.427 3.857a5.917 5.917 0 0 0 3.045 5.993l1.522.857a13.631 13.631 0 0 0 7.74 1.593l15.052-1.593 6.274-28.328-13.523-7.765z"/>
            <path fill="#FACFBD" d="M96.79 22.75l-2.866-2.571 9.873-12.608 6.58 4.343z"/>
            <path fill="#D9EEF3" d="M59.502 120.457h127.586v4.221H59.502z"/>
            <path fill="#88C4D5" d="M76.866 120.514h80.367a2.213 2.213 0 0 0 2.134-1.714l7.917-37.564a2.161 2.161 0 0 0-2.134-2.629H84.726a2.213 2.213 0 0 0-2.134 1.714l-7.917 37.565a2.216 2.216 0 0 0 1.75 2.593c.142.028.292.042.441.035"/>
            <path fill="#D9EEF3" d="M74.305 120.514h80.367a2.213 2.213 0 0 0 2.134-1.714l7.918-37.564a2.161 2.161 0 0 0-2.134-2.629H82.23a2.213 2.213 0 0 0-2.135 1.714l-7.917 37.565a2.21 2.21 0 0 0 1.729 2.593c.128.021.263.035.398.035"/>
            <path fill="#FACFBD" d="M116.41 24.643c-.484 2.078.12 4.036 1.4 4.343 1.281.307 2.682-1.165 3.166-3.243.484-2.079-.12-4.036-1.401-4.343-1.28-.3-2.682 1.164-3.166 3.243"/>
            <path fill="#FFA58D" d="M100.689 12.657c-3.443 8.043-1.217 17.4 5.484 23.007a20.526 20.526 0 0 0 4.752 2.936c9.959 4.286 21.497-.343 25.772-10.336a17.912 17.912 0 0 0 1.401-5.143l.185-1.592c.434-8.236-4.282-15.872-11.822-19.15a19.018 19.018 0 0 0-13.587-.672 19.292 19.292 0 0 0-12.185 10.95"/>
            <path fill="#FFA58D" d="M100.326 40.186l.427 4.528.732 8.079a5.56 5.56 0 0 0 .612 1.957 4.526 4.526 0 0 0 1.338 1.529 16.936 16.936 0 0 0 9.809 3 17.382 17.382 0 0 0 8.408-2.143 4.747 4.747 0 0 0 2.07-5.872c-2.319-6.121-7.07-18.721-7.07-18.721l-14.804 6.914-.732.364-.79.365z"/>
            <path fill="#FFA58D" d="M100.325 40.184l.426 4.528a14.234 14.234 0 0 0 10.173-6.178c-2.44 1.285-6.523 1.407-9.746 1.221l-.853.429z" opacity=".5"/>
            <path fill="#FFA58D" d="M113.059 3.964l-9.262 3.607L97.46 17.73a28.532 28.532 0 0 0-4.083 11.621l-.427 3.857a5.917 5.917 0 0 0 3.045 5.993l1.522.857a13.631 13.631 0 0 0 7.74 1.593l15.052-1.593 6.274-28.328-13.523-7.765z"/>
            <path fill="#FFA58D" d="M96.79 22.75l-2.866-2.571 9.873-12.608 6.58 4.343z"/>
            <path fill="#3B101C" d="M110.925 2.314c.612-.243 1.28-.485 1.885-.735a19.728 19.728 0 0 1 13.587.671 19.534 19.534 0 0 1 9.14 8.136c.007.05.029.093.064.121.064.064.064.122.121.243 1.217 2.079 8.102 13.093 23.517 22.329 7.434 4.464 11.638 11.442 11.638 18.964a32.532 32.532 0 0 1-.242 3.428 20.9 20.9 0 0 1-10.542 15.05 13.296 13.296 0 0 1-6.516 1.715 13.508 13.508 0 0 1-11.638-6.729l-3.72-6.486c-5.847-8.871-11.573-12.235-14.198-13.4a13.212 13.212 0 0 0-2.07-.671 3.882 3.882 0 0 1-2.255-1.1c-4.204-3.364-3.23-14.071-2.134-20.743L110.86 11.43a8.717 8.717 0 0 1-7.007-4.65l-2.013-3.736a27.998 27.998 0 0 1 9.084-.729"/>
            <path fill="#FFA58D" d="M116.41 24.643c-.484 2.078.12 4.036 1.4 4.343 1.281.307 2.682-1.165 3.166-3.243.484-2.079-.12-4.036-1.401-4.343-1.28-.3-2.682 1.164-3.166 3.243"/>
            <path fill="#FFA58D" d="M95.45 21.523l5.67-6.793c-.008.007-.862 8.264-5.67 6.793" opacity=".5"/>
            <ellipse cx="37.239" cy="23.321" fill="#FC3" rx="2.44" ry="2.45"/>
            <ellipse cx="202.967" cy="75.936" fill="#4FD0D0" rx="3.656" ry="3.671"/>
            <path fill="#7B8BAF" d="M61.609 60.643h7.313v7.343h-7.313z"/>
        </g>
        <g fill-rule="nonzero" transform="translate(46 277)">
            <path fill="#F7C2B6" d="M100.68 100.009c2.86-.484 7.634-3.092 10.328-2.019 5.204 2.083 10.98 1.997 16.583 1.848 2.694-.071 5.475-.17 7.92-1.293 3.008-1.38 5.131-4.122 6.99-6.852.957-1.42 1.915-3.205 1.165-4.74-.88-1.805-3.381-1.905-5.397-1.748l-16.982 1.364c-1.937.15-3.874.306-5.797.555a18.008 18.008 0 0 0-6.497 1.798c-2.71 1.506-6.633 8.4-8.413 10.916"/>
            <path fill="#F7C2B6" d="M100.68 100.009c2.86-.484 7.634-3.092 10.328-2.019 5.204 2.083 10.98 1.997 16.583 1.848 2.694-.071 5.475-.17 7.92-1.293 3.008-1.38 5.131-4.122 6.99-6.852.957-1.42 1.915-3.205 1.165-4.74-.88-1.805-3.381-1.905-5.397-1.748l-16.982 1.364c-1.937.15-3.874.306-5.797.555a18.008 18.008 0 0 0-6.497 1.798c-2.71 1.506-6.633 8.4-8.413 10.916" opacity=".5"/>
            <path fill="#F7C2B6" d="M101.953 75.035a121.57 121.57 0 0 0 35.737-13.02c3.08-1.706 6.433-3.625 9.907-3.02 2.416.419 4.445 2.004 6.268 3.624a70.788 70.788 0 0 1 7.148 7.327c1.73 2.04 3.373 4.264 4.017 6.844.643 2.58.057 5.636-2.045 7.285-1.887 1.478-4.51 1.55-6.904 1.343-5.632-.476-11.636-1.997-16.69.526-2.544 1.272-4.524 3.454-7.011 4.84-4.346 2.437-9.635 2.174-14.624 2.132-4.99-.043-13.423 3.88-17.154 7.178"/>
            <path fill="#E2001A" stroke="#E2001A" stroke-width="1.52" d="M102.153 73.486l-.029-.327-84.655.248L.307 108.14l104.433-4.1z"/>
            <path fill="#F7C2B6" d="M162.535 84.373c-2.073.79-4.181-3.034-5.268-3.745.6 1.919 1.173 4.584 1.173 4.584l-.215 2.637-14.295-3.554s-8.27-2.132-8.691-2.53c-.422-.398.529-7.569.529-7.569s9.856-5.82 13.58-4.03c3.43 1.657 6.676 7.285 7.605 9.24.636.298 1.244.64 1.83 1.023a49.49 49.49 0 0 1 4.567 3.29c-.243.25-.522.47-.815.654z" opacity=".5"/>
            <path fill="#768BAC" d="M128.062 111.863s-2.237 2.956-6.99-.71c-4.753-3.668-2.466-6.617-2.466-6.617l48.604-57.168 4.16 3.134-43.308 61.36z"/>
            <path fill="#F7C2B6" d="M143.951 86.278a9.177 9.177 0 0 0-6.432 4.264c-.286.462-.522 1.08-.208 1.521a4.61 4.61 0 0 0-3.302 3.283 4.905 4.905 0 0 0-1.715 1.002 1.69 1.69 0 0 0-.45 1.813c.15.277.357.519.607.71a17.648 17.648 0 0 0 7.927 4.03c1.265.27 2.666.384 3.766-.284.365-.22.68-.519 1.03-.754a7.848 7.848 0 0 1 3.81-.973 7.643 7.643 0 0 0 3.795-.995c1.086-.753 1.715-2.338.965-3.426a10.983 10.983 0 0 0 6.075-3.596c.622-.71 1.15-1.777.65-2.587a2.572 2.572 0 0 0-1.758-.91l-14.66-3.219"/>
            <path fill="#F7C2B6" d="M140.228 87.7a57.438 57.438 0 0 1 11.936 2.935 17.763 17.763 0 0 0 8.427.753 1.81 1.81 0 0 0-.214-1.372c-.422-.789-4.904-3.134-4.904-3.134l-6.282-1.947-3.924.234-2.745.91s-1.322 1.13-1.394 1.13c-.307.15-.607.313-.9.49zM137.311 92.042c2.788.597 5.518 1.357 8.242 2.132l4.08 1.2 2.03.605c.673.227 1.359.398 2.06.497a9.058 9.058 0 0 1-2.145-.191 38.691 38.691 0 0 1-2.087-.434c-1.387-.313-2.76-.71-4.124-1.066a82.626 82.626 0 0 1-8.056-2.743zM134.01 95.325c2.144.967 4.166 2.047 6.218 3.113 1.022.533 2.051 1.066 3.08 1.578.515.256 1.03.504 1.558.71a4.466 4.466 0 0 0 1.644.477 2.038 2.038 0 0 1-.879 0 8.933 8.933 0 0 1-.865-.192 17.008 17.008 0 0 1-1.665-.569 34.702 34.702 0 0 1-3.166-1.478 45.128 45.128 0 0 1-5.926-3.639z" opacity=".5"/>
            <path fill="#F7C2B6" d="M132.115 71.574c.572.426 6.018 4.555 9.027 4.84 3.01.284 9.585 1.364 13.617 2.992 4.238 1.712 7.597 4.704 8.748 5.564 1.15.86 2.144 3.554.286 4.84s-7.455 1.855-11.615.284c-4.16-1.57-13.759-4.129-19.205-2.842-5.447 1.286-.858-15.678-.858-15.678z"/>
            <path fill="#768BAC" d="M210.073 58.149c-12.143 15.926-34.98 19.053-50.997 6.979-16.018-12.075-19.163-34.781-7.02-50.708 12.144-15.927 34.98-19.054 50.998-6.98h.008c16.017 12.076 19.162 34.775 7.019 50.702 0 .007-.008.007-.008.007z"/>
            <ellipse cx="181.069" cy="36.288" fill="#E8F0F4" rx="31.521" ry="31.342"/>
            <path fill="#FFF" d="M159.026 50.85a23.53 23.53 0 0 1-5.218-15.358c0-1.407.114-2.814.343-4.2a27.042 27.042 0 0 1 1.1-4.094 25.178 25.178 0 0 1 4.075-7.434 26.077 26.077 0 0 1 13.98-9.203c2.73-.661 5.54-.903 8.342-.71 2.744.205 5.432.902 7.933 2.06a31.039 31.039 0 0 0-7.948-.469c-2.58.213-5.124.74-7.576 1.564a30.17 30.17 0 0 0-6.733 3.553l-1.494 1.159c-.493.39-.936.852-1.43 1.272-.471.419-.907.867-1.315 1.35-.436.448-.85.924-1.222 1.421a24.977 24.977 0 0 0-3.752 6.51 30.258 30.258 0 0 0-1.187 3.596 31.704 31.704 0 0 0-.614 3.76 28.611 28.611 0 0 0 2.716 15.223z" opacity=".75"/>
        </g>
    </g>
</svg>
