<svg xmlns="http://www.w3.org/2000/svg" xmlns:xlink="http://www.w3.org/1999/xlink" width="24" height="24" viewBox="0 0 24 24">
    <defs>
        <path id="a" d="M8.318 16.102l-1.896 5.314 3.328-1.855a.5.5 0 0 1 .634.124l1.618 2.019 1.64-2.02a.5.5 0 0 1 .632-.122l3.315 1.85-1.906-5.31a7.966 7.966 0 0 1-3.683.896 7.966 7.966 0 0 1-3.682-.896zm-.874-.527a8 8 0 1 1 9.112 0l2.425 6.756a.5.5 0 0 1-.714.606l-4.114-2.297-1.765 2.175a.5.5 0 0 1-.778-.002L9.868 20.64l-4.12 2.296a.5.5 0 0 1-.714-.605l2.41-6.757zm4.556.423a7 7 0 1 0 0-14 7 7 0 0 0 0 14zm0-1.5a5.5 5.5 0 1 1 0-11 5.5 5.5 0 0 1 0 11zm0-1a4.5 4.5 0 1 0 0-9 4.5 4.5 0 0 0 0 9z"/>
    </defs>
    <use fill="#222" fill-rule="nonzero" xlink:href="#a"/>
</svg>
