<svg xmlns="http://www.w3.org/2000/svg" xmlns:xlink="http://www.w3.org/1999/xlink" width="24" height="24" viewBox="0 0 24 24">
    <defs>
        <path id="a" d="M11.5 15.958a3.61 3.61 0 0 1-.474-.139 4.4 4.4 0 0 1-.413-.173.5.5 0 1 1 .44-.898 3.454 3.454 0 0 0 .618.223c.087.02.16.03.213.03.548 0 .783-.169.783-.468 0-.12-.097-.238-.326-.366-.117-.066-.503-.23-.505-.232.046.024-.4-.167-.59-.272-.537-.293-.878-.666-.878-1.202 0-.713.496-1.238 1.132-1.405V10.5a.5.5 0 1 1 1 0v.561c.16.037.309.088.446.153.153.071.257.14.356.218a.5.5 0 0 1-.618.786.77.77 0 0 0-.163-.1 1.36 1.36 0 0 0-.584-.118c-.32 0-.57.2-.57.46 0 .07.111.19.359.326.138.076.562.257.559.256-.043-.022.37.155.545.253.51.286.837.679.837 1.238 0 .738-.46 1.226-1.167 1.398v.57a.5.5 0 1 1-1 0v-.543zM12 3.025L3 5.86v2.137h18V5.86l-9-2.835zm10 2.469v3.003a.5.5 0 0 1-.5.5h-19a.5.5 0 0 1-.5-.5V5.494a.5.5 0 0 1 .35-.477l9.5-2.993a.5.5 0 0 1 .3 0l9.5 2.993a.5.5 0 0 1 .35.477zM3 19.004v1.998h18v-1.997H3zm-.5-1h19a.5.5 0 0 1 .5.5v2.998a.5.5 0 0 1-.5.5h-19a.5.5 0 0 1-.5-.5v-2.997a.5.5 0 0 1 .5-.5zM5 10.499a.5.5 0 0 1 1 0v6a.5.5 0 1 1-1 0v-6zm13.01 0a.5.5 0 0 1 1 0v6a.5.5 0 1 1-1 0v-6z"/>
    </defs>
    <use fill="#222" fill-rule="nonzero" xlink:href="#a"/>
</svg>
