<svg xmlns="http://www.w3.org/2000/svg" xmlns:xlink="http://www.w3.org/1999/xlink" width="24" height="24" viewBox="0 0 24 24">
    <defs>
        <path id="a" d="M21.677 13.81a2.222 2.222 0 0 1-.917 3.143l-4.673 2.22-2.008.938a.503.503 0 0 1-.077.047l-1.974.977c-.025.014-.647.378-.826.471-.515.268-.973.395-1.645.387L3.42 20.829c-.748 0-1.42-.74-1.42-1.57v-2.047c0-.869.71-1.57 1.585-1.57a4.954 4.954 0 0 0 2.859-.905c1.087-.769 1.863-1.066 3.006-1.066h2.925c.925 0 1.717.549 2.067 1.332l4.218-2.001c1.072-.543 2.403-.203 3.017.807zm-2.577.09l-4.47 2.12-.002.03c-.077 1.18-1.108 2.085-2.314 2.085H9.561a.5.5 0 1 1 0-1h2.753c.693 0 1.274-.51 1.316-1.15a1.243 1.243 0 0 0-1.255-1.314H9.45c-.913 0-1.498.224-2.43.882a5.954 5.954 0 0 1-3.435 1.09.577.577 0 0 0-.586.569v2.048c0 .296.248.57.513.578L9.65 21c.407 0 .71-.084 1.091-.282.154-.08.753-.43.82-.468l1.407-.697a.5.5 0 0 1 .128-.086l2.565-1.2 4.66-2.212a1.22 1.22 0 0 0 .502-1.728c-.336-.552-1.094-.746-1.722-.428zM12 2.046a.5.5 0 0 1 .5.5l.002.94c.197.03.379.075.544.131.206.071.353.148.442.21a.5.5 0 1 1-.574.819.997.997 0 0 0-.193-.083 2.488 2.488 0 0 0-.806-.12c-.524 0-.943.324-.943.753 0 .156.187.353.568.554.196.104.77.341.76.336-.05-.024.503.205.728.326.643.348 1.047.818 1.047 1.485 0 .93-.62 1.524-1.574 1.704v.9a.5.5 0 0 1-1 0v-.87a3.226 3.226 0 0 1-.206-.04 5.87 5.87 0 0 1-1.084-.378.5.5 0 1 1 .429-.903 4.924 4.924 0 0 0 .874.306c.13.029.242.044.33.044.827 0 1.23-.28 1.23-.763 0-.218-.168-.413-.522-.605a12.059 12.059 0 0 0-.689-.306c.054.026-.542-.22-.791-.352-.676-.358-1.1-.804-1.1-1.438 0-.902.68-1.551 1.527-1.713l.001-.937a.5.5 0 0 1 .5-.5z"/>
    </defs>
    <use fill="#222" fill-rule="nonzero" xlink:href="#a"/>
</svg>
