<svg xmlns="http://www.w3.org/2000/svg" xmlns:xlink="http://www.w3.org/1999/xlink" width="24" height="24" viewBox="0 0 24 24">
    <defs>
        <path id="a" d="M21.677 13.81a2.222 2.222 0 0 1-.916 3.143l-4.674 2.22-2.01.94a.503.503 0 0 1-.074.045l-1.975.977c-.024.014-.646.378-.826.471-.515.268-.973.395-1.645.387L3.42 20.829c-.747 0-1.42-.74-1.42-1.57v-2.047c0-.869.711-1.57 1.585-1.57a4.954 4.954 0 0 0 2.859-.905c1.087-.769 1.863-1.066 3.007-1.066h2.924c.926 0 1.718.55 2.067 1.333l4.218-2.002c1.072-.543 2.404-.203 3.017.807zm-2.577.09l-4.47 2.12-.002.03c-.077 1.18-1.107 2.085-2.313 2.085H9.562a.5.5 0 1 1 0-1h2.753c.692 0 1.274-.51 1.315-1.15a1.243 1.243 0 0 0-1.255-1.314H9.451c-.914 0-1.498.224-2.43.882a5.954 5.954 0 0 1-3.436 1.09.577.577 0 0 0-.585.569v2.048c0 .296.248.57.512.578L9.65 21c.406 0 .71-.084 1.09-.282.154-.08.753-.43.821-.468l1.407-.697a.5.5 0 0 1 .128-.086l2.565-1.2 4.66-2.212a1.22 1.22 0 0 0 .501-1.728c-.335-.552-1.094-.746-1.722-.428zM11.502 12H9.5a.5.5 0 0 1-.5-.5V7h-.51A.5.5 0 0 1 8 6.402l.63-3.164c.14-.71.786-1.213 1.527-1.213h6.686c.741 0 1.386.504 1.527 1.213L19 6.402a.5.5 0 0 1-.49.598H18v4.5a.5.5 0 0 1-.5.5h-5.998zM17 7h-7v4h1l.002-3a.5.5 0 0 1 .5-.5H14a.5.5 0 0 1 .5.5v3H17V7zm-3.5 1.5h-1.498L12 11H13.5V8.5zm3.343-5.475h-6.686c-.274 0-.5.177-.546.408L9.1 6h8.8l-.51-2.567c-.047-.231-.273-.408-.547-.408z"/>
    </defs>
    <use fill="#222" fill-rule="nonzero" xlink:href="#a"/>
</svg>
