<svg xmlns="http://www.w3.org/2000/svg" xmlns:xlink="http://www.w3.org/1999/xlink" width="24" height="24" viewBox="0 0 24 24">
    <defs>
        <path id="a" d="M13.499 11.89a4.263 4.263 0 0 1-.592-.171 5.223 5.223 0 0 1-.491-.208.5.5 0 0 1 .442-.897 4.277 4.277 0 0 0 .772.28c.112.027.208.04.28.04.718 0 1.057-.245 1.057-.679 0-.194-.143-.366-.45-.539a10.87 10.87 0 0 0-.617-.284c.05.025-.487-.205-.713-.33-.619-.34-1.008-.766-1.008-1.368 0-.82.58-1.426 1.32-1.61V5.5a.5.5 0 1 1 1 0v.604c.187.029.359.072.515.128.19.068.327.142.412.203a.5.5 0 0 1-.59.808.864.864 0 0 0-.158-.07 2.095 2.095 0 0 0-.703-.107c-.442 0-.796.284-.796.668 0 .136.159.31.49.492.173.096.688.316.681.313-.047-.024.451.19.656.305.59.331.96.78.96 1.411 0 .887-.579 1.457-1.467 1.626v.619a.5.5 0 1 1-1 0v-.61zM6.495 22a.51.51 0 0 1-.006 0H4.5A2.5 2.5 0 0 1 2 19.5v-5.998a.5.5 0 0 1 .5-.5H6V4.5A2.5 2.5 0 0 1 8.5 2h11A2.5 2.5 0 0 1 22 4.5v15a2.5 2.5 0 0 1-2.5 2.5h-13a.51.51 0 0 1-.005 0zM6 21v-6.998H3V19.5A1.5 1.5 0 0 0 4.5 21H6zm13.5 0a1.5 1.5 0 0 0 1.5-1.5v-15A1.5 1.5 0 0 0 19.5 3h-11A1.5 1.5 0 0 0 7 4.5V21h12.5zm-10-4.98a.5.5 0 1 1 0-1h9a.5.5 0 1 1 0 1h-9zm0 2.981a.5.5 0 1 1 0-1h9a.5.5 0 0 1 0 1h-9z"/>
    </defs>
    <use fill="#222" fill-rule="nonzero" xlink:href="#a"/>
</svg>
