<svg xmlns="http://www.w3.org/2000/svg" xmlns:xlink="http://www.w3.org/1999/xlink" width="24" height="24" viewBox="0 0 24 24">
    <defs>
        <path id="a" d="M3.5 4h17A2.5 2.5 0 0 1 23 6.5v11a2.5 2.5 0 0 1-2.5 2.5h-17A2.5 2.5 0 0 1 1 17.5v-11A2.5 2.5 0 0 1 3.5 4zm0 1A1.5 1.5 0 0 0 2 6.5v11A1.5 1.5 0 0 0 3.5 19h17a1.5 1.5 0 0 0 1.5-1.5v-11A1.5 1.5 0 0 0 20.5 5h-17zm2.509 9.5a.5.5 0 1 1-1 0v-6a.5.5 0 0 1 1 0v6zm4.332-1a.5.5 0 0 1-1 0v-5a.5.5 0 1 1 1 0v5zm4.332 0a.5.5 0 1 1-1 0v-5a.5.5 0 1 1 1 0v5zm4.332 1a.5.5 0 0 1-1 0v-6a.5.5 0 1 1 1 0v6z"/>
    </defs>
    <use fill="#222" fill-rule="nonzero" xlink:href="#a"/>
</svg>
