<svg xmlns="http://www.w3.org/2000/svg" xmlns:xlink="http://www.w3.org/1999/xlink" width="24" height="24" viewBox="0 0 24 24">
    <defs>
        <path id="a" d="M17.627 2.004c.49 0 .92.355.87.856l-1.442 14.387c-.045.453-.474.757-.93.757H15.5v3.5a.5.5 0 0 1-.5.5H9a.5.5 0 0 1-.5-.5v-3.5h-.618c-.456 0-.885-.304-.93-.757L5.504 2.86c-.05-.502.38-.857.869-.857h11.254zm-3.127 16h-5v3h5v-3zm2.977-15H6.523l1.41 14h8.142l1.402-14zM13.543 10l.404-4h-3.895l.396 4h3.095zm-.043 4a.5.5 0 1 1 0 1h-3a.5.5 0 1 1 0-1h3zm1-9a.5.5 0 0 1 .498.55l-.505 5a.5.5 0 0 1-.498.45h-4a.5.5 0 0 1-.497-.45l-.496-5A.5.5 0 0 1 9.5 5h5z"/>
    </defs>
    <use fill="#222" fill-rule="nonzero" xlink:href="#a"/>
</svg>
