<svg xmlns="http://www.w3.org/2000/svg" xmlns:xlink="http://www.w3.org/1999/xlink" width="24" height="24" viewBox="0 0 24 24">
    <defs>
        <path id="a" d="M6.067 17.77L3.627 21h17.875a.5.5 0 1 1 0 1h-19a.5.5 0 0 1-.5-.5v-19a.5.5 0 0 1 1 0v17.668l2.323-3.075a2 2 0 0 1 3.464-1.988l4.216-.957a2 2 0 0 1 2.573-2.063l2.258-5.458a2 2 0 1 1 .933.36l-2.327 5.627a2 2 0 1 1-3.113 2.486L9 16.082a2 2 0 0 1-2.932 1.687zM7 17a1 1 0 1 0 0-2 1 1 0 0 0 0 2zm8-2a1 1 0 1 0 0-2 1 1 0 0 0 0 2zm4-9a1 1 0 1 0 0-2 1 1 0 0 0 0 2z"/>
    </defs>
    <use fill="#222" fill-rule="nonzero" xlink:href="#a"/>
</svg>
