<svg xmlns="http://www.w3.org/2000/svg" xmlns:xlink="http://www.w3.org/1999/xlink" width="24" height="24" viewBox="0 0 24 24">
    <defs>
        <path id="a" d="M6.413 17.168l-4.597 3.721a.5.5 0 0 1-.629-.777l4.357-3.528c-.42-.301-.84-.628-1.256-.979a21.381 21.381 0 0 1-2.97-3.069 9.366 9.366 0 0 1-.226-.299.5.5 0 0 1 .002-.583 18.286 18.286 0 0 1 .857-1.046 21.227 21.227 0 0 1 2.34-2.27c4.382-3.633 9.037-4.629 13.563-1.72l4.332-3.507a.5.5 0 0 1 .63.777l-4.11 3.327c1.419 1.071 2.822 2.538 4.197 4.438a.502.502 0 0 1 0 .588c-5.319 7.468-11.06 8.336-16.49 4.927zm10.619-9.884C12.986 4.85 8.893 5.822 4.929 9.108a20.235 20.235 0 0 0-2.8 2.842 20.39 20.39 0 0 0 2.804 2.891c.47.397.944.76 1.419 1.09l2.64-2.139a3.5 3.5 0 0 1 5.386-4.36l2.654-2.148zm.873.58l-2.897 2.345a3.5 3.5 0 0 1-5.385 4.36L7.237 16.5c4.845 2.892 9.828 2.032 14.644-4.551-1.315-1.77-2.642-3.118-3.976-4.086zm-7.493 6.066a2.5 2.5 0 0 0 3.807-3.082l-3.807 3.082zm-.63-.776l3.808-3.084a2.5 2.5 0 0 0-3.809 3.084z"/>
    </defs>
    <use fill="#222" fill-rule="nonzero" xlink:href="#a"/>
</svg>
