<svg xmlns="http://www.w3.org/2000/svg" xmlns:xlink="http://www.w3.org/1999/xlink" width="24" height="24" viewBox="0 0 24 24">
    <defs>
        <path id="a" d="M17.5 2A2.5 2.5 0 0 1 20 4.5v13a2.5 2.5 0 0 1-2.042 2.458A2.5 2.5 0 0 1 15.5 22h-9A2.5 2.5 0 0 1 4 19.5v-13a2.5 2.5 0 0 1 2.042-2.458A2.5 2.5 0 0 1 8.5 2h9zm-2 3h-9A1.5 1.5 0 0 0 5 6.5v13A1.5 1.5 0 0 0 6.5 21h9a1.5 1.5 0 0 0 1.5-1.5v-13A1.5 1.5 0 0 0 15.5 5zm2-2h-9a1.5 1.5 0 0 0-1.415 1H15.5A2.5 2.5 0 0 1 18 6.5v12.414a1.5 1.5 0 0 0 1-1.414v-13A1.5 1.5 0 0 0 17.5 3zm-6.553 6a.5.5 0 0 1 .5.5l.002.605c.186.028.357.071.513.127.19.068.327.142.412.203a.5.5 0 0 1-.589.809.864.864 0 0 0-.159-.07 2.095 2.095 0 0 0-.703-.108c-.442 0-.796.284-.796.669 0 .135.16.31.49.491.173.096.688.316.682.313-.048-.024.45.19.656.305.589.332.96.78.96 1.411 0 .887-.579 1.456-1.467 1.626l-.001.62a.5.5 0 0 1-1 0l.001-.611a4.263 4.263 0 0 1-.594-.172 5.223 5.223 0 0 1-.49-.207.5.5 0 1 1 .442-.897 4.277 4.277 0 0 0 .772.28c.112.027.208.04.281.04.717 0 1.056-.244 1.056-.679 0-.194-.143-.366-.45-.539a10.87 10.87 0 0 0-.617-.284c.05.025-.486-.205-.713-.33-.618-.34-1.008-.766-1.008-1.367 0-.821.58-1.427 1.32-1.61V9.5a.5.5 0 0 1 .5-.5z"/>
    </defs>
    <use fill="#222" fill-rule="nonzero" xlink:href="#a"/>
</svg>
