<svg xmlns="http://www.w3.org/2000/svg" xmlns:xlink="http://www.w3.org/1999/xlink" width="24" height="24" viewBox="0 0 24 24">
    <defs>
        <path id="a" d="M22.905 12.242c-6.02 8.45-12.578 8.45-18.616 3.364a21.381 21.381 0 0 1-2.97-3.07 9.366 9.366 0 0 1-.226-.298.5.5 0 0 1 .002-.584 18.286 18.286 0 0 1 .857-1.046 21.227 21.227 0 0 1 2.34-2.27c6.037-5.004 12.591-5.004 18.613 3.315a.502.502 0 0 1 0 .589zM4.93 9.108a20.235 20.235 0 0 0-2.8 2.842 20.39 20.39 0 0 0 2.804 2.891c5.557 4.682 11.366 4.74 16.948-2.891C16.302 4.442 10.489 4.5 4.93 9.108zM12 15.5a3.5 3.5 0 1 1 0-7 3.5 3.5 0 0 1 0 7zm0-1a2.5 2.5 0 1 0 0-5 2.5 2.5 0 0 0 0 5z"/>
    </defs>
    <use fill="#222" fill-rule="nonzero" xlink:href="#a"/>
</svg>
