<svg xmlns="http://www.w3.org/2000/svg" xmlns:xlink="http://www.w3.org/1999/xlink" width="24" height="24" viewBox="0 0 24 24">
    <defs>
        <path id="a" d="M11.981 14.651a4.003 4.003 0 0 1-.501-.146 4.877 4.877 0 0 1-.453-.187.5.5 0 1 1 .434-.9 3.932 3.932 0 0 0 .7.249c.1.023.186.034.25.034.638 0 .926-.203.926-.557 0-.148-.12-.29-.387-.437-.135-.074-.565-.254-.565-.255a8.568 8.568 0 0 1-.653-.295c-.581-.313-.95-.707-.95-1.274 0-.75.525-1.303 1.2-1.485v-.692a.5.5 0 0 1 1 0v.667c.162.025.313.063.45.112.179.062.307.13.387.187a.5.5 0 0 1-.581.814.811.811 0 0 0-.135-.057 1.921 1.921 0 0 0-.633-.095c-.385 0-.688.238-.688.549 0 .094.135.238.424.393.156.085.626.282.623.28-.046-.023.412.17.603.275.553.305.905.72.905 1.313 0 .818-.537 1.343-1.356 1.504v.65a.5.5 0 1 1-1 0v-.647zm-6.896 1.351v-2h-.583a.5.5 0 1 1 0-1h.583v-2h-.583a.5.5 0 1 1 0-1h.583v-2h-.583a.5.5 0 1 1 0-1h.583V3.596a1.5 1.5 0 0 1 1.5-1.5h11.913a1.5 1.5 0 0 1 1.5 1.5v16.808a1.5 1.5 0 0 1-1.5 1.5H6.585a1.5 1.5 0 0 1-1.5-1.5v-3.402h-.583a.5.5 0 1 1 0-1h.583zm1 0h.417a.5.5 0 0 1 0 1h-.417v3.402a.5.5 0 0 0 .5.5h11.913a.5.5 0 0 0 .5-.5V3.596a.5.5 0 0 0-.5-.5H6.585a.5.5 0 0 0-.5.5v3.406h.417a.5.5 0 0 1 0 1h-.417v2h.417a.5.5 0 1 1 0 1h-.417v2h.417a.5.5 0 1 1 0 1h-.417v2z"/>
    </defs>
    <use fill="#222" fill-rule="nonzero" xlink:href="#a"/>
</svg>
