<svg xmlns="http://www.w3.org/2000/svg" xmlns:xlink="http://www.w3.org/1999/xlink" width="24" height="24" viewBox="0 0 24 24">
    <defs>
        <path id="a" d="M14.127 15.569a.5.5 0 0 0-.48-.36h-3.294a.5.5 0 0 0-.48.36l-1.599 5.43h7.451l-1.598-5.43zm-10.723 6.43a1.405 1.405 0 0 1-1.35-1.796l1.05-3.621c.175-.601.725-1.014 1.35-1.014h2.417c.625 0 1.175.413 1.35 1.014l.155.532.538-1.828a1.5 1.5 0 0 1 1.439-1.076h3.294a1.5 1.5 0 0 1 1.439 1.076l.538 1.828.155-.532c.174-.601.724-1.014 1.35-1.014h2.416c.626 0 1.176.413 1.35 1.014l1.05 3.62A1.405 1.405 0 0 1 20.595 22H3.405zm16.141-5.431H17.13c-.18 0-.34.119-.39.292l-.591 2.035.62 2.104h3.828a.405.405 0 0 0 .39-.518l-1.052-3.62a.405.405 0 0 0-.389-.293zm-12.674 0H4.454c-.18 0-.339.119-.389.292l-1.05 3.621a.405.405 0 0 0 .389.519H7.23l.62-2.104-.59-2.036a.405.405 0 0 0-.39-.292zM12 7.42a2.763 2.763 0 1 1 0 5.527 2.763 2.763 0 0 1 0-5.527zm0 1a1.763 1.763 0 1 0 0 3.527 1.763 1.763 0 0 0 0-3.527zm-6.337 1.62a2.31 2.31 0 1 1 0 4.62 2.31 2.31 0 0 1 0-4.62zm0 1a1.31 1.31 0 1 0 0 2.62 1.31 1.31 0 0 0 0-2.62zm12.674-1a2.31 2.31 0 1 1 0 4.62 2.31 2.31 0 0 1 0-4.62zm0 1a1.31 1.31 0 1 0 0 2.62 1.31 1.31 0 0 0 0-2.62zM11.999 2a8.003 8.003 0 0 1 7.713 5.868.5.5 0 0 1-.964.266 7.003 7.003 0 0 0-13.498.001.5.5 0 1 1-.964-.266A8.003 8.003 0 0 1 12 2z"/>
    </defs>
    <use fill="#222" fill-rule="nonzero" xlink:href="#a"/>
</svg>
