<svg xmlns="http://www.w3.org/2000/svg" width="23" height="23" viewBox="0 0 23 23">
    <g fill="none" fill-rule="evenodd" stroke="#C00" stroke-linecap="round" stroke-linejoin="round">
        <path d="M13.49 12.446s-1.033-.626-2.167-.626c-1.06 0-2 .551-2 1.468 0 2.162 4.473 1.87 4.473 3.835 0 1.04-.922 1.58-2.347 1.58-1.565 0-2.246-.706-2.246-.706M11.473 11.82v-1.258M11.473 19.97v-1.26"/>
        <path d="M2.716 3.513c-.882 0-1.597.715-1.597 1.597v15.168c0 .882.715 1.597 1.597 1.597h17.558c.88 0 1.596-.715 1.596-1.597V5.11c0-.882-.715-1.597-1.596-1.597H2.716zM18.21 1.111V6M4.79 1.111V6M1.111 8.443H21.89"/>
    </g>
</svg>
