<svg xmlns="http://www.w3.org/2000/svg" width="32" height="29" viewBox="0 0 32 29">
    <g fill="none" fill-rule="evenodd" stroke="#C00" stroke-linecap="round" stroke-linejoin="round">
        <path d="M31.253 27.538c-4.535-1.095-9.731-1.715-15.253-1.715-5.465 0-10.612.608-15.111 1.681M10.75 25.822V18.71h10.645v7.11M4.516 13.812v12.01M27.627 25.822v-12.01M13.19 10.928a2.884 2.884 0 0 1-5.768 0M24.72 10.928a2.884 2.884 0 0 1-5.767 0"/>
        <path d="M24.72 10.928a2.884 2.884 0 0 0 2.884 2.883c1.593 0 3.113-1.308 2.883-2.883-.21-1.44-1.655-7.357-1.655-7.357C28.091 1.715 26.294.89 24.295.89H7.847c-1.998 0-3.795.826-4.538 2.682 0 0-1.444 5.917-1.655 7.357-.23 1.575 1.292 2.883 2.883 2.883a2.885 2.885 0 0 0 2.886-2.883M24.72 1.159v10.02M18.956 10.928a2.884 2.884 0 0 1-5.767 0M18.956 1.159v10.02M7.422.908v10.02M13.19.908v10.02"/>
    </g>
</svg>
