<svg xmlns="http://www.w3.org/2000/svg" width="44" height="44" viewBox="0 0 44 44">
    <g fill="none" fill-rule="evenodd" stroke="#000" stroke-linecap="round" stroke-linejoin="round" stroke-width="2">
        <path d="M25.982 23.892s-2.068-1.252-4.337-1.252c-2.119 0-3.999 1.103-3.999 2.936 0 4.324 8.947 3.74 8.947 7.67 0 2.079-1.846 3.16-4.696 3.16-3.129 0-4.49-1.411-4.49-1.411M21.946 22.641v-2.518M21.946 38.938v-2.517"/>
        <path d="M4.433 6.025A3.194 3.194 0 0 0 1.238 9.22v30.336a3.194 3.194 0 0 0 3.195 3.195h35.114a3.194 3.194 0 0 0 3.193-3.195V9.22a3.194 3.194 0 0 0-3.193-3.195H4.433zM35.42 1.222v9.776M8.58 1.222v9.776M1.222 15.885h41.556"/>
    </g>
</svg>
