<svg xmlns="http://www.w3.org/2000/svg" xmlns:xlink="http://www.w3.org/1999/xlink" width="168" height="168" viewBox="0 0 168 168">
    <defs>
        <path id="a" d="M0 .354h150.93V69.53H0z"/>
        <path id="c" d="M.038.012h9.96v25.304H.038z"/>
        <path id="e" d="M.057 43.982h60.37V.036H.057z"/>
    </defs>
    <g fill="none" fill-rule="evenodd">
        <g transform="translate(6.139 87.706)">
            <mask id="b" fill="#fff">
                <use xlink:href="#a"/>
            </mask>
            <path fill="#D8EBF1" d="M83.34 69.408l-59.639-3.285C6.93 65.199-1.479 46.639 9.678 35.164c28.152-27.738 73.126-.815 76.336-3.444C108.484 13.323 70.948-1.194 101.467.486l32.678 1.8c16.238.895 26.31 17.052 18.939 30.383-13.262 23.985-40.528 38.348-69.744 36.739" mask="url(#b)"/>
        </g>
        <path fill="#FFF" d="M92.385 115.385l20.391 4.052c9.188 1.825 25.292-3.015 37.697-10.17 9.666-5.574 14.53-17.377 11.86-28.679l-4.514-2.484c-.991-.42-3.262-.345-4.257.065l-42.251 17.403c-8.59 3.612-15.421 10.764-18.926 19.813"/>
        <path fill="#D9EEF3" d="M84 101.294h10.78V72.882H84zM117.54 97.588h8.385V64.235h-8.385zM101.968 92.647h2.396V61.765l-2.396 1.013z"/>
        <path fill="#D9EEF3" d="M113.947 97.588h5.989V72.882h-5.99zM104.364 92.647h5.989V61.765h-5.99zM95.979 97.588h7.187V70.412h-7.187zM107.963 2.478v-.015l-.012.008zM36.086 83.59c10.638-11.984 28.566-12.692 40.04-1.582 8.998 8.711 11.604 22.48 6.457 34.11-6.48-20.728-25.676-34.156-46.497-32.529"/>
        <path fill="#D9EEF3" d="M36.086 83.492C40.524 67.4 56.197 58.244 71.092 63.039c11.678 3.76 19.79 15.212 20.095 28.373C76.7 75.38 53.95 72.11 36.086 83.492"/>
        <path fill="#D9EEF3" d="M36.27 84c-1.769-16.435 9.353-31.28 24.841-33.158 12.143-1.472 23.8 5.516 28.878 17.312C70.781 59.68 48.602 66.223 36.271 84"/>
        <path fill="#D9EEF3" d="M4.941 46.941l12.421.225c13.233.24 25.283 11.14 31.618 28.592l12.198.21 9.646 26.561-12.888-.233c-6.17-.112-11.795-5.197-14.75-13.34-.525-1.45-1.526-2.355-2.625-2.375l-11.38-.206c-6.173-.112-11.796-5.197-14.752-13.34L4.94 46.94z"/>
        <path fill="#FFF" d="M62.439 96.353h9.582V65.47H62.44z"/>
        <g transform="translate(43.235 53.118)">
            <g transform="translate(2.322 18.666)">
                <mask id="d" fill="#fff">
                    <use xlink:href="#c"/>
                </mask>
                <path fill="#FFF" d="M9.998.012C4.497.012.038 4.57.038 10.19v28.579h9.96V.012z" mask="url(#d)"/>
            </g>
            <mask id="f" fill="#fff">
                <use xlink:href="#e"/>
            </mask>
            <path fill="#D9EEF3" d="M20.64 33.836H31.36V19.182H20.64zM20.64 38.505H31.36v-3.3H20.64z" mask="url(#f)"/>
            <path fill="#FFF" d="M41.334 56.593h3.633V3.527l-3.633 1.435zM29.547 56.593h3.63v-41.46l-3.63 1.435z" mask="url(#f)"/>
            <path fill="#88C4D5" d="M44.967 56.593h10.482V3.527H44.967z" mask="url(#f)"/>
            <path fill="#D9EEF3" d="M46.98 56.593h8.469V3.527H46.98z" mask="url(#f)"/>
            <path fill="#B8DFE8" d="M33.178 56.593h9.972v-41.46h-9.972z" mask="url(#f)"/>
            <path fill="#FFF" d="M11.559 56.595h11.075V20.46H11.559z" mask="url(#f)"/>
            <path fill="#88C4D5" d="M33.178 15.133l8.156 41.46h-8.156z" mask="url(#f)"/>
            <path fill="#D9EEF3" d="M13.302 56.27h.89V23.764h-.89z" mask="url(#f)"/>
            <path fill="#B8DFE8" d="M46.98 11.889l8.469-8.363H44.967zM8.54 21.448c.195-3.62 1.091-4.749-1.02-8.028-1.565-2.424-2.886-5.702-.979-8.397C8.125 2.786 11.98 2.16 14.13 3.906c2.628 2.123.728 6.722 8.376 10.139 3.06 1.366 3.415 5.33-1.02 6.785-1.835.6-4.603 1.078-6.362 8.942-1.124 5.03-6.96-1.454-6.59-8.317" mask="url(#f)"/>
        </g>
        <g>
            <path fill="#D8EDF2" d="M149.905 85.349c0 .583-.458 1.056-1.023 1.056s-1.023-.473-1.023-1.056c0-.583.458-1.056 1.023-1.056.562.008 1.015.476 1.023 1.056"/>
            <path fill="#FFF" d="M92.42 133.193l24.946-15.937-37.372-7.152z"/>
            <path fill="#46749A" d="M94.175 34.549c.713.105 3.767.21 4.786-.21 1.018-.42 4.378-2.838 4.378-2.838s4.072-2.312 4.377.63c.306 2.943-.808 3.919-.706 4.76.052.43.97.894 1.686.942.723.05 1.722-.24 1.722-.988v-1.188c0-.995-.005-2.357.878-2.756.814-.368 2.448-.502 2.81 1.632.226 1.33-2.012 4.325-1.197 5.166 1.609 1.66 3.302-.637 3.692-1.14l.003.005c1.176-1.868 2.154-4.523 2.154-4.523s2.721-15.36-9.947-17.904c-12.668-2.546-17.09 4.388-17.515 5.529-.425 1.14.17 2.984-.425 3.686s-2.89.878-3.145 3.247c-.255 2.37 2.805 4.125 3.4 5.003.346.51.376 1.196.341 1.683a.89.89 0 0 0 .512.873c.11.05.23.077.351.077h.927l-.201-1.371s.407-.42 1.12-.315"/>
            <path fill="#F7B6AA" d="M95.418 47.978l1.914-.043 3.694 4.62c1.233 1.272 3.19 1.123 4.866.628 5.82 8.277 13.706-.93 13.702-6.007a8.375 8.375 0 0 0-1.059-4.98l-2.02-3.55c-.389.504-2.082 2.801-3.691 1.14-.815-.84 1.423-3.835 1.197-5.165-.362-2.134-1.996-2-2.81-1.632-.884.399-.878 1.76-.878 2.756v1.188c0 .748-.999 1.037-1.722.988-.716-.048-1.634-.512-1.686-.943-.102-.84 1.012-1.816.706-4.759-.305-2.942-4.378-.63-4.378-.63s-3.36 2.417-4.378 2.837c-1.018.42-4.072.316-4.785.21-.712-.104-1.12.316-1.12.316l1.709 11.61.739 1.416z"/>
            <path fill="#F39987" d="M97.825 41.182c.089.009.164.067.197.153.257.667 1.356 3.546 1.38 3.97.159 2.794-1.035 3.821-1.035 3.821l-.977-1.419.174-6.288a.24.24 0 0 1 .261-.237M105.85 53.235s5.651-6.04 6.01-9.902c0 0 .716 3.986-2.906 10.025l-1.552 1.808-1.552-1.931z"/>
            <path fill="#87C4D5" d="M149.058 99.186l-15.43-.225V43.477h8.733c9.69 0 17.544 8.108 17.544 18.11l-.324 27.02c-.071 5.924-4.785 10.663-10.523 10.58"/>
            <path fill="#BC3F72" d="M150.634 103.955c-2.764 2.349-11.813 7.724-30.827 5.508l-14.33-5.072-4.67-18.936-13.323-4.787s-1.686-2.44-.522-6.312l1.035-2.937 1.163-9.878c.91-5.503 2.328-10.946 5.38-14.85l.18-.368.647 1.602h1.94l3.669 4.578c1.232 1.272 3.19 1.123 4.866.628 5.818 8.277 13.705-.93 13.701-6.007a8.376 8.376 0 0 0-1.058-4.98l-2.04-3.563s7.37.668 14.224 3.738c3.685 1.65 13.449 5.072 15.13 22.426.565 5.835 1.05 12.93 1.05 12.93.037.812.135 1.62.294 2.415l4.286 21.526a2.445 2.445 0 0 1-.795 2.339"/>
            <path fill="#D8EBF1" d="M71.617 128.763c.488-.126 12.435-6.922 12.435-6.922l-20.481-5.915 8.046 12.837z"/>
            <path fill="#F7B6AA" d="M95.181 91.466c1.16-1.557 2.388-5.575 3.203-8.625-2.275-1.922-6.051-3.922-10.9-2.174l-10.56 20.635.759.666c.74.803 1.35 1.724 1.807 2.727l1.455 3.192.026-.02c.493-.306 12.236-13.753 14.21-16.401"/>
            <path fill="#F39987" d="M83.931 108.173c1.776-1.426 9.868-9.78 10.658-11.104.79-1.325 5.921-7.539 6.217-11.614 0 0-.854-1.288-2.422-2.614-.815 3.05-2.043 7.068-3.203 8.625-1.974 2.648-13.717 16.095-14.21 16.401l-.026.02 1.802 3.953s-.592-2.241 1.184-3.667"/>
            <path fill="#9D1852" d="M100.894 85.517l-1.486-6.647-1.132 4.017zM129.635 103.99l-9.763 5.38 3.634.345c.427-.22 5.878-3.325 6.947-3.986 1.068-.662 5.13-3.751 5.877-4.744.749-.993 2.352-2.648 2.993-4.413.291-.802.428-1.739.49-2.524-1.6 2.73-5.041 5.907-10.178 9.942"/>
            <path fill="#F7B6AA" d="M136.23 84.65c-7.242-4.688-12.931 4.657-12.931 4.657l-15.461 15.605a14.711 14.711 0 0 1-3.897 2.862l-2.58 1.304c-.64.324-1.342.5-2.055.517l-7.76.189c-.99.024-1.949.36-2.748.961l-4.624 3.48 3.292 7.552s4.998-4.028 5.73-4.657c.731-.629 2.56-.88 2.56-.88l-6.6 6.09a1.047 1.047 0 0 0-.121 1.375.97.97 0 0 0 1.332.236l4.17-2.794s1.91-1.256 2.53-1.477c1.249-.442 2.03-.164 3.42-.155 1.297.008 3.188-.533 4.33-1.168l3.617-2.737 7.072-3.901 3.743-2.046 10.386-5.673c5.137-4.034 8.578-7.211 10.178-9.942 2.107-3.594 1.025-6.414-3.582-9.397"/>
            <path fill="#87C4D5" d="M47.674 117.61l-10.65 5.776c-.523.284-.457 1.078.106 1.265l47.02 15.638a.649.649 0 0 0 .57-.08l32.733-22.23-.087-.724-24.624 14.95-45.068-14.595z"/>
            <path fill="#BADDE6" d="M90.415 133.218l-42.12-12.234a5.418 5.418 0 0 1-3.236-2.653l-13.85-25.976c-.523-.973.322-2.123 1.37-1.866l42.475 10.393c1.937.474 3.559 1.833 4.406 3.693l12.557 26.695c.497 1.09-.48 2.277-1.602 1.948"/>
            <path fill="#F39987" d="M88.806 115.303c.898-.801 2.571-1.673 3.018-1.615.447.057-2.18 1.919-2.18 1.919l-2.376 2.027c-.185.192-.454.021-.289-.213.232-.33.929-1.316 1.827-2.118M86.794 113.607c.898-.801 2.36-1.784 2.807-1.726.169.022-1.239.972-2.395 1.982-1.03.9-1.816 1.875-1.816 1.875-.186.191-.454.02-.289-.213.232-.33.795-1.117 1.693-1.918M93.5 118.347l-1.048-.49.799-.687c.255-.22.554-.38.874-.47l1.63-.46-2.255 2.107z"/>
            <path fill="#FFCD11" d="M41.108 33.637c-.166-2.688 1.81-5.006 4.415-5.177h.01a4.69 4.69 0 0 1 2.005.318c2.436.974 3.645 3.803 2.7 6.317-.944 2.514-3.684 3.762-6.12 2.788-1.72-.689-2.894-2.346-3.01-4.246"/>
            <path fill="#E20B18" d="M4.464 106.385l-4.004.259-.25-4.134 4.004-.26z"/>
            <path fill="#758CB2" d="M125.385 164.519l-2.434 3.478-3.369-2.512 2.433-3.478zM80.377 2.659l-2.433 3.478-3.37-2.512L77.009.147z"/>
            <path fill="#FFF" d="M44.212 139.706l-.662-4.235 4.102-.683.662 4.235z"/>
            <path fill="#BADDE6" d="M93.09 134.479l-.803.622 17.337 6 18.758-17.077-.096-.952-18.887 17.004z"/>
            <path fill="#FFF" d="M128.286 123.072l-13.312-3.422L93.09 134.48l16.309 5.597z"/>
            <path fill="#BADDE6" d="M158.205 116.358l-17.209 19.603-19.092-6.039-.803.641 20.023 6.32 17.264-19.66z"/>
            <path fill="#FFF" d="M158.205 116.358l-20.103-2.778-16.198 16.342 19.092 6.039z"/>
            <path fill="#5EA7BB" d="M119.14 121.8c.36.248 15.937 8.783 16.296 8.66.36-.125 10.185-6.433 10.185-6.433l-15.457-7.545-11.023 5.319z"/>
            <path fill="#43BAC2" d="M119.201 121.304c.36.248 15.936 8.782 16.295 8.659.36-.124 10.185-6.432 10.185-6.432l-15.457-7.545-11.023 5.318z"/>
            <path fill="#FFF" d="M135.319 127.78s-2.645-1.18-2.405-1.241c.24-.062 7.034-4.096 7.034-4.096l2.345 1.055-6.974 4.282z"/>
            <path fill="#FFF" d="M135.86 128.028s-2.645-1.179-2.405-1.241c.24-.062 7.034-4.096 7.034-4.096l2.345 1.055-6.974 4.282z"/>
            <path fill="#D1EAF2" d="M133.516 126.787c.24-.062 7.033-4.096 7.033-4.096l1.8.81.004-.003-2.345-1.055s-6.793 4.034-7.033 4.096c-.196.05 1.515.838 2.162 1.132-.759-.353-1.775-.845-1.621-.884"/>
            <path fill="#FFF" d="M137.682 121.004c0 .343-.332.62-.742.62s-.743-.277-.743-.62c0-.343.332-.62.743-.62.41 0 .742.277.742.62M134.682 119.708c0 .343-.333.62-.743.62s-.743-.277-.743-.62c0-.343.332-.62.743-.62.41 0 .743.277.743.62M131.733 118.285c0 .343-.332.62-.742.62s-.743-.277-.743-.62c0-.343.332-.62.743-.62.41 0 .742.277.742.62M134.136 122.493c0 .343-.333.621-.743.621s-.743-.278-.743-.62c0-.343.332-.621.743-.621.41 0 .743.278.743.62M131.135 121.197c0 .343-.333.621-.743.621s-.743-.278-.743-.62c0-.344.333-.622.743-.622s.743.278.743.621M128.186 119.774c0 .343-.332.621-.742.621s-.743-.278-.743-.62c0-.344.332-.622.743-.622.41 0 .742.278.742.621M131.07 124.293c0 .343-.333.62-.743.62s-.743-.277-.743-.62c0-.343.332-.62.743-.62.41 0 .743.277.743.62M128.069 122.997c0 .343-.333.62-.743.62s-.743-.277-.743-.62c0-.343.333-.62.743-.62s.743.277.743.62M125.12 121.574c0 .343-.332.62-.742.62s-.743-.277-.743-.62c0-.343.332-.62.743-.62.41 0 .743.277.743.62"/>
            <path fill="#87C4D5" d="M162.823 116.532c0 .922-3.057 1.67-6.827 1.67s-6.826-.748-6.826-1.67c0-.923 3.056-1.67 6.826-1.67 3.77 0 6.827.747 6.827 1.67"/>
            <path fill="#BADDE6" d="M156.413 113.189s-4.823.371-6.047-5.426c-1.18-5.59 3.96-4.904 3.96-4.904l-.073 1.56s-3.311.075-2.375 3.94c.936 3.864 3.96 3.269 3.96 3.269l.575 1.56z"/>
            <path fill="#FFF" d="M153.09 100.636l1.579 12.68c.39 2.673 2.66 4.62 5.277 4.524 2.423-.088 4.459-1.908 4.89-4.371l1.936-12.94"/>
            <path fill="#BADDE6" d="M155.865 100.614l.208.022c.081.25 1.034 8.695 1.463 12.302.605 5.081 3.188 4.811 3.188 4.811 2.07-.404 3.728-2.086 4.112-4.28l2.376-13.732-11.347.877z"/>
            <path fill="#BC3F72" d="M159.568 96.925c.171-.238.29-.463.362-.677-3.708.068-6.668 1.419-6.668 3.076 0 1.288 1.786 2.39 4.32 2.85-.797-1.374.302-2.91 1.986-5.249M163.447 100.574a2.096 2.096 0 0 0 .157 1.442c2.135-.526 3.58-1.534 3.58-2.692 0-.64-.442-1.234-1.198-1.727-1.103 1.065-2.307 1.971-2.539 2.977"/>
            <path fill="#FFF" fill-opacity=".4" d="M167.93 94.344c.517-5.517-3.878-6.527-6.559-8.015-1.577-.874-2.318-2.84-1.61-4.537.372-.892 1.117-1.668 2.565-1.775 3.621-.267-5.086-6.942-11.465-.623-5.525 5.472-3.104 11.569.775 12.548 3.21.81 9.168 1.718 8.294 4.306.097-.002.195-.003.293-.003 2.398 0 4.512.536 5.763 1.352.948-.913 1.821-1.943 1.944-3.253"/>
            <path fill="#E0B3C3" d="M159.93 96.248a2.59 2.59 0 0 1-.362.677c-1.683 2.34-2.783 3.875-1.985 5.25.814.147 1.705.229 2.64.229 1.227 0 2.38-.14 3.38-.388a2.095 2.095 0 0 1-.156-1.442c.232-1.006 1.436-1.912 2.54-2.977-1.252-.816-3.366-1.352-5.764-1.352-.098 0-.196.001-.293.003"/>
        </g>
    </g>
</svg>
