<svg xmlns="http://www.w3.org/2000/svg" xmlns:xlink="http://www.w3.org/1999/xlink" width="667" height="833" viewBox="0 0 667 833">
    <defs>
        <path id="a" d="M.57.565h660.368v279.426H.57z"/>
        <path id="c" d="M.139.044h36.696v91.041H.139z"/>
        <path id="e" d="M.21 158.243h222.412V.129H.21z"/>
    </defs>
    <g fill="none" fill-rule="evenodd">
        <g transform="translate(6.821 372.848)">
            <mask id="b" fill="#fff">
                <use xlink:href="#a"/>
            </mask>
            <path fill="#D8EBF1" d="M365.046 279.496l-260.94-13.268C30.72 262.496-6.062 187.527 42.75 141.175c123.174-112.043 319.947-3.294 333.993-13.91C475.06 52.95 310.826-5.688 444.355 1.1l142.979 7.27c71.045 3.613 115.111 68.878 82.862 122.725-58.025 96.883-177.323 154.9-305.15 148.4" mask="url(#b)"/>
        </g>
        <path fill="#FFF" d="M358.004 506.291l78.23 14.675c35.246 6.612 97.028-10.918 144.619-36.834 37.084-20.195 55.746-62.947 45.502-103.885l-17.319-8.997c-3.802-1.52-12.513-1.25-16.33.233l-162.094 63.039a130.533 130.533 0 0 0-72.608 71.77"/>
        <path fill="#D9EEF3" d="M327.008 453.452h39.74v-101.25h-39.74zM453.108 440.055h33.314V319.4h-33.314zM394.449 424.421h10.047v-112.58l-10.047 3.693z"/>
        <path fill="#D9EEF3" d="M438.625 440.14h25.257v-87.937h-25.257zM404.498 424.425h21.364V311.84h-21.364zM371.817 440.055h27.61v-98.33h-27.61zM415.594 97.383v-.052l-.045.027zM142.4 390.26c40.613-43.765 109.049-46.35 152.855-5.773 34.347 31.815 44.295 82.102 24.646 124.58-24.739-75.704-98.015-124.75-177.501-118.806"/>
        <path fill="#D9EEF3" d="M142.4 390.26c17.06-57.195 77.3-89.744 134.548-72.698 44.885 13.364 76.062 54.072 77.237 100.85-55.687-56.982-143.123-68.604-211.785-28.151"/>
        <path fill="#D9EEF3" d="M142.401 390.262c-6.78-59.296 35.837-112.856 95.187-119.63 46.53-5.31 91.196 19.9 110.658 62.46-73.606-30.57-158.591-6.968-205.845 57.17"/>
        <path fill="#D9EEF3" d="M18.849 257.016l48.157.818c51.305.871 98.024 40.483 122.584 103.912l47.294.765 37.397 96.528-49.964-.849c-23.924-.406-45.732-18.887-57.187-48.481-2.04-5.268-5.92-8.558-10.179-8.632l-44.126-.75c-23.93-.406-45.73-18.887-57.192-48.481l-36.784-94.83z"/>
        <path fill="#FFF" d="M238.602 436.296h38.902V323.375h-38.902z"/>
        <g transform="translate(162 279)">
            <g transform="translate(8.555 67.158)">
                <mask id="d" fill="#fff">
                    <use xlink:href="#c"/>
                </mask>
                <path fill="#FFF" d="M36.835.044C16.568.044.139 16.439.139 36.662v102.824h36.696V.044z" mask="url(#d)"/>
            </g>
            <mask id="f" fill="#fff">
                <use xlink:href="#e"/>
            </mask>
            <path fill="#D9EEF3" d="M76.04 121.736h39.5V69.015h-39.5zM76.04 138.537h39.5v-11.875h-39.5z" mask="url(#f)"/>
            <path fill="#FFF" d="M152.28 203.613h13.385V12.691l-13.385 5.161zM108.857 203.613h13.376V54.446l-13.376 5.163z" mask="url(#f)"/>
            <path fill="#88C4D5" d="M165.666 203.613h38.618V12.691h-38.618z" mask="url(#f)"/>
            <path fill="#D9EEF3" d="M173.082 203.613h31.2V12.691h-31.2z" mask="url(#f)"/>
            <path fill="#B8DFE8" d="M122.233 203.613h36.74V54.445h-36.74z" mask="url(#f)"/>
            <path fill="#FFF" d="M42.585 203.622h40.802V73.61H42.585z" mask="url(#f)"/>
            <path fill="#88C4D5" d="M122.233 54.446l30.047 149.167h-30.047z" mask="url(#f)"/>
            <path fill="#D9EEF3" d="M49.008 202.455h3.276V85.502h-3.276z" mask="url(#f)"/>
            <path fill="#B8DFE8" d="M173.083 42.774l31.2-30.088h-38.617zM31.463 77.167c.716-13.026 4.02-17.086-3.757-28.885-5.766-8.718-10.633-20.515-3.608-30.21 5.834-8.049 20.038-10.297 27.959-4.02 9.68 7.638 2.682 24.185 30.86 36.48 11.27 4.916 12.58 19.18-3.758 24.411-6.762 2.162-16.959 3.88-23.44 32.173-4.142 18.097-25.644-5.231-24.282-29.923" mask="url(#f)"/>
        </g>
        <g>
            <path fill="#D8EDF2" d="M560.359 395.88a3.823 3.823 0 0 1-3.824 3.823 3.823 3.823 0 0 1-3.824-3.822 3.823 3.823 0 0 1 3.824-3.822 3.876 3.876 0 0 1 3.824 3.822"/>
            <path fill="#FFF" d="M345.476 569.033l93.25-57.68-139.7-25.882z"/>
            <path fill="#46749A" d="M352.037 212.034c2.664.38 14.081.76 17.887-.761 3.806-1.521 16.365-10.27 16.365-10.27s15.223-8.368 16.365 2.282c1.141 10.65-3.022 14.18-2.642 17.223.195 1.559 3.627 3.237 6.304 3.413 2.704.178 6.435-.868 6.435-3.576v-4.3c0-3.601-.018-8.53 3.283-9.975 3.045-1.33 9.154-1.817 10.506 5.906.844 4.813-7.521 15.652-4.477 18.695 6.015 6.011 12.346-2.302 13.802-4.125l.013.02c4.395-6.762 8.052-16.37 8.052-16.37s10.17-55.585-37.185-64.797c-47.354-9.212-63.88 15.881-65.47 20.01-1.59 4.13.636 10.8-1.59 13.342-2.224 2.54-10.805 3.176-11.758 11.752-.953 8.576 10.488 14.928 12.712 18.105 1.292 1.843 1.406 4.33 1.273 6.09-.1 1.35.677 2.61 1.914 3.16.414.184.861.279 1.313.279h3.466l-.754-4.962s1.522-1.522 4.186-1.141"/>
            <path fill="#F7B6AA" d="M356.68 260.633l7.157-.154 13.81 16.72c4.607 4.605 11.922 4.064 18.187 2.275 21.753 29.952 51.235-3.365 51.22-21.74a29.514 29.514 0 0 0-3.957-18.022l-7.55-12.849c-1.456 1.823-7.787 10.137-13.802 4.126-3.045-3.043 5.321-13.882 4.478-18.695-1.354-7.723-7.462-7.237-10.506-5.906-3.302 1.444-3.283 6.373-3.283 9.975v4.3c0 2.707-3.732 3.753-6.436 3.576-2.677-.176-6.109-1.854-6.304-3.413-.38-3.043 3.784-6.573 2.642-17.223-1.142-10.65-16.365-2.282-16.365-2.282s-12.559 8.748-16.365 10.27c-3.806 1.521-15.223 1.141-17.887.76-2.664-.38-4.186 1.142-4.186 1.142l6.386 42.02 2.762 5.12z"/>
            <path fill="#F39987" d="M365.68 236.039c.33.033.613.244.736.553.96 2.416 5.067 12.836 5.157 14.37.595 10.11-3.868 13.828-3.868 13.828l-3.65-5.134.647-22.759a.89.89 0 0 1 .977-.858M395.676 279.66s21.127-21.858 22.466-35.835c0 0 2.678 14.423-10.861 36.281l-5.802 6.543-5.803-6.989z"/>
            <path fill="#87C4D5" d="M557.193 445.96l-57.68-.816V244.347h32.648c36.217 0 65.577 29.343 65.577 65.54l-1.21 97.79c-.265 21.435-17.887 38.586-39.335 38.283"/>
            <path fill="#BC3F72" d="M563.083 463.217c-10.332 8.5-44.155 27.956-115.233 19.935l-53.566-18.357-17.461-68.528-49.8-17.327s-6.3-8.832-1.95-22.842l3.866-10.628 4.35-35.75c3.4-19.917 8.701-39.614 20.108-53.74l.678-1.333 2.417 5.797h7.25l13.716 16.567c4.607 4.605 11.923 4.063 18.188 2.274 21.751 29.952 51.234-3.365 51.218-21.74a29.518 29.518 0 0 0-3.957-18.022l-7.624-12.896s27.552 2.416 53.171 13.527c13.775 5.975 50.272 18.358 56.556 81.16 2.113 21.119 3.925 46.798 3.925 46.798a56.68 56.68 0 0 0 1.098 8.737l16.024 77.906a8.687 8.687 0 0 1-2.974 8.462"/>
            <path fill="#D8EBF1" d="M267.71 552.998c1.824-.455 46.484-25.05 46.484-25.05l-76.561-21.406 30.077 46.456z"/>
            <path fill="#F7B6AA" d="M355.796 418.02c4.336-5.634 8.925-20.175 11.973-31.213-8.503-6.96-22.62-14.197-40.746-7.868l-39.472 74.676 2.834 2.41a37.524 37.524 0 0 1 6.756 9.873l5.438 11.55c.032-.024.069-.055.097-.072 1.844-1.106 45.742-49.771 53.12-59.357"/>
            <path fill="#F39987" d="M313.743 478.482c6.64-5.161 36.888-35.393 39.84-40.186 2.95-4.792 22.133-27.281 23.24-42.029 0 0-3.194-4.664-9.054-9.46-3.048 11.038-7.638 25.58-11.973 31.212-7.378 9.586-51.275 58.25-53.12 59.357-.028.017-.064.048-.097.071l6.737 14.308s-2.213-8.111 4.427-13.273"/>
            <path fill="#9D1852" d="M377.152 396.49l-5.554-24.055-4.232 14.538zM484.587 463.346l-36.492 19.467 13.582 1.25c1.598-.798 21.972-12.03 25.967-14.426 3.995-2.395 19.176-13.575 21.972-17.168 2.797-3.594 8.789-9.582 11.186-15.97 1.088-2.901 1.599-6.294 1.833-9.136-5.983 9.883-18.845 21.38-38.048 35.983"/>
            <path fill="#F7B6AA" d="M509.243 393.355c-27.073-16.967-48.341 16.85-48.341 16.85l-57.794 56.476a54.932 54.932 0 0 1-14.565 10.359l-9.646 4.718a18.477 18.477 0 0 1-7.683 1.873l-29.01.683a18.162 18.162 0 0 0-10.27 3.479l-17.284 12.595 12.304 27.327s18.685-14.574 21.42-16.851c2.734-2.278 9.57-3.189 9.57-3.189l-24.67 22.043a3.7 3.7 0 0 0-.453 4.975 3.706 3.706 0 0 0 4.978.856l15.587-10.11s7.142-4.55 9.463-5.346c4.664-1.601 7.583-.594 12.778-.563 4.852.028 11.92-1.927 16.192-4.226l13.52-9.906 26.432-14.12 13.994-7.4 38.823-20.533c19.201-14.601 32.064-26.099 38.047-35.982 7.875-13.005 3.833-23.213-13.392-34.008"/>
            <path fill="#87C4D5" d="M178.21 512.635L138.4 533.54c-1.956 1.027-1.708 3.9.395 4.576l175.765 56.595a2.493 2.493 0 0 0 2.132-.289L439.05 513.97l-.324-2.617-92.046 54.104-168.468-52.822z"/>
            <path fill="#BADDE6" d="M337.981 569.122l-157.45-44.276a20.122 20.122 0 0 1-12.098-9.6l-51.773-94.007c-1.952-3.522 1.208-7.685 5.127-6.757l158.771 37.615a24.431 24.431 0 0 1 16.473 13.363l46.94 96.614c1.856 3.944-1.794 8.24-5.99 7.048"/>
            <path fill="#F39987" d="M331.965 504.288c3.357-2.9 9.611-6.056 11.283-5.847 1.672.209-8.149 6.945-8.149 6.945l-8.882 7.337c-.694.694-1.697.077-1.08-.771.867-1.192 3.47-4.764 6.828-7.664M324.443 498.149c3.357-2.9 8.821-6.455 10.493-6.246.631.079-4.63 3.517-8.95 7.171-3.854 3.26-6.79 6.786-6.79 6.786-.694.694-1.697.077-1.08-.771a40.456 40.456 0 0 1 6.327-6.94M349.513 515.302l-3.917-1.772 2.985-2.487a8.68 8.68 0 0 1 3.268-1.703l6.094-1.665-8.43 7.627z"/>
            <path fill="#FFCD11" d="M153.664 208.733c-.619-9.728 6.77-18.116 16.504-18.735l.035-.002a18.05 18.05 0 0 1 7.498 1.152c9.105 3.527 13.624 13.763 10.095 22.862-3.53 9.1-13.772 13.616-22.877 10.089a17.672 17.672 0 0 1-11.255-15.366"/>
            <path fill="#E20B18" d="M16.688 472.012l-14.97.936-.936-14.96 14.97-.937z"/>
            <path fill="#758CB2" d="M468.7 682.4l-9.096 12.588-12.594-9.09 9.095-12.587zM300.457 96.623l-9.095 12.587-12.594-9.09 9.095-12.587z"/>
            <path fill="#FFF" d="M165.267 592.603l-2.474-15.327 15.337-2.473 2.474 15.327z"/>
            <path fill="#BADDE6" d="M347.979 573.686l-3.003 2.25 64.81 21.717 70.116-61.805-.358-3.444-70.6 61.538z"/>
            <path fill="#FFF" d="M479.544 532.404l-49.759-12.384-81.806 53.666 60.964 20.256z"/>
            <path fill="#BADDE6" d="M591.386 508.106l-64.329 70.942-71.369-21.854-3 2.32 74.846 22.87 64.536-71.15z"/>
            <path fill="#FFF" d="M591.386 508.106l-75.146-10.053-60.552 59.14 71.37 21.855z"/>
            <path fill="#5EA7BB" d="M445.36 527.803c1.344.895 59.57 31.782 60.913 31.335 1.344-.448 38.071-23.277 38.071-23.277l-57.778-27.306-41.206 19.248z"/>
            <path fill="#43BAC2" d="M445.585 526.007c1.343.895 59.57 31.782 60.913 31.334 1.344-.448 38.071-23.277 38.071-23.277l-57.778-27.306-41.206 19.249z"/>
            <path fill="#FFF" d="M505.835 549.441s-9.887-4.267-8.989-4.492c.9-.225 26.293-14.823 26.293-14.823l8.765 3.818-26.069 15.497z"/>
            <path fill="#FFF" d="M507.858 550.34s-9.888-4.268-8.99-4.492c.9-.225 26.294-14.823 26.294-14.823l8.764 3.818-26.068 15.497z"/>
            <path fill="#D1EAF2" d="M499.094 545.848c.899-.225 26.292-14.823 26.292-14.823l6.726 2.93.016-.01-8.764-3.819s-25.394 14.599-26.293 14.823c-.73.183 5.664 3.036 8.085 4.098-2.837-1.276-6.634-3.056-6.062-3.2"/>
            <path fill="#FFF" d="M514.67 524.92c0 1.24-1.243 2.246-2.777 2.246-1.533 0-2.776-1.006-2.776-2.247 0-1.24 1.243-2.246 2.776-2.246 1.534 0 2.777 1.006 2.777 2.246M503.452 520.228c0 1.24-1.243 2.247-2.776 2.247-1.534 0-2.777-1.006-2.777-2.247 0-1.24 1.243-2.246 2.777-2.246 1.533 0 2.776 1.006 2.776 2.246M492.432 515.078c0 1.24-1.243 2.247-2.777 2.247-1.533 0-2.776-1.006-2.776-2.247 0-1.24 1.243-2.246 2.776-2.246 1.534 0 2.777 1.006 2.777 2.246M501.411 530.31c0 1.24-1.243 2.246-2.776 2.246-1.534 0-2.777-1.006-2.777-2.246s1.243-2.247 2.777-2.247c1.533 0 2.776 1.006 2.776 2.247M490.194 525.619c0 1.24-1.243 2.246-2.777 2.246s-2.777-1.006-2.777-2.246 1.243-2.247 2.777-2.247 2.777 1.006 2.777 2.247M479.173 520.469c0 1.24-1.243 2.246-2.776 2.246-1.534 0-2.777-1.006-2.777-2.246s1.243-2.247 2.777-2.247c1.533 0 2.776 1.006 2.776 2.247M489.95 536.823c0 1.24-1.243 2.246-2.776 2.246-1.534 0-2.777-1.006-2.777-2.246s1.243-2.246 2.777-2.246c1.533 0 2.776 1.005 2.776 2.246M478.733 532.132c0 1.24-1.243 2.246-2.777 2.246s-2.777-1.006-2.777-2.246 1.243-2.247 2.777-2.247 2.777 1.006 2.777 2.247M467.712 526.982c0 1.24-1.243 2.247-2.776 2.247-1.534 0-2.777-1.006-2.777-2.247 0-1.24 1.243-2.247 2.777-2.247 1.533 0 2.776 1.006 2.776 2.247"/>
            <path fill="#87C4D5" d="M608.647 508.734c0 3.337-11.425 6.043-25.519 6.043-14.093 0-25.518-2.706-25.518-6.043 0-3.338 11.425-6.044 25.518-6.044 14.094 0 25.519 2.706 25.519 6.044"/>
            <path fill="#BADDE6" d="M584.687 496.635s-18.03 1.345-22.605-19.634c-4.413-20.234 14.801-17.75 14.801-17.75l-.269 5.647s-12.379.27-8.88 14.255c3.497 13.986 14.8 11.834 14.8 11.834l2.153 5.648z"/>
            <path fill="#FFF" d="M572.265 451.207l5.9 45.89c1.459 9.674 9.946 16.717 19.729 16.371 9.057-.319 16.667-6.905 18.278-15.82l7.24-46.826"/>
            <path fill="#BADDE6" d="M582.637 451.128l.78.079c.302.905 3.862 31.466 5.468 44.52 2.26 18.39 11.916 17.414 11.916 17.414 7.74-1.462 13.936-7.552 15.37-15.492l8.882-49.695-42.416 3.174z"/>
            <path fill="#BC3F72" d="M596.48 437.777c.64-.861 1.082-1.677 1.353-2.452-13.861.247-24.924 5.136-24.924 11.134 0 4.659 6.676 8.648 16.15 10.314-2.982-4.972 1.128-10.53 7.42-18.996M610.98 450.982c-.492 2.07-.14 3.805.586 5.22 7.981-1.904 13.383-5.552 13.383-9.743 0-2.316-1.651-4.468-4.476-6.25-4.126 3.852-8.625 7.132-9.493 10.773"/>
            <path fill="#FFF" fill-opacity=".4" d="M627.738 428.437c1.933-19.968-14.495-23.622-24.517-29.007-5.895-3.166-8.667-10.277-6.02-16.42 1.392-3.23 4.176-6.039 9.59-6.425 13.535-.967-19.013-25.121-42.86-2.255-20.651 19.803-11.6 41.869 2.9 45.411 11.995 2.93 34.27 6.218 31.001 15.584.364-.006.73-.012 1.097-.012 8.962 0 16.864 1.942 21.544 4.895 3.54-3.305 6.806-7.031 7.265-11.77"/>
            <path fill="#E0B3C3" d="M597.832 435.325c-.27.775-.713 1.591-1.353 2.452-6.291 8.465-10.402 14.024-7.42 18.996 3.045.535 6.376.832 9.87.832 4.588 0 8.895-.51 12.638-1.403-.726-1.415-1.08-3.151-.586-5.22.867-3.64 5.366-6.92 9.492-10.774-4.68-2.953-12.582-4.895-21.544-4.895-.368 0-.733.006-1.097.012"/>
        </g>
    </g>
</svg>
